{"glyphs":{"0":{"ha":1014,"x_min":61,"x_max":953,"o":"m 507 -28 q 269 36 369 -27 q 115 218 169 99 q 61 503 61 337 q 116 786 62 670 q 270 963 170 903 q 507 1024 369 1024 q 745 963 645 1024 q 899 786 845 902 q 953 503 953 669 q 899 217 953 336 q 745 35 844 98 q 507 -28 645 -28 m 507 195 q 624 270 578 195 q 669 503 669 344 q 648 673 669 607 q 591 771 627 739 q 507 803 554 803 q 391 731 436 803 q 345 503 346 659 q 365 329 345 397 q 423 228 386 260 q 507 195 460 195 z "},"1":{"ha":702,"x_min":61,"x_max":562,"o":"m 562 1010 l 562 0 l 288 0 l 288 758 l 282 758 l 61 625 l 61 858 l 310 1010 l 562 1010 z "},"2":{"ha":898,"x_min":47,"x_max":842,"o":"m 67 0 l 67 197 l 444 509 q 508 567 481 540 q 550 624 535 595 q 564 689 564 653 q 548 755 564 727 q 502 798 531 783 q 435 813 473 813 q 368 798 397 813 q 324 753 339 782 q 308 681 308 723 l 47 681 q 95 864 47 787 q 230 982 143 941 q 435 1024 318 1024 q 645 985 556 1024 q 783 876 734 946 q 832 712 832 806 q 807 597 832 654 q 721 470 783 539 q 543 304 658 400 l 448 225 l 448 219 l 842 219 l 842 0 l 67 0 z "},"3":{"ha":937,"x_min":51,"x_max":883,"o":"m 462 -14 q 250 27 342 -14 q 105 141 157 69 q 51 308 52 214 l 327 308 q 345 256 328 279 q 394 220 363 233 q 464 207 424 207 q 531 221 502 207 q 576 258 560 234 q 592 314 592 283 q 573 368 592 344 q 520 405 554 392 q 442 418 486 418 l 339 418 l 339 608 l 442 608 q 514 621 483 608 q 563 658 545 634 q 580 712 581 682 q 566 764 581 742 q 525 800 551 787 q 464 813 498 813 q 397 799 426 813 q 351 763 367 786 q 333 708 334 739 l 71 708 q 122 872 72 801 q 261 983 173 943 q 464 1024 349 1024 q 662 986 576 1024 q 796 882 748 948 q 844 730 845 815 q 786 591 845 645 q 637 527 727 537 l 637 519 q 821 444 760 506 q 882 290 883 383 q 829 133 882 201 q 680 25 775 64 q 462 -14 585 -14 z "},"4":{"ha":975,"x_min":57,"x_max":927,"o":"m 57 158 l 57 371 l 464 1010 l 657 1010 l 657 726 l 546 726 l 327 379 l 327 371 l 927 371 l 927 158 l 57 158 m 548 0 l 548 223 l 554 316 l 554 1010 l 811 1010 l 811 0 l 548 0 z "},"5":{"ha":929,"x_min":71,"x_max":878,"o":"m 472 -14 q 265 27 355 -14 q 124 141 175 69 q 71 308 72 214 l 337 308 q 378 224 339 255 q 472 193 417 193 q 545 211 513 193 q 596 262 578 229 q 614 339 614 295 q 596 417 614 384 q 545 467 578 449 q 472 485 513 485 q 391 464 428 485 q 337 406 355 443 l 97 454 l 136 1010 l 815 1010 l 815 791 l 361 791 l 341 568 l 347 568 q 429 644 371 614 q 564 675 487 675 q 725 633 654 675 q 837 517 796 591 q 878 347 878 443 q 828 160 878 242 q 686 32 777 78 q 472 -14 595 -14 z "},"6":{"ha":951,"x_min":51,"x_max":894,"o":"m 489 -14 q 322 14 401 -14 q 182 102 243 42 q 87 259 121 162 q 51 493 52 356 q 83 716 52 618 q 172 885 114 815 q 311 991 230 954 q 491 1028 392 1028 q 688 985 603 1028 q 823 869 772 942 q 882 708 873 797 l 612 708 q 568 775 602 754 q 491 795 535 795 q 365 720 405 795 q 324 519 325 644 l 329 519 q 388 598 349 565 q 478 649 427 631 q 588 667 530 667 q 748 625 680 667 q 856 512 817 584 q 894 347 894 440 q 843 157 894 239 q 700 31 791 76 q 489 -14 609 -14 m 487 193 q 560 212 528 193 q 610 263 592 231 q 627 337 628 296 q 610 412 628 379 q 560 463 592 444 q 487 481 528 481 q 432 471 457 481 q 388 441 406 460 q 358 395 369 421 q 347 337 348 368 q 366 263 348 296 q 416 212 384 231 q 487 193 447 193 z "},"7":{"ha":848,"x_min":43,"x_max":793,"o":"m 112 0 l 509 785 l 509 791 l 43 791 l 43 1010 l 793 1010 l 793 791 l 395 0 l 112 0 z "},"8":{"ha":959,"x_min":55,"x_max":904,"o":"m 479 -14 q 261 24 357 -14 q 110 127 165 62 q 55 274 55 192 q 87 389 55 337 q 171 475 118 440 q 290 519 224 509 l 290 527 q 148 603 204 542 q 93 750 93 665 q 143 891 93 829 q 281 988 193 953 q 479 1024 368 1024 q 678 988 591 1024 q 816 890 765 952 q 866 750 866 829 q 810 603 866 665 q 669 527 754 542 l 669 519 q 787 475 734 509 q 872 389 840 440 q 904 274 904 337 q 849 127 904 192 q 698 24 794 62 q 479 -14 602 -14 m 479 176 q 548 191 518 176 q 596 235 579 207 q 614 298 614 263 q 596 360 614 333 q 548 403 579 387 q 479 418 518 418 q 411 403 441 418 q 363 360 380 387 q 345 298 345 333 q 363 235 345 263 q 411 192 380 208 q 479 176 441 176 m 479 608 q 541 622 514 608 q 582 661 567 636 q 598 718 598 687 q 582 774 598 750 q 541 813 567 799 q 479 827 514 827 q 418 813 445 827 q 376 774 392 799 q 361 718 361 750 q 376 662 361 687 q 418 622 392 637 q 479 608 445 608 z "},"9":{"ha":951,"x_min":57,"x_max":900,"o":"m 462 1028 q 629 1000 550 1028 q 769 912 708 972 q 864 755 830 852 q 900 521 899 658 q 868 298 899 397 q 779 129 836 199 q 640 23 721 60 q 460 -14 559 -14 q 263 29 348 -14 q 128 145 178 72 q 69 306 77 217 l 339 306 q 383 239 349 260 q 460 219 416 219 q 587 294 546 219 q 627 495 627 369 l 621 495 q 563 416 602 449 q 472 365 524 383 q 363 347 421 347 q 203 388 272 347 q 95 502 134 430 q 57 667 57 574 q 108 856 57 775 q 251 983 159 938 q 462 1028 342 1028 m 464 821 q 391 802 423 821 q 341 751 359 783 q 324 677 323 718 q 341 603 323 635 q 391 551 359 570 q 464 533 423 533 q 519 544 494 533 q 563 574 545 554 q 593 619 582 593 q 604 677 603 646 q 585 751 603 718 q 535 802 567 783 q 464 821 504 821 z "},"A":{"ha":1105,"x_min":32,"x_max":1073,"o":"m 327 0 l 32 0 l 365 1010 l 740 1010 l 1073 0 l 777 0 l 556 732 l 548 732 l 327 0 m 272 399 l 829 399 l 829 193 l 272 193 l 272 399 z "},"Ä":{"ha":1105,"x_min":32,"x_max":1073,"o":"m 327 0 l 32 0 l 365 1010 l 740 1010 l 1073 0 l 777 0 l 556 732 l 548 732 l 327 0 m 272 399 l 829 399 l 829 193 l 272 193 l 272 399 z "},"Ã":{"ha":1105,"x_min":32,"x_max":1073,"o":"m 327 0 l 32 0 l 365 1010 l 740 1010 l 1073 0 l 777 0 l 556 732 l 548 732 l 327 0 m 272 399 l 829 399 l 829 193 l 272 193 l 272 399 z "},"À":{"ha":1105,"x_min":32,"x_max":1073,"o":"m 327 0 l 32 0 l 365 1010 l 740 1010 l 1073 0 l 777 0 l 556 732 l 548 732 l 327 0 m 272 399 l 829 399 l 829 193 l 272 193 l 272 399 m 464 1105 l 316 1326 l 548 1326 l 643 1105 l 464 1105 z "},"Á":{"ha":1105,"x_min":32,"x_max":1073,"o":"m 327 0 l 32 0 l 365 1010 l 740 1010 l 1073 0 l 777 0 l 556 732 l 548 732 l 327 0 m 272 399 l 829 399 l 829 193 l 272 193 l 272 399 m 462 1105 l 556 1326 l 789 1326 l 641 1105 l 462 1105 z "},"Â":{"ha":1105,"x_min":32,"x_max":1073,"o":"m 327 0 l 32 0 l 365 1010 l 740 1010 l 1073 0 l 777 0 l 556 732 l 548 732 l 327 0 m 272 399 l 829 399 l 829 193 l 272 193 l 272 399 m 456 1100 l 231 1100 l 231 1106 l 458 1331 l 647 1331 l 874 1106 l 874 1100 l 649 1100 l 552 1208 l 456 1100 z "},"Å":{"ha":1105,"x_min":32,"x_max":1073,"o":"m 327 0 l 32 0 l 365 1010 l 740 1010 l 1073 0 l 777 0 l 556 732 l 548 732 l 327 0 m 272 399 l 829 399 l 829 193 l 272 193 l 272 399 m 552 1055 q 473 1076 509 1055 q 416 1131 437 1096 q 395 1207 395 1165 q 416 1284 395 1249 q 473 1339 437 1318 q 552 1359 509 1359 q 632 1339 596 1359 q 689 1284 668 1318 q 710 1207 710 1249 q 689 1131 710 1165 q 632 1076 668 1096 q 552 1055 596 1055 m 552 1148 q 597 1166 578 1149 q 616 1208 616 1183 q 597 1250 616 1232 q 552 1267 579 1267 q 508 1249 527 1266 q 489 1207 489 1232 q 508 1165 489 1183 q 552 1148 526 1148 z "},"Ā":{"ha":1105,"x_min":32,"x_max":1073,"o":"m 327 0 l 32 0 l 365 1010 l 740 1010 l 1073 0 l 777 0 l 556 732 l 548 732 l 327 0 m 272 399 l 829 399 l 829 193 l 272 193 l 272 399 m 799 1263 l 799 1138 l 306 1138 l 306 1263 l 799 1263 z "},"Ă":{"ha":1105,"x_min":32,"x_max":1073,"o":"m 327 0 l 32 0 l 365 1010 l 740 1010 l 1073 0 l 777 0 l 556 732 l 548 732 l 327 0 m 272 399 l 829 399 l 829 193 l 272 193 l 272 399 m 651 1282 l 823 1282 q 749 1129 822 1186 q 552 1071 676 1071 q 355 1129 428 1071 q 282 1282 282 1186 l 452 1282 q 474 1225 451 1251 q 552 1199 497 1199 q 628 1225 605 1199 q 651 1282 651 1250 z "},"Ą":{"ha":1105,"x_min":32,"x_max":1093,"o":"m 327 0 l 32 0 l 365 1010 l 740 1010 l 1073 0 l 777 0 l 556 732 l 548 732 l 327 0 m 272 399 l 829 399 l 829 193 l 272 193 l 272 399 m 975 -274 q 859 -240 906 -274 q 793 -144 812 -206 q 783 -58 780 -102 q 803 20 786 -14 q 848 67 820 54 l 1073 0 q 1000 -32 1025 -15 q 975 -79 974 -49 q 987 -117 974 -104 q 1020 -130 1000 -130 q 1042 -127 1033 -130 q 1061 -122 1052 -124 l 1093 -245 q 1044 -265 1073 -255 q 975 -274 1014 -274 z "},"Ǎ":{"ha":1105,"x_min":32,"x_max":1073,"o":"m 327 0 l 32 0 l 365 1010 l 740 1010 l 1073 0 l 777 0 l 556 732 l 548 732 l 327 0 m 272 399 l 829 399 l 829 193 l 272 193 l 272 399 m 456 1332 l 552 1223 l 649 1332 l 874 1332 l 874 1326 l 647 1101 l 458 1101 l 231 1326 l 231 1332 l 456 1332 z "},"Ǟ":{"ha":1105,"x_min":32,"x_max":1073,"o":"m 327 0 l 32 0 l 365 1010 l 740 1010 l 1073 0 l 777 0 l 556 732 l 548 732 l 327 0 m 272 399 l 829 399 l 829 193 l 272 193 l 272 399 z "},"Ǡ":{"ha":1105,"x_min":32,"x_max":1073,"o":"m 327 0 l 32 0 l 365 1010 l 740 1010 l 1073 0 l 777 0 l 556 732 l 548 732 l 327 0 m 272 399 l 829 399 l 829 193 l 272 193 l 272 399 z "},"Ǻ":{"ha":1105,"x_min":32,"x_max":1073,"o":"m 327 0 l 32 0 l 365 1010 l 740 1010 l 1073 0 l 777 0 l 556 732 l 548 732 l 327 0 m 272 399 l 829 399 l 829 193 l 272 193 l 272 399 m 552 1059 q 461 1095 499 1059 q 422 1182 422 1131 q 461 1268 422 1232 q 552 1304 499 1304 q 645 1268 607 1304 q 683 1182 683 1232 q 645 1095 683 1131 q 552 1059 607 1059 m 552 1134 q 587 1148 573 1134 q 602 1182 602 1163 q 587 1213 602 1199 q 552 1227 573 1227 q 517 1213 532 1227 q 503 1182 503 1199 q 517 1148 503 1163 q 552 1134 532 1134 m 466 1361 l 623 1517 l 842 1517 l 625 1361 l 466 1361 z "},"Ȁ":{"ha":1105,"x_min":32,"x_max":1073,"o":"m 327 0 l 32 0 l 365 1010 l 740 1010 l 1073 0 l 777 0 l 556 732 l 548 732 l 327 0 m 272 399 l 829 399 l 829 193 l 272 193 l 272 399 m 518 1105 l 338 1105 l 190 1326 l 423 1326 l 518 1105 m 780 1105 l 606 1105 l 510 1326 l 730 1326 l 780 1105 z "},"Ȃ":{"ha":1105,"x_min":32,"x_max":1073,"o":"m 327 0 l 32 0 l 365 1010 l 740 1010 l 1073 0 l 777 0 l 556 732 l 548 732 l 327 0 m 272 399 l 829 399 l 829 193 l 272 193 l 272 399 m 280 1128 q 353 1286 280 1225 q 550 1347 426 1347 q 748 1286 674 1347 q 823 1128 822 1225 l 651 1128 q 628 1184 651 1160 q 550 1209 605 1209 q 474 1184 497 1209 q 452 1128 451 1160 l 280 1128 z "},"Ȧ":{"ha":1105,"x_min":32,"x_max":1073,"o":"m 327 0 l 32 0 l 365 1010 l 740 1010 l 1073 0 l 777 0 l 556 732 l 548 732 l 327 0 m 272 399 l 829 399 l 829 193 l 272 193 l 272 399 m 553 1089 q 458 1126 497 1089 q 418 1213 418 1162 q 458 1301 418 1265 q 552 1338 497 1338 q 647 1301 608 1338 q 687 1213 687 1265 q 647 1126 687 1162 q 553 1089 608 1089 z "},"Ḁ":{"ha":1105,"x_min":32,"x_max":1073,"o":"m 327 0 l 32 0 l 365 1010 l 740 1010 l 1073 0 l 777 0 l 556 732 l 548 732 l 327 0 m 272 399 l 829 399 l 829 193 l 272 193 l 272 399 m 414 -146 q 454 -64 414 -99 q 554 -30 494 -30 q 651 -64 612 -30 q 690 -146 690 -99 q 651 -231 690 -198 q 554 -264 612 -264 q 454 -230 494 -264 q 414 -146 414 -196 m 505 -146 q 519 -179 505 -167 q 554 -191 532 -191 q 586 -179 574 -191 q 598 -146 598 -167 q 586 -116 598 -128 q 554 -105 574 -105 q 519 -116 532 -105 q 505 -146 505 -128 z "},"Ạ":{"ha":1105,"x_min":32,"x_max":1073,"o":"m 327 0 l 32 0 l 365 1010 l 740 1010 l 1073 0 l 777 0 l 556 732 l 548 732 l 327 0 m 272 399 l 829 399 l 829 193 l 272 193 l 272 399 z "},"Ả":{"ha":1105,"x_min":32,"x_max":1073,"o":"m 327 0 l 32 0 l 365 1010 l 740 1010 l 1073 0 l 777 0 l 556 732 l 548 732 l 327 0 m 272 399 l 829 399 l 829 193 l 272 193 l 272 399 m 647 1123 l 452 1123 l 434 1199 q 509 1213 487 1201 q 531 1241 532 1225 q 505 1275 532 1268 q 438 1282 479 1282 l 444 1391 q 675 1355 596 1391 q 754 1255 755 1320 q 721 1191 755 1213 q 647 1162 688 1168 l 647 1123 z "},"Ấ":{"ha":1105,"x_min":32,"x_max":1073,"o":"m 327 0 l 32 0 l 365 1010 l 740 1010 l 1073 0 l 777 0 l 556 732 l 548 732 l 327 0 m 272 399 l 829 399 l 829 193 l 272 193 l 272 399 m 294 1085 l 491 1221 l 608 1221 l 807 1085 l 649 1085 l 550 1154 l 450 1085 l 294 1085 m 756 1150 l 884 1340 l 1059 1340 l 886 1150 l 756 1150 z "},"Ầ":{"ha":1105,"x_min":32,"x_max":1073,"o":"m 327 0 l 32 0 l 365 1010 l 740 1010 l 1073 0 l 777 0 l 556 732 l 548 732 l 327 0 m 272 399 l 829 399 l 829 193 l 272 193 l 272 399 m 610 1217 l 809 1081 l 651 1081 l 552 1150 l 452 1081 l 296 1081 l 493 1217 l 610 1217 m 217 1334 l 347 1146 l 219 1146 l 45 1334 l 217 1334 z "},"Ẩ":{"ha":1105,"x_min":32,"x_max":1073,"o":"m 327 0 l 32 0 l 365 1010 l 740 1010 l 1073 0 l 777 0 l 556 732 l 548 732 l 327 0 m 272 399 l 829 399 l 829 193 l 272 193 l 272 399 m 606 1221 l 805 1085 l 645 1085 l 552 1146 l 456 1085 l 296 1085 l 495 1221 l 606 1221 m 866 1166 l 740 1166 l 724 1229 q 786 1240 767 1231 q 805 1263 805 1249 q 782 1291 805 1285 q 726 1298 760 1298 l 732 1387 q 897 1358 840 1387 q 955 1274 955 1329 q 927 1223 955 1242 q 866 1198 899 1203 l 866 1166 z "},"Ẫ":{"ha":1105,"x_min":32,"x_max":1073,"o":"m 327 0 l 32 0 l 365 1010 l 740 1010 l 1073 0 l 777 0 l 556 732 l 548 732 l 327 0 m 272 399 l 829 399 l 829 193 l 272 193 l 272 399 m 616 1233 l 809 1091 l 649 1091 l 552 1160 l 460 1091 l 296 1091 l 491 1233 l 616 1233 m 651 1397 l 736 1365 q 715 1292 735 1325 q 655 1259 694 1259 q 612 1265 633 1259 q 572 1279 591 1271 q 535 1294 553 1288 q 499 1300 517 1300 q 481 1287 485 1300 q 477 1255 477 1274 l 395 1278 q 415 1348 394 1315 q 475 1381 435 1381 q 513 1375 493 1381 q 554 1361 533 1369 q 594 1347 575 1353 q 631 1342 614 1342 q 647 1360 643 1342 q 651 1397 651 1378 z "},"Ậ":{"ha":1105,"x_min":32,"x_max":1073,"o":"m 327 0 l 32 0 l 365 1010 l 740 1010 l 1073 0 l 777 0 l 556 732 l 548 732 l 327 0 m 272 399 l 829 399 l 829 193 l 272 193 l 272 399 m 456 1100 l 231 1100 l 231 1106 l 458 1331 l 647 1331 l 874 1106 l 874 1100 l 649 1100 l 552 1208 l 456 1100 z "},"Ắ":{"ha":1105,"x_min":32,"x_max":1073,"o":"m 327 0 l 32 0 l 365 1010 l 740 1010 l 1073 0 l 777 0 l 556 732 l 548 732 l 327 0 m 272 399 l 829 399 l 829 193 l 272 193 l 272 399 m 669 1257 l 823 1257 q 748 1130 822 1178 q 550 1081 674 1081 q 354 1130 427 1081 q 282 1257 282 1178 l 432 1257 q 459 1204 432 1229 q 550 1180 486 1180 q 642 1204 615 1180 q 669 1257 668 1229 m 481 1245 l 578 1365 l 746 1365 l 616 1245 l 481 1245 z "},"Ằ":{"ha":1105,"x_min":32,"x_max":1073,"o":"m 327 0 l 32 0 l 365 1010 l 740 1010 l 1073 0 l 777 0 l 556 732 l 548 732 l 327 0 m 272 399 l 829 399 l 829 193 l 272 193 l 272 399 m 669 1259 l 823 1259 q 749 1134 822 1183 q 550 1085 676 1085 q 354 1134 427 1085 q 282 1259 282 1183 l 432 1259 q 459 1206 432 1231 q 550 1182 486 1182 q 641 1206 614 1182 q 669 1259 668 1231 m 493 1245 l 361 1365 l 529 1365 l 623 1245 l 493 1245 z "},"Ẳ":{"ha":1105,"x_min":32,"x_max":1073,"o":"m 327 0 l 32 0 l 365 1010 l 740 1010 l 1073 0 l 777 0 l 556 732 l 548 732 l 327 0 m 272 399 l 829 399 l 829 193 l 272 193 l 272 399 m 671 1235 l 827 1235 q 752 1110 828 1157 q 548 1063 677 1063 q 347 1110 421 1063 q 272 1235 273 1157 l 426 1235 q 456 1186 427 1205 q 548 1166 484 1166 q 643 1186 615 1166 q 671 1235 672 1207 m 616 1263 l 464 1263 l 444 1322 q 518 1331 495 1323 q 541 1351 542 1340 q 515 1381 542 1375 q 448 1387 489 1387 l 454 1472 q 655 1444 586 1472 q 722 1363 723 1417 q 690 1312 723 1329 q 616 1290 656 1295 l 616 1263 z "},"Ẵ":{"ha":1105,"x_min":32,"x_max":1073,"o":"m 327 0 l 32 0 l 365 1010 l 740 1010 l 1073 0 l 777 0 l 556 732 l 548 732 l 327 0 m 272 399 l 829 399 l 829 193 l 272 193 l 272 399 m 667 1235 l 821 1235 q 746 1109 820 1157 q 548 1061 672 1061 q 351 1109 425 1061 q 278 1235 278 1157 l 430 1235 q 456 1187 430 1207 q 548 1168 483 1168 q 638 1187 610 1168 q 667 1235 666 1205 m 653 1454 l 758 1422 q 724 1338 757 1375 q 643 1300 691 1300 q 578 1310 606 1300 q 524 1331 549 1321 q 470 1342 499 1342 q 439 1326 453 1342 q 426 1284 426 1309 l 326 1314 q 357 1399 325 1363 q 440 1436 389 1436 q 483 1430 462 1436 q 526 1416 505 1424 q 569 1401 547 1407 q 614 1395 590 1395 q 640 1412 628 1395 q 653 1454 653 1429 z "},"Ặ":{"ha":1105,"x_min":32,"x_max":1073,"o":"m 327 0 l 32 0 l 365 1010 l 740 1010 l 1073 0 l 777 0 l 556 732 l 548 732 l 327 0 m 272 399 l 829 399 l 829 193 l 272 193 l 272 399 m 651 1282 l 823 1282 q 749 1129 822 1186 q 552 1071 676 1071 q 355 1129 428 1071 q 282 1282 282 1186 l 452 1282 q 474 1225 451 1251 q 552 1199 497 1199 q 628 1225 605 1199 q 651 1282 651 1250 z "},"Α":{"ha":1105,"x_min":32,"x_max":1073,"o":"m 327 0 l 32 0 l 365 1010 l 740 1010 l 1073 0 l 777 0 l 556 732 l 548 732 l 327 0 m 272 399 l 829 399 l 829 193 l 272 193 l 272 399 z "},"Ά":{"ha":1105,"x_min":32,"x_max":1073,"o":"m 327 0 l 32 0 l 365 1010 l 740 1010 l 1073 0 l 777 0 l 556 732 l 548 732 l 327 0 m 272 399 l 829 399 l 829 193 l 272 193 l 272 399 z "},"Ἀ":{"ha":1105,"x_min":32,"x_max":1073,"o":"m 327 0 l 32 0 l 365 1010 l 740 1010 l 1073 0 l 777 0 l 556 732 l 548 732 l 327 0 m 272 399 l 829 399 l 829 193 l 272 193 l 272 399 z "},"Ἁ":{"ha":1105,"x_min":32,"x_max":1073,"o":"m 327 0 l 32 0 l 365 1010 l 740 1010 l 1073 0 l 777 0 l 556 732 l 548 732 l 327 0 m 272 399 l 829 399 l 829 193 l 272 193 l 272 399 z "},"Ἂ":{"ha":1105,"x_min":-138,"x_max":1073,"o":"m 327 0 l 32 0 l 365 1010 l 740 1010 l 1073 0 l 777 0 l 556 732 l 548 732 l 327 0 m 272 399 l 829 399 l 829 193 l 272 193 l 272 399 z "},"Ἃ":{"ha":1105,"x_min":-109,"x_max":1073,"o":"m 327 0 l 32 0 l 365 1010 l 740 1010 l 1073 0 l 777 0 l 556 732 l 548 732 l 327 0 m 272 399 l 829 399 l 829 193 l 272 193 l 272 399 z "},"Ἄ":{"ha":1105,"x_min":-130,"x_max":1073,"o":"m 327 0 l 32 0 l 365 1010 l 740 1010 l 1073 0 l 777 0 l 556 732 l 548 732 l 327 0 m 272 399 l 829 399 l 829 193 l 272 193 l 272 399 z "},"Ἅ":{"ha":1105,"x_min":-148,"x_max":1073,"o":"m 327 0 l 32 0 l 365 1010 l 740 1010 l 1073 0 l 777 0 l 556 732 l 548 732 l 327 0 m 272 399 l 829 399 l 829 193 l 272 193 l 272 399 z "},"Ἆ":{"ha":1105,"x_min":-32,"x_max":1073,"o":"m 327 0 l 32 0 l 365 1010 l 740 1010 l 1073 0 l 777 0 l 556 732 l 548 732 l 327 0 m 272 399 l 829 399 l 829 193 l 272 193 l 272 399 z "},"Ἇ":{"ha":1105,"x_min":-59,"x_max":1073,"o":"m 327 0 l 32 0 l 365 1010 l 740 1010 l 1073 0 l 777 0 l 556 732 l 548 732 l 327 0 m 272 399 l 829 399 l 829 193 l 272 193 l 272 399 z "},"Ᾰ":{"ha":1105,"x_min":32,"x_max":1073,"o":"m 327 0 l 32 0 l 365 1010 l 740 1010 l 1073 0 l 777 0 l 556 732 l 548 732 l 327 0 m 272 399 l 829 399 l 829 193 l 272 193 l 272 399 m 651 1282 l 823 1282 q 749 1129 822 1186 q 552 1071 676 1071 q 355 1129 428 1071 q 282 1282 282 1186 l 452 1282 q 474 1225 451 1251 q 552 1199 497 1199 q 628 1225 605 1199 q 651 1282 651 1250 z "},"Ᾱ":{"ha":1105,"x_min":32,"x_max":1073,"o":"m 327 0 l 32 0 l 365 1010 l 740 1010 l 1073 0 l 777 0 l 556 732 l 548 732 l 327 0 m 272 399 l 829 399 l 829 193 l 272 193 l 272 399 m 799 1263 l 799 1138 l 306 1138 l 306 1263 l 799 1263 z "},"Ὰ":{"ha":1105,"x_min":32,"x_max":1073,"o":"m 327 0 l 32 0 l 365 1010 l 740 1010 l 1073 0 l 777 0 l 556 732 l 548 732 l 327 0 m 272 399 l 829 399 l 829 193 l 272 193 l 272 399 z "},"Ⱥ":{"ha":1105,"x_min":32,"x_max":1073,"o":"m 896 1138 l 513 -128 l 373 -128 l 756 1138 l 896 1138 m 327 0 l 32 0 l 365 1010 l 740 1010 l 1073 0 l 777 0 l 556 732 l 548 732 l 327 0 m 272 399 l 829 399 l 829 193 l 272 193 l 272 399 z "},"Ά":{"ha":1105,"x_min":32,"x_max":1073,"o":"m 327 0 l 32 0 l 365 1010 l 740 1010 l 1073 0 l 777 0 l 556 732 l 548 732 l 327 0 m 272 399 l 829 399 l 829 193 l 272 193 l 272 399 z "},"А":{"ha":1105,"x_min":32,"x_max":1073,"o":"m 327 0 l 32 0 l 365 1010 l 740 1010 l 1073 0 l 777 0 l 556 732 l 548 732 l 327 0 m 272 399 l 829 399 l 829 193 l 272 193 l 272 399 z "},"Ӑ":{"ha":1105,"x_min":32,"x_max":1073,"o":"m 327 0 l 32 0 l 365 1010 l 740 1010 l 1073 0 l 777 0 l 556 732 l 548 732 l 327 0 m 272 399 l 829 399 l 829 193 l 272 193 l 272 399 m 651 1282 l 823 1282 q 749 1129 822 1186 q 552 1071 676 1071 q 355 1129 428 1071 q 282 1282 282 1186 l 452 1282 q 474 1225 451 1251 q 552 1199 497 1199 q 628 1225 605 1199 q 651 1282 651 1250 z "},"Ӓ":{"ha":1105,"x_min":32,"x_max":1073,"o":"m 327 0 l 32 0 l 365 1010 l 740 1010 l 1073 0 l 777 0 l 556 732 l 548 732 l 327 0 m 272 399 l 829 399 l 829 193 l 272 193 l 272 399 z "},"ᾈ":{"ha":1105,"x_min":32,"x_max":1073,"o":"m 327 0 l 32 0 l 365 1010 l 740 1010 l 1073 0 l 777 0 l 556 732 l 548 732 l 327 0 m 272 399 l 829 399 l 829 193 l 272 193 l 272 399 m 623 -335 q 527 -305 568 -335 q 485 -207 485 -275 l 485 -69 l 625 -69 l 625 -207 q 633 -230 625 -222 q 665 -239 640 -239 q 684 -238 677 -239 q 696 -237 691 -237 l 696 -326 q 662 -333 679 -330 q 623 -335 645 -335 z "},"ᾉ":{"ha":1105,"x_min":32,"x_max":1073,"o":"m 327 0 l 32 0 l 365 1010 l 740 1010 l 1073 0 l 777 0 l 556 732 l 548 732 l 327 0 m 272 399 l 829 399 l 829 193 l 272 193 l 272 399 m 623 -335 q 527 -305 568 -335 q 485 -207 485 -275 l 485 -69 l 625 -69 l 625 -207 q 633 -230 625 -222 q 665 -239 640 -239 q 684 -238 677 -239 q 696 -237 691 -237 l 696 -326 q 662 -333 679 -330 q 623 -335 645 -335 z "},"ᾊ":{"ha":1105,"x_min":-138,"x_max":1073,"o":"m 327 0 l 32 0 l 365 1010 l 740 1010 l 1073 0 l 777 0 l 556 732 l 548 732 l 327 0 m 272 399 l 829 399 l 829 193 l 272 193 l 272 399 m 623 -335 q 527 -305 568 -335 q 485 -207 485 -275 l 485 -69 l 625 -69 l 625 -207 q 633 -230 625 -222 q 665 -239 640 -239 q 684 -238 677 -239 q 696 -237 691 -237 l 696 -326 q 662 -333 679 -330 q 623 -335 645 -335 z "},"ᾋ":{"ha":1105,"x_min":-109,"x_max":1073,"o":"m 327 0 l 32 0 l 365 1010 l 740 1010 l 1073 0 l 777 0 l 556 732 l 548 732 l 327 0 m 272 399 l 829 399 l 829 193 l 272 193 l 272 399 m 623 -335 q 527 -305 568 -335 q 485 -207 485 -275 l 485 -69 l 625 -69 l 625 -207 q 633 -230 625 -222 q 665 -239 640 -239 q 684 -238 677 -239 q 696 -237 691 -237 l 696 -326 q 662 -333 679 -330 q 623 -335 645 -335 z "},"ᾌ":{"ha":1105,"x_min":-130,"x_max":1073,"o":"m 327 0 l 32 0 l 365 1010 l 740 1010 l 1073 0 l 777 0 l 556 732 l 548 732 l 327 0 m 272 399 l 829 399 l 829 193 l 272 193 l 272 399 m 623 -335 q 527 -305 568 -335 q 485 -207 485 -275 l 485 -69 l 625 -69 l 625 -207 q 633 -230 625 -222 q 665 -239 640 -239 q 684 -238 677 -239 q 696 -237 691 -237 l 696 -326 q 662 -333 679 -330 q 623 -335 645 -335 z "},"ᾍ":{"ha":1105,"x_min":-148,"x_max":1073,"o":"m 327 0 l 32 0 l 365 1010 l 740 1010 l 1073 0 l 777 0 l 556 732 l 548 732 l 327 0 m 272 399 l 829 399 l 829 193 l 272 193 l 272 399 m 623 -335 q 527 -305 568 -335 q 485 -207 485 -275 l 485 -69 l 625 -69 l 625 -207 q 633 -230 625 -222 q 665 -239 640 -239 q 684 -238 677 -239 q 696 -237 691 -237 l 696 -326 q 662 -333 679 -330 q 623 -335 645 -335 z "},"ᾎ":{"ha":1105,"x_min":-32,"x_max":1073,"o":"m 327 0 l 32 0 l 365 1010 l 740 1010 l 1073 0 l 777 0 l 556 732 l 548 732 l 327 0 m 272 399 l 829 399 l 829 193 l 272 193 l 272 399 m 623 -335 q 527 -305 568 -335 q 485 -207 485 -275 l 485 -69 l 625 -69 l 625 -207 q 633 -230 625 -222 q 665 -239 640 -239 q 684 -238 677 -239 q 696 -237 691 -237 l 696 -326 q 662 -333 679 -330 q 623 -335 645 -335 z "},"ᾏ":{"ha":1105,"x_min":-59,"x_max":1073,"o":"m 327 0 l 32 0 l 365 1010 l 740 1010 l 1073 0 l 777 0 l 556 732 l 548 732 l 327 0 m 272 399 l 829 399 l 829 193 l 272 193 l 272 399 m 623 -335 q 527 -305 568 -335 q 485 -207 485 -275 l 485 -69 l 625 -69 l 625 -207 q 633 -230 625 -222 q 665 -239 640 -239 q 684 -238 677 -239 q 696 -237 691 -237 l 696 -326 q 662 -333 679 -330 q 623 -335 645 -335 z "},"ᾼ":{"ha":1105,"x_min":32,"x_max":1073,"o":"m 327 0 l 32 0 l 365 1010 l 740 1010 l 1073 0 l 777 0 l 556 732 l 548 732 l 327 0 m 272 399 l 829 399 l 829 193 l 272 193 l 272 399 m 623 -335 q 527 -305 568 -335 q 485 -207 485 -275 l 485 -69 l 625 -69 l 625 -207 q 633 -230 625 -222 q 665 -239 640 -239 q 684 -238 677 -239 q 696 -237 691 -237 l 696 -326 q 662 -333 679 -330 q 623 -335 645 -335 z "},"Λ":{"ha":1105,"x_min":32,"x_max":1073,"o":"m 327 0 l 32 0 l 365 1010 l 740 1010 l 1073 0 l 777 0 l 556 732 l 548 732 l 327 0 z "},"Æ":{"ha":1468,"x_min":32,"x_max":1397,"o":"m 32 0 l 426 1010 l 1397 1010 l 1397 789 l 943 789 l 943 616 l 1359 616 l 1359 395 l 943 395 l 943 221 l 1395 221 l 1395 0 l 669 0 l 669 732 l 600 732 l 333 0 l 32 0 m 274 193 l 274 399 l 831 399 l 831 193 l 274 193 z "},"Ǣ":{"ha":1468,"x_min":32,"x_max":1397,"o":"m 32 0 l 426 1010 l 1397 1010 l 1397 789 l 943 789 l 943 616 l 1359 616 l 1359 395 l 943 395 l 943 221 l 1395 221 l 1395 0 l 669 0 l 669 732 l 600 732 l 333 0 l 32 0 m 274 193 l 274 399 l 831 399 l 831 193 l 274 193 m 1164 1263 l 1164 1138 l 671 1138 l 671 1263 l 1164 1263 z "},"Ǽ":{"ha":1468,"x_min":32,"x_max":1397,"o":"m 32 0 l 426 1010 l 1397 1010 l 1397 789 l 943 789 l 943 616 l 1359 616 l 1359 395 l 943 395 l 943 221 l 1395 221 l 1395 0 l 669 0 l 669 732 l 600 732 l 333 0 l 32 0 m 274 193 l 274 399 l 831 399 l 831 193 l 274 193 m 827 1105 l 921 1326 l 1154 1326 l 1006 1105 l 827 1105 z "},"Ӕ":{"ha":1468,"x_min":32,"x_max":1397,"o":"m 32 0 l 426 1010 l 1397 1010 l 1397 789 l 943 789 l 943 616 l 1359 616 l 1359 395 l 943 395 l 943 221 l 1395 221 l 1395 0 l 669 0 l 669 732 l 600 732 l 333 0 l 32 0 m 274 193 l 274 399 l 831 399 l 831 193 l 274 193 z "},"B":{"ha":927,"x_min":65,"x_max":896,"o":"m 65 0 l 65 1010 l 503 1010 q 697 979 618 1010 q 816 891 776 948 q 856 758 856 835 q 832 656 856 702 q 763 579 807 610 q 661 537 720 548 l 661 527 q 779 494 726 524 q 864 411 833 464 q 896 286 896 358 q 853 139 896 203 q 730 37 809 74 q 541 0 651 0 l 65 0 m 339 219 l 468 219 q 571 245 537 219 q 606 322 606 271 q 589 382 606 357 q 543 419 573 406 q 472 432 513 432 l 339 432 l 339 219 m 339 602 l 452 602 q 515 613 488 602 q 559 646 543 624 q 574 698 574 667 q 541 770 574 745 q 456 795 507 795 l 339 795 l 339 602 z "},"Ḃ":{"ha":927,"x_min":65,"x_max":896,"o":"m 65 0 l 65 1010 l 503 1010 q 697 979 618 1010 q 816 891 776 948 q 856 758 856 835 q 832 656 856 702 q 763 579 807 610 q 661 537 720 548 l 661 527 q 779 494 726 524 q 864 411 833 464 q 896 286 896 358 q 853 139 896 203 q 730 37 809 74 q 541 0 651 0 l 65 0 m 339 219 l 468 219 q 571 245 537 219 q 606 322 606 271 q 589 382 606 357 q 543 419 573 406 q 472 432 513 432 l 339 432 l 339 219 m 339 602 l 452 602 q 515 613 488 602 q 559 646 543 624 q 574 698 574 667 q 541 770 574 745 q 456 795 507 795 l 339 795 l 339 602 m 452 1089 q 357 1126 397 1089 q 318 1213 318 1162 q 357 1301 318 1265 q 452 1338 397 1338 q 547 1301 508 1338 q 586 1213 586 1265 q 547 1126 586 1162 q 452 1089 508 1089 z "},"Ḅ":{"ha":927,"x_min":65,"x_max":896,"o":"m 65 0 l 65 1010 l 503 1010 q 697 979 618 1010 q 816 891 776 948 q 856 758 856 835 q 832 656 856 702 q 763 579 807 610 q 661 537 720 548 l 661 527 q 779 494 726 524 q 864 411 833 464 q 896 286 896 358 q 853 139 896 203 q 730 37 809 74 q 541 0 651 0 l 65 0 m 339 219 l 468 219 q 571 245 537 219 q 606 322 606 271 q 589 382 606 357 q 543 419 573 406 q 472 432 513 432 l 339 432 l 339 219 m 339 602 l 452 602 q 515 613 488 602 q 559 646 543 624 q 574 698 574 667 q 541 770 574 745 q 456 795 507 795 l 339 795 l 339 602 z "},"Ḇ":{"ha":927,"x_min":65,"x_max":896,"o":"m 65 0 l 65 1010 l 503 1010 q 697 979 618 1010 q 816 891 776 948 q 856 758 856 835 q 832 656 856 702 q 763 579 807 610 q 661 537 720 548 l 661 527 q 779 494 726 524 q 864 411 833 464 q 896 286 896 358 q 853 139 896 203 q 730 37 809 74 q 541 0 651 0 l 65 0 m 339 219 l 468 219 q 571 245 537 219 q 606 322 606 271 q 589 382 606 357 q 543 419 573 406 q 472 432 513 432 l 339 432 l 339 219 m 339 602 l 452 602 q 515 613 488 602 q 559 646 543 624 q 574 698 574 667 q 541 770 574 745 q 456 795 507 795 l 339 795 l 339 602 z "},"Ƀ":{"ha":1022,"x_min":22,"x_max":990,"o":"m 160 0 l 160 1010 l 598 1010 q 792 979 713 1010 q 911 891 871 948 q 951 758 951 835 q 927 656 951 702 q 858 579 902 610 q 756 537 814 548 l 756 527 q 874 494 821 524 q 959 411 927 464 q 990 286 990 358 q 947 139 990 203 q 825 37 904 74 q 635 0 745 0 l 160 0 m 434 219 l 562 219 q 666 245 631 219 q 700 322 700 271 q 684 382 700 357 q 638 419 668 406 q 566 432 608 432 l 434 432 l 434 219 m 434 602 l 546 602 q 610 613 582 602 q 653 646 638 624 q 669 698 669 667 q 635 770 669 745 q 550 795 602 795 l 434 795 l 434 602 m 22 253 l 22 399 l 552 399 l 552 253 l 22 253 z "},"Ɓ":{"ha":1263,"x_min":37,"x_max":1231,"o":"m 564 791 l 385 791 q 319 771 343 791 q 287 722 296 752 q 278 663 278 692 l 278 590 l 37 590 l 37 710 q 80 873 37 806 q 200 975 122 940 q 385 1010 279 1010 l 564 1010 l 564 791 m 400 0 l 400 1010 l 838 1010 q 1033 979 954 1010 q 1151 891 1111 948 q 1192 758 1192 835 q 1167 656 1192 702 q 1099 579 1143 610 q 996 537 1055 548 l 996 527 q 1115 494 1061 524 q 1199 411 1168 464 q 1231 286 1231 358 q 1188 139 1231 203 q 1065 37 1145 74 q 876 0 986 0 l 400 0 m 675 219 l 803 219 q 907 245 872 219 q 941 322 941 271 q 925 382 941 357 q 879 419 908 406 q 807 432 849 432 l 675 432 l 675 219 m 675 602 l 787 602 q 851 613 823 602 q 894 646 878 624 q 909 698 909 667 q 876 770 909 745 q 791 795 842 795 l 675 795 l 675 602 z "},"В":{"ha":927,"x_min":65,"x_max":896,"o":"m 65 0 l 65 1010 l 503 1010 q 697 979 618 1010 q 816 891 776 948 q 856 758 856 835 q 832 656 856 702 q 763 579 807 610 q 661 537 720 548 l 661 527 q 779 494 726 524 q 864 411 833 464 q 896 286 896 358 q 853 139 896 203 q 730 37 809 74 q 541 0 651 0 l 65 0 m 339 219 l 468 219 q 571 245 537 219 q 606 322 606 271 q 589 382 606 357 q 543 419 573 406 q 472 432 513 432 l 339 432 l 339 219 m 339 602 l 452 602 q 515 613 488 602 q 559 646 543 624 q 574 698 574 667 q 541 770 574 745 q 456 795 507 795 l 339 795 l 339 602 z "},"Β":{"ha":927,"x_min":65,"x_max":896,"o":"m 65 0 l 65 1010 l 503 1010 q 697 979 618 1010 q 816 891 776 948 q 856 758 856 835 q 832 656 856 702 q 763 579 807 610 q 661 537 720 548 l 661 527 q 779 494 726 524 q 864 411 833 464 q 896 286 896 358 q 853 139 896 203 q 730 37 809 74 q 541 0 651 0 l 65 0 m 339 219 l 468 219 q 571 245 537 219 q 606 322 606 271 q 589 382 606 357 q 543 419 573 406 q 472 432 513 432 l 339 432 l 339 219 m 339 602 l 452 602 q 515 613 488 602 q 559 646 543 624 q 574 698 574 667 q 541 770 574 745 q 456 795 507 795 l 339 795 l 339 602 z "},"C":{"ha":1067,"x_min":61,"x_max":1008,"o":"m 1008 631 l 730 631 q 714 694 727 666 q 680 743 702 722 q 627 774 658 763 q 556 785 596 785 q 440 752 487 785 q 368 655 392 718 q 343 505 343 593 q 368 350 343 412 q 440 256 393 288 q 554 225 488 225 q 622 235 592 225 q 675 262 653 244 q 711 307 697 281 q 730 365 725 332 l 1008 363 q 972 233 1003 299 q 884 110 941 166 q 743 20 827 54 q 548 -14 659 -14 q 299 46 409 -14 q 125 221 189 106 q 61 505 61 337 q 126 789 61 674 q 302 964 191 905 q 548 1024 412 1024 q 725 998 644 1024 q 866 922 805 972 q 963 799 926 872 q 1008 631 1000 726 z "},"Ƈ":{"ha":1225,"x_min":61,"x_max":1237,"o":"m 1008 631 l 744 631 l 744 734 q 796 908 744 837 q 932 1015 848 979 q 1115 1052 1017 1052 q 1174 1051 1146 1052 q 1237 1046 1201 1050 l 1237 829 q 1199 830 1222 829 q 1162 831 1175 831 q 1095 817 1130 831 q 1034 773 1059 804 q 1008 689 1008 742 l 1008 631 m 1008 631 l 730 631 q 714 694 727 666 q 680 743 702 722 q 627 774 658 763 q 556 785 596 785 q 440 752 487 785 q 368 655 392 718 q 343 505 343 593 q 368 350 343 412 q 440 256 393 288 q 554 225 488 225 q 622 235 592 225 q 675 262 653 244 q 711 307 697 281 q 730 365 725 332 l 1008 363 q 972 233 1003 299 q 884 110 941 166 q 743 20 827 54 q 548 -14 659 -14 q 299 46 409 -14 q 125 221 189 106 q 61 505 61 337 q 126 789 61 674 q 302 964 191 905 q 548 1024 412 1024 q 725 998 644 1024 q 866 922 805 972 q 963 799 926 872 q 1008 631 1000 726 z "},"Ç":{"ha":1067,"x_min":61,"x_max":1008,"o":"m 1008 631 l 730 631 q 714 694 727 666 q 680 743 702 722 q 627 774 658 763 q 556 785 596 785 q 440 752 487 785 q 368 655 392 718 q 343 505 343 593 q 368 350 343 412 q 440 256 393 288 q 554 225 488 225 q 622 235 592 225 q 675 262 653 244 q 711 307 697 281 q 730 365 725 332 l 1008 363 q 972 233 1003 299 q 884 110 941 166 q 743 20 827 54 q 548 -14 659 -14 q 299 46 409 -14 q 125 221 189 106 q 61 505 61 337 q 126 789 61 674 q 302 964 191 905 q 548 1024 412 1024 q 725 998 644 1024 q 866 922 805 972 q 963 799 926 872 q 1008 631 1000 726 m 495 8 l 592 8 l 584 -37 q 675 -79 643 -46 q 708 -160 708 -111 q 630 -286 709 -240 q 412 -331 551 -331 l 412 -227 q 524 -211 485 -227 q 564 -166 562 -196 q 543 -120 566 -138 q 472 -95 519 -102 l 495 8 z "},"Ć":{"ha":1067,"x_min":61,"x_max":1008,"o":"m 1008 631 l 730 631 q 714 694 727 666 q 680 743 702 722 q 627 774 658 763 q 556 785 596 785 q 440 752 487 785 q 368 655 392 718 q 343 505 343 593 q 368 350 343 412 q 440 256 393 288 q 554 225 488 225 q 622 235 592 225 q 675 262 653 244 q 711 307 697 281 q 730 365 725 332 l 1008 363 q 972 233 1003 299 q 884 110 941 166 q 743 20 827 54 q 548 -14 659 -14 q 299 46 409 -14 q 125 221 189 106 q 61 505 61 337 q 126 789 61 674 q 302 964 191 905 q 548 1024 412 1024 q 725 998 644 1024 q 866 922 805 972 q 963 799 926 872 q 1008 631 1000 726 m 458 1105 l 552 1326 l 785 1326 l 637 1105 l 458 1105 z "},"Ĉ":{"ha":1067,"x_min":61,"x_max":1008,"o":"m 1008 631 l 730 631 q 714 694 727 666 q 680 743 702 722 q 627 774 658 763 q 556 785 596 785 q 440 752 487 785 q 368 655 392 718 q 343 505 343 593 q 368 350 343 412 q 440 256 393 288 q 554 225 488 225 q 622 235 592 225 q 675 262 653 244 q 711 307 697 281 q 730 365 725 332 l 1008 363 q 972 233 1003 299 q 884 110 941 166 q 743 20 827 54 q 548 -14 659 -14 q 299 46 409 -14 q 125 221 189 106 q 61 505 61 337 q 126 789 61 674 q 302 964 191 905 q 548 1024 412 1024 q 725 998 644 1024 q 866 922 805 972 q 963 799 926 872 q 1008 631 1000 726 m 452 1100 l 227 1100 l 227 1106 l 454 1331 l 643 1331 l 870 1106 l 870 1100 l 645 1100 l 548 1208 l 452 1100 z "},"Ċ":{"ha":1067,"x_min":61,"x_max":1008,"o":"m 1008 631 l 730 631 q 714 694 727 666 q 680 743 702 722 q 627 774 658 763 q 556 785 596 785 q 440 752 487 785 q 368 655 392 718 q 343 505 343 593 q 368 350 343 412 q 440 256 393 288 q 554 225 488 225 q 622 235 592 225 q 675 262 653 244 q 711 307 697 281 q 730 365 725 332 l 1008 363 q 972 233 1003 299 q 884 110 941 166 q 743 20 827 54 q 548 -14 659 -14 q 299 46 409 -14 q 125 221 189 106 q 61 505 61 337 q 126 789 61 674 q 302 964 191 905 q 548 1024 412 1024 q 725 998 644 1024 q 866 922 805 972 q 963 799 926 872 q 1008 631 1000 726 m 549 1089 q 454 1126 493 1089 q 414 1213 414 1162 q 454 1301 414 1265 q 548 1338 493 1338 q 643 1301 604 1338 q 683 1213 683 1265 q 643 1126 683 1162 q 549 1089 604 1089 z "},"Č":{"ha":1067,"x_min":61,"x_max":1008,"o":"m 1008 631 l 730 631 q 714 694 727 666 q 680 743 702 722 q 627 774 658 763 q 556 785 596 785 q 440 752 487 785 q 368 655 392 718 q 343 505 343 593 q 368 350 343 412 q 440 256 393 288 q 554 225 488 225 q 622 235 592 225 q 675 262 653 244 q 711 307 697 281 q 730 365 725 332 l 1008 363 q 972 233 1003 299 q 884 110 941 166 q 743 20 827 54 q 548 -14 659 -14 q 299 46 409 -14 q 125 221 189 106 q 61 505 61 337 q 126 789 61 674 q 302 964 191 905 q 548 1024 412 1024 q 725 998 644 1024 q 866 922 805 972 q 963 799 926 872 q 1008 631 1000 726 m 452 1332 l 548 1223 l 645 1332 l 870 1332 l 870 1326 l 643 1101 l 454 1101 l 227 1326 l 227 1332 l 452 1332 z "},"Ḉ":{"ha":1067,"x_min":61,"x_max":1008,"o":"m 1008 631 l 730 631 q 714 694 727 666 q 680 743 702 722 q 627 774 658 763 q 556 785 596 785 q 440 752 487 785 q 368 655 392 718 q 343 505 343 593 q 368 350 343 412 q 440 256 393 288 q 554 225 488 225 q 622 235 592 225 q 675 262 653 244 q 711 307 697 281 q 730 365 725 332 l 1008 363 q 972 233 1003 299 q 884 110 941 166 q 743 20 827 54 q 548 -14 659 -14 q 299 46 409 -14 q 125 221 189 106 q 61 505 61 337 q 126 789 61 674 q 302 964 191 905 q 548 1024 412 1024 q 725 998 644 1024 q 866 922 805 972 q 963 799 926 872 q 1008 631 1000 726 m 495 8 l 592 8 l 584 -37 q 675 -79 643 -46 q 708 -160 708 -111 q 630 -286 709 -240 q 412 -331 551 -331 l 412 -227 q 524 -211 485 -227 q 564 -166 562 -196 q 543 -120 566 -138 q 472 -95 519 -102 l 495 8 m 458 1105 l 552 1326 l 785 1326 l 637 1105 l 458 1105 z "},"Ȼ":{"ha":1067,"x_min":61,"x_max":1008,"o":"m 274 -128 l 657 1138 l 797 1138 l 414 -128 l 274 -128 m 1008 631 l 730 631 q 714 694 727 666 q 680 743 702 722 q 627 774 658 763 q 556 785 596 785 q 440 752 487 785 q 368 655 392 718 q 343 505 343 593 q 368 350 343 412 q 440 256 393 288 q 554 225 488 225 q 622 235 592 225 q 675 262 653 244 q 711 307 697 281 q 730 365 725 332 l 1008 363 q 972 233 1003 299 q 884 110 941 166 q 743 20 827 54 q 548 -14 659 -14 q 299 46 409 -14 q 125 221 189 106 q 61 505 61 337 q 126 789 61 674 q 302 964 191 905 q 548 1024 412 1024 q 725 998 644 1024 q 866 922 805 972 q 963 799 926 872 q 1008 631 1000 726 z "},"Ɔ":{"ha":1067,"x_min":59,"x_max":1006,"o":"m 59 631 q 104 799 68 726 q 202 922 141 872 q 343 998 262 972 q 519 1024 424 1024 q 765 964 655 1024 q 941 789 876 905 q 1006 505 1006 674 q 942 221 1006 337 q 768 46 878 106 q 519 -14 658 -14 q 324 20 408 -14 q 183 110 240 54 q 95 233 126 166 q 59 363 65 299 l 337 365 q 357 307 343 332 q 393 262 370 281 q 445 235 415 244 q 513 225 475 225 q 627 256 580 225 q 699 350 674 288 q 724 505 724 412 q 700 655 724 593 q 628 752 675 718 q 511 785 580 785 q 440 774 472 785 q 387 743 409 763 q 353 694 365 722 q 337 631 340 666 l 59 631 z "},"Ϲ":{"ha":1067,"x_min":61,"x_max":1008,"o":"m 1008 631 l 730 631 q 714 694 727 666 q 680 743 702 722 q 627 774 658 763 q 556 785 596 785 q 440 752 487 785 q 368 655 392 718 q 343 505 343 593 q 368 350 343 412 q 440 256 393 288 q 554 225 488 225 q 622 235 592 225 q 675 262 653 244 q 711 307 697 281 q 730 365 725 332 l 1008 363 q 972 233 1003 299 q 884 110 941 166 q 743 20 827 54 q 548 -14 659 -14 q 299 46 409 -14 q 125 221 189 106 q 61 505 61 337 q 126 789 61 674 q 302 964 191 905 q 548 1024 412 1024 q 725 998 644 1024 q 866 922 805 972 q 963 799 926 872 q 1008 631 1000 726 z "},"D":{"ha":1018,"x_min":65,"x_max":957,"o":"m 454 0 l 65 0 l 65 1010 l 450 1010 q 719 950 606 1010 q 895 776 833 889 q 957 505 957 663 q 895 234 957 347 q 721 60 834 121 q 454 0 608 0 m 339 233 l 444 233 q 572 257 519 233 q 653 340 625 281 q 681 505 681 400 q 652 670 681 611 q 569 753 624 729 q 436 777 515 777 l 339 777 l 339 233 z "},"Ɗ":{"ha":1355,"x_min":37,"x_max":1294,"o":"m 37 590 l 37 710 q 80 873 37 806 q 200 975 122 940 q 385 1010 279 1010 l 564 1010 l 564 777 l 385 777 q 319 761 343 777 q 287 719 296 745 q 278 663 278 692 l 278 590 l 37 590 m 791 0 l 402 0 l 402 1010 l 787 1010 q 1057 950 943 1010 q 1232 776 1170 889 q 1294 505 1294 663 q 1233 234 1294 347 q 1058 60 1171 121 q 791 0 945 0 m 677 233 l 781 233 q 909 257 856 233 q 990 340 962 281 q 1018 505 1018 400 q 990 670 1018 611 q 907 753 961 729 q 773 777 852 777 l 677 777 l 677 233 z "},"Ď":{"ha":1018,"x_min":65,"x_max":957,"o":"m 454 0 l 65 0 l 65 1010 l 450 1010 q 719 950 606 1010 q 895 776 833 889 q 957 505 957 663 q 895 234 957 347 q 721 60 834 121 q 454 0 608 0 m 339 233 l 444 233 q 572 257 519 233 q 653 340 625 281 q 681 505 681 400 q 652 670 681 611 q 569 753 624 729 q 436 777 515 777 l 339 777 l 339 233 m 306 1332 l 402 1223 l 499 1332 l 724 1332 l 724 1326 l 497 1101 l 308 1101 l 81 1326 l 81 1332 l 306 1332 z "},"Ḋ":{"ha":1018,"x_min":65,"x_max":957,"o":"m 454 0 l 65 0 l 65 1010 l 450 1010 q 719 950 606 1010 q 895 776 833 889 q 957 505 957 663 q 895 234 957 347 q 721 60 834 121 q 454 0 608 0 m 339 233 l 444 233 q 572 257 519 233 q 653 340 625 281 q 681 505 681 400 q 652 670 681 611 q 569 753 624 729 q 436 777 515 777 l 339 777 l 339 233 m 403 1089 q 308 1126 347 1089 q 268 1213 268 1162 q 308 1301 268 1265 q 402 1338 347 1338 q 497 1301 458 1338 q 537 1213 537 1265 q 497 1126 537 1162 q 403 1089 458 1089 z "},"Ḍ":{"ha":1018,"x_min":65,"x_max":957,"o":"m 454 0 l 65 0 l 65 1010 l 450 1010 q 719 950 606 1010 q 895 776 833 889 q 957 505 957 663 q 895 234 957 347 q 721 60 834 121 q 454 0 608 0 m 339 233 l 444 233 q 572 257 519 233 q 653 340 625 281 q 681 505 681 400 q 652 670 681 611 q 569 753 624 729 q 436 777 515 777 l 339 777 l 339 233 z "},"Ḏ":{"ha":1018,"x_min":65,"x_max":957,"o":"m 454 0 l 65 0 l 65 1010 l 450 1010 q 719 950 606 1010 q 895 776 833 889 q 957 505 957 663 q 895 234 957 347 q 721 60 834 121 q 454 0 608 0 m 339 233 l 444 233 q 572 257 519 233 q 653 340 625 281 q 681 505 681 400 q 652 670 681 611 q 569 753 624 729 q 436 777 515 777 l 339 777 l 339 233 z "},"Ḑ":{"ha":1018,"x_min":65,"x_max":957,"o":"m 454 0 l 65 0 l 65 1010 l 450 1010 q 719 950 606 1010 q 895 776 833 889 q 957 505 957 663 q 895 234 957 347 q 721 60 834 121 q 454 0 608 0 m 339 233 l 444 233 q 572 257 519 233 q 653 340 625 281 q 681 505 681 400 q 652 670 681 611 q 569 753 624 729 q 436 777 515 777 l 339 777 l 339 233 m 273 -316 l 338 -80 l 583 -80 l 459 -316 l 273 -316 z "},"Ḓ":{"ha":1018,"x_min":65,"x_max":957,"o":"m 454 0 l 65 0 l 65 1010 l 450 1010 q 719 950 606 1010 q 895 776 833 889 q 957 505 957 663 q 895 234 957 347 q 721 60 834 121 q 454 0 608 0 m 339 233 l 444 233 q 572 257 519 233 q 653 340 625 281 q 681 505 681 400 q 652 670 681 611 q 569 753 624 729 q 436 777 515 777 l 339 777 l 339 233 z "},"Ɖ":{"ha":1018,"x_min":-65,"x_max":957,"o":"m 454 0 l 65 0 l 65 1010 l 450 1010 q 719 950 606 1010 q 895 776 833 889 q 957 505 957 663 q 895 234 957 347 q 721 60 834 121 q 454 0 608 0 m 339 233 l 444 233 q 572 257 519 233 q 653 340 625 281 q 681 505 681 400 q 652 670 681 611 q 569 753 624 729 q 436 777 515 777 l 339 777 l 339 233 m -65 468 l -65 614 l 466 614 l 466 468 l -65 468 z "},"ǲ":{"ha":1841,"x_min":65,"x_max":1760,"o":"m 454 0 l 65 0 l 65 1010 l 450 1010 q 719 950 606 1010 q 895 776 833 889 q 957 505 957 663 q 895 234 957 347 q 721 60 834 121 q 454 0 608 0 m 339 233 l 444 233 q 572 257 519 233 q 653 340 625 281 q 681 505 681 400 q 652 670 681 611 q 569 753 624 729 q 436 777 515 777 l 339 777 l 339 233 m 1095 0 l 1095 150 l 1426 546 l 1426 550 l 1107 550 l 1107 758 l 1748 758 l 1748 592 l 1446 211 l 1446 207 l 1760 207 l 1760 0 l 1095 0 z "},"ǅ":{"ha":1841,"x_min":65,"x_max":1760,"o":"m 454 0 l 65 0 l 65 1010 l 450 1010 q 719 950 606 1010 q 895 776 833 889 q 957 505 957 663 q 895 234 957 347 q 721 60 834 121 q 454 0 608 0 m 339 233 l 444 233 q 572 257 519 233 q 653 340 625 281 q 681 505 681 400 q 652 670 681 611 q 569 753 624 729 q 436 777 515 777 l 339 777 l 339 233 z "},"E":{"ha":864,"x_min":65,"x_max":793,"o":"m 65 0 l 65 1010 l 793 1010 l 793 789 l 339 789 l 339 616 l 756 616 l 756 395 l 339 395 l 339 221 l 791 221 l 791 0 l 65 0 z "},"È":{"ha":864,"x_min":65,"x_max":793,"o":"m 65 0 l 65 1010 l 793 1010 l 793 789 l 339 789 l 339 616 l 756 616 l 756 395 l 339 395 l 339 221 l 791 221 l 791 0 l 65 0 m 343 1105 l 195 1326 l 428 1326 l 523 1105 l 343 1105 z "},"É":{"ha":864,"x_min":65,"x_max":793,"o":"m 65 0 l 65 1010 l 793 1010 l 793 789 l 339 789 l 339 616 l 756 616 l 756 395 l 339 395 l 339 221 l 791 221 l 791 0 l 65 0 m 341 1105 l 436 1326 l 669 1326 l 521 1105 l 341 1105 z "},"Ê":{"ha":864,"x_min":65,"x_max":793,"o":"m 65 0 l 65 1010 l 793 1010 l 793 789 l 339 789 l 339 616 l 756 616 l 756 395 l 339 395 l 339 221 l 791 221 l 791 0 l 65 0 m 335 1100 l 110 1100 l 110 1106 l 337 1331 l 527 1331 l 754 1106 l 754 1100 l 529 1100 l 432 1208 l 335 1100 z "},"Ë":{"ha":864,"x_min":65,"x_max":793,"o":"m 65 0 l 65 1010 l 793 1010 l 793 789 l 339 789 l 339 616 l 756 616 l 756 395 l 339 395 l 339 221 l 791 221 l 791 0 l 65 0 z "},"Ē":{"ha":864,"x_min":65,"x_max":793,"o":"m 65 0 l 65 1010 l 793 1010 l 793 789 l 339 789 l 339 616 l 756 616 l 756 395 l 339 395 l 339 221 l 791 221 l 791 0 l 65 0 m 679 1263 l 679 1138 l 185 1138 l 185 1263 l 679 1263 z "},"Ĕ":{"ha":864,"x_min":65,"x_max":793,"o":"m 65 0 l 65 1010 l 793 1010 l 793 789 l 339 789 l 339 616 l 756 616 l 756 395 l 339 395 l 339 221 l 791 221 l 791 0 l 65 0 m 531 1282 l 702 1282 q 629 1129 702 1186 q 432 1071 556 1071 q 234 1129 307 1071 q 162 1282 161 1186 l 331 1282 q 354 1225 331 1251 q 432 1199 377 1199 q 508 1225 485 1199 q 531 1282 530 1250 z "},"Ė":{"ha":864,"x_min":65,"x_max":793,"o":"m 65 0 l 65 1010 l 793 1010 l 793 789 l 339 789 l 339 616 l 756 616 l 756 395 l 339 395 l 339 221 l 791 221 l 791 0 l 65 0 m 433 1089 q 337 1126 377 1089 q 298 1213 298 1162 q 337 1301 298 1265 q 432 1338 377 1338 q 527 1301 488 1338 q 566 1213 566 1265 q 527 1126 566 1162 q 433 1089 488 1089 z "},"Ę":{"ha":864,"x_min":65,"x_max":811,"o":"m 65 0 l 65 1010 l 793 1010 l 793 789 l 339 789 l 339 616 l 756 616 l 756 395 l 339 395 l 339 221 l 791 221 l 791 0 l 65 0 m 692 -274 q 577 -240 624 -274 q 511 -144 530 -206 q 501 -58 498 -102 q 521 20 504 -14 q 566 67 538 54 l 791 0 q 718 -32 743 -15 q 692 -79 692 -49 q 705 -117 692 -104 q 738 -130 718 -130 q 760 -127 751 -130 q 779 -122 770 -124 l 811 -245 q 762 -265 791 -255 q 692 -274 732 -274 z "},"Ě":{"ha":864,"x_min":65,"x_max":793,"o":"m 65 0 l 65 1010 l 793 1010 l 793 789 l 339 789 l 339 616 l 756 616 l 756 395 l 339 395 l 339 221 l 791 221 l 791 0 l 65 0 m 335 1332 l 432 1223 l 529 1332 l 754 1332 l 754 1326 l 527 1101 l 337 1101 l 110 1326 l 110 1332 l 335 1332 z "},"Ȅ":{"ha":864,"x_min":65,"x_max":793,"o":"m 65 0 l 65 1010 l 793 1010 l 793 789 l 339 789 l 339 616 l 756 616 l 756 395 l 339 395 l 339 221 l 791 221 l 791 0 l 65 0 m 398 1105 l 218 1105 l 70 1326 l 303 1326 l 398 1105 m 660 1105 l 485 1105 l 390 1326 l 610 1326 l 660 1105 z "},"Ȇ":{"ha":864,"x_min":65,"x_max":793,"o":"m 65 0 l 65 1010 l 793 1010 l 793 789 l 339 789 l 339 616 l 756 616 l 756 395 l 339 395 l 339 221 l 791 221 l 791 0 l 65 0 m 160 1128 q 232 1286 159 1225 q 430 1347 305 1347 q 628 1286 554 1347 q 702 1128 702 1225 l 531 1128 q 507 1184 530 1160 q 430 1209 484 1209 q 354 1184 376 1209 q 331 1128 331 1160 l 160 1128 z "},"Ȩ":{"ha":864,"x_min":65,"x_max":793,"o":"m 65 0 l 65 1010 l 793 1010 l 793 789 l 339 789 l 339 616 l 756 616 l 756 395 l 339 395 l 339 221 l 791 221 l 791 0 l 65 0 m 387 4 l 483 4 l 475 -41 q 567 -83 534 -50 q 600 -164 599 -115 q 522 -290 601 -244 q 304 -335 442 -335 l 304 -231 q 415 -215 377 -231 q 456 -170 454 -200 q 434 -124 458 -142 q 363 -99 411 -106 l 387 4 z "},"Ḕ":{"ha":864,"x_min":65,"x_max":793,"o":"m 65 0 l 65 1010 l 793 1010 l 793 789 l 339 789 l 339 616 l 756 616 l 756 395 l 339 395 l 339 221 l 791 221 l 791 0 l 65 0 m 349 1338 l 179 1528 l 401 1528 l 533 1338 l 349 1338 m 679 1243 l 679 1119 l 185 1119 l 185 1243 l 679 1243 z "},"Ḗ":{"ha":864,"x_min":65,"x_max":793,"o":"m 65 0 l 65 1010 l 793 1010 l 793 789 l 339 789 l 339 616 l 756 616 l 756 395 l 339 395 l 339 221 l 791 221 l 791 0 l 65 0 m 331 1338 l 463 1528 l 686 1528 l 515 1338 l 331 1338 m 679 1243 l 679 1119 l 185 1119 l 185 1243 l 679 1243 z "},"Ḙ":{"ha":864,"x_min":65,"x_max":793,"o":"m 65 0 l 65 1010 l 793 1010 l 793 789 l 339 789 l 339 616 l 756 616 l 756 395 l 339 395 l 339 221 l 791 221 l 791 0 l 65 0 z "},"Ḛ":{"ha":864,"x_min":65,"x_max":793,"o":"m 65 0 l 65 1010 l 793 1010 l 793 789 l 339 789 l 339 616 l 756 616 l 756 395 l 339 395 l 339 221 l 791 221 l 791 0 l 65 0 z "},"Ḝ":{"ha":864,"x_min":65,"x_max":793,"o":"m 65 0 l 65 1010 l 793 1010 l 793 789 l 339 789 l 339 616 l 756 616 l 756 395 l 339 395 l 339 221 l 791 221 l 791 0 l 65 0 m 387 4 l 483 4 l 475 -41 q 567 -83 534 -50 q 600 -164 599 -115 q 522 -290 601 -244 q 304 -335 442 -335 l 304 -231 q 415 -215 377 -231 q 456 -170 454 -200 q 434 -124 458 -142 q 363 -99 411 -106 l 387 4 m 531 1282 l 702 1282 q 629 1129 702 1186 q 432 1071 556 1071 q 234 1129 307 1071 q 162 1282 161 1186 l 331 1282 q 354 1225 331 1251 q 432 1199 377 1199 q 508 1225 485 1199 q 531 1282 530 1250 z "},"Ẹ":{"ha":864,"x_min":65,"x_max":793,"o":"m 65 0 l 65 1010 l 793 1010 l 793 789 l 339 789 l 339 616 l 756 616 l 756 395 l 339 395 l 339 221 l 791 221 l 791 0 l 65 0 z "},"Ẻ":{"ha":864,"x_min":65,"x_max":793,"o":"m 65 0 l 65 1010 l 793 1010 l 793 789 l 339 789 l 339 616 l 756 616 l 756 395 l 339 395 l 339 221 l 791 221 l 791 0 l 65 0 m 527 1123 l 331 1123 l 314 1199 q 389 1213 366 1201 q 410 1241 411 1225 q 385 1275 411 1268 q 318 1282 359 1282 l 324 1391 q 555 1355 475 1391 q 633 1255 634 1320 q 601 1191 634 1213 q 527 1162 568 1168 l 527 1123 z "},"Ẽ":{"ha":864,"x_min":65,"x_max":793,"o":"m 65 0 l 65 1010 l 793 1010 l 793 789 l 339 789 l 339 616 l 756 616 l 756 395 l 339 395 l 339 221 l 791 221 l 791 0 l 65 0 m 298 1105 l 164 1105 q 213 1263 164 1211 q 331 1316 261 1315 q 397 1304 370 1316 q 444 1275 424 1292 q 481 1247 464 1259 q 515 1235 497 1235 q 556 1256 544 1235 q 568 1312 568 1276 l 700 1312 q 650 1154 699 1207 q 533 1099 602 1100 q 467 1111 494 1098 q 421 1139 440 1123 q 385 1167 401 1155 q 349 1180 368 1180 q 312 1161 326 1180 q 298 1105 298 1142 z "},"Ế":{"ha":864,"x_min":65,"x_max":939,"o":"m 65 0 l 65 1010 l 793 1010 l 793 789 l 339 789 l 339 616 l 756 616 l 756 395 l 339 395 l 339 221 l 791 221 l 791 0 l 65 0 m 174 1085 l 371 1221 l 487 1221 l 687 1085 l 529 1085 l 430 1154 l 329 1085 l 174 1085 m 635 1150 l 763 1340 l 939 1340 l 765 1150 l 635 1150 z "},"Ề":{"ha":864,"x_min":-75,"x_max":793,"o":"m 65 0 l 65 1010 l 793 1010 l 793 789 l 339 789 l 339 616 l 756 616 l 756 395 l 339 395 l 339 221 l 791 221 l 791 0 l 65 0 m 489 1217 l 689 1081 l 531 1081 l 432 1150 l 331 1081 l 176 1081 l 373 1217 l 489 1217 m 97 1334 l 227 1146 l 99 1146 l -75 1334 l 97 1334 z "},"Ể":{"ha":864,"x_min":65,"x_max":835,"o":"m 65 0 l 65 1010 l 793 1010 l 793 789 l 339 789 l 339 616 l 756 616 l 756 395 l 339 395 l 339 221 l 791 221 l 791 0 l 65 0 m 485 1221 l 685 1085 l 525 1085 l 432 1146 l 335 1085 l 176 1085 l 375 1221 l 485 1221 m 746 1166 l 619 1166 l 604 1229 q 666 1240 647 1231 q 685 1263 685 1249 q 662 1291 685 1285 q 606 1298 640 1298 l 612 1387 q 777 1358 720 1387 q 835 1274 835 1329 q 806 1223 835 1242 q 746 1198 778 1203 l 746 1166 z "},"Ễ":{"ha":864,"x_min":65,"x_max":793,"o":"m 65 0 l 65 1010 l 793 1010 l 793 789 l 339 789 l 339 616 l 756 616 l 756 395 l 339 395 l 339 221 l 791 221 l 791 0 l 65 0 m 495 1233 l 689 1091 l 529 1091 l 432 1160 l 339 1091 l 176 1091 l 371 1233 l 495 1233 m 531 1397 l 616 1365 q 595 1292 615 1325 q 535 1259 574 1259 q 492 1265 512 1259 q 452 1279 471 1271 q 415 1294 433 1288 q 379 1300 397 1300 q 361 1287 365 1300 q 357 1255 357 1274 l 274 1278 q 294 1348 274 1315 q 355 1381 315 1381 q 393 1375 373 1381 q 434 1361 413 1369 q 474 1347 454 1353 q 511 1342 494 1342 q 526 1360 522 1342 q 531 1397 530 1378 z "},"Ệ":{"ha":864,"x_min":65,"x_max":793,"o":"m 65 0 l 65 1010 l 793 1010 l 793 789 l 339 789 l 339 616 l 756 616 l 756 395 l 339 395 l 339 221 l 791 221 l 791 0 l 65 0 m 335 1100 l 110 1100 l 110 1106 l 337 1331 l 527 1331 l 754 1106 l 754 1100 l 529 1100 l 432 1208 l 335 1100 z "},"Ɇ":{"ha":864,"x_min":65,"x_max":793,"o":"m 696 1138 l 331 -128 l 219 -128 l 584 1138 l 696 1138 m 65 0 l 65 1010 l 793 1010 l 793 789 l 339 789 l 339 616 l 756 616 l 756 395 l 339 395 l 339 221 l 791 221 l 791 0 l 65 0 z "},"Ǝ":{"ha":870,"x_min":43,"x_max":771,"o":"m 771 1010 l 771 0 l 43 0 l 43 221 l 497 221 l 497 395 l 81 395 l 81 616 l 497 616 l 497 789 l 45 789 l 45 1010 l 771 1010 z "},"Ε":{"ha":864,"x_min":65,"x_max":793,"o":"m 65 0 l 65 1010 l 793 1010 l 793 789 l 339 789 l 339 616 l 756 616 l 756 395 l 339 395 l 339 221 l 791 221 l 791 0 l 65 0 z "},"Έ":{"ha":1178,"x_min":77,"x_max":1107,"o":"m 379 0 l 379 1010 l 1107 1010 l 1107 789 l 653 789 l 653 616 l 1069 616 l 1069 395 l 653 395 l 653 221 l 1105 221 l 1105 0 l 379 0 z "},"Ἐ":{"ha":1083,"x_min":32,"x_max":1012,"o":"m 284 0 l 284 1010 l 1012 1010 l 1012 789 l 558 789 l 558 616 l 975 616 l 975 395 l 558 395 l 558 221 l 1010 221 l 1010 0 l 284 0 z "},"Ἑ":{"ha":1093,"x_min":73,"x_max":1022,"o":"m 294 0 l 294 1010 l 1022 1010 l 1022 789 l 568 789 l 568 616 l 984 616 l 984 395 l 568 395 l 568 221 l 1020 221 l 1020 0 l 294 0 z "},"Ἒ":{"ha":1347,"x_min":71,"x_max":1276,"o":"m 548 0 l 548 1010 l 1276 1010 l 1276 789 l 823 789 l 823 616 l 1239 616 l 1239 395 l 823 395 l 823 221 l 1274 221 l 1274 0 l 548 0 z "},"Ἓ":{"ha":1314,"x_min":67,"x_max":1243,"o":"m 515 0 l 515 1010 l 1243 1010 l 1243 789 l 789 789 l 789 616 l 1205 616 l 1205 395 l 789 395 l 789 221 l 1241 221 l 1241 0 l 515 0 z "},"Ἔ":{"ha":1344,"x_min":75,"x_max":1272,"o":"m 545 0 l 545 1010 l 1272 1010 l 1272 789 l 819 789 l 819 616 l 1235 616 l 1235 395 l 819 395 l 819 221 l 1271 221 l 1271 0 l 545 0 z "},"Ἕ":{"ha":1359,"x_min":73,"x_max":1288,"o":"m 560 0 l 560 1010 l 1288 1010 l 1288 789 l 835 789 l 835 616 l 1251 616 l 1251 395 l 835 395 l 835 221 l 1286 221 l 1286 0 l 560 0 z "},"Ὲ":{"ha":1136,"x_min":71,"x_max":1065,"o":"m 337 0 l 337 1010 l 1065 1010 l 1065 789 l 612 789 l 612 616 l 1028 616 l 1028 395 l 612 395 l 612 221 l 1063 221 l 1063 0 l 337 0 z "},"Έ":{"ha":1136,"x_min":41,"x_max":1065,"o":"m 337 0 l 337 1010 l 1065 1010 l 1065 789 l 612 789 l 612 616 l 1028 616 l 1028 395 l 612 395 l 612 221 l 1063 221 l 1063 0 l 337 0 z "},"Е":{"ha":864,"x_min":65,"x_max":793,"o":"m 65 0 l 65 1010 l 793 1010 l 793 789 l 339 789 l 339 616 l 756 616 l 756 395 l 339 395 l 339 221 l 791 221 l 791 0 l 65 0 z "},"Ѐ":{"ha":864,"x_min":65,"x_max":793,"o":"m 65 0 l 65 1010 l 793 1010 l 793 789 l 339 789 l 339 616 l 756 616 l 756 395 l 339 395 l 339 221 l 791 221 l 791 0 l 65 0 m 343 1105 l 195 1326 l 428 1326 l 523 1105 l 343 1105 z "},"Ё":{"ha":864,"x_min":65,"x_max":793,"o":"m 65 0 l 65 1010 l 793 1010 l 793 789 l 339 789 l 339 616 l 756 616 l 756 395 l 339 395 l 339 221 l 791 221 l 791 0 l 65 0 m 276 1099 q 191 1132 226 1099 q 156 1213 156 1166 q 191 1294 156 1261 q 276 1328 226 1328 q 360 1294 325 1328 q 395 1213 395 1261 q 360 1132 395 1166 q 276 1099 325 1099 m 590 1099 q 505 1132 540 1099 q 470 1213 470 1166 q 505 1294 470 1261 q 590 1328 540 1328 q 673 1294 639 1328 q 708 1213 708 1261 q 673 1132 708 1166 q 590 1099 639 1099 z "},"Ӗ":{"ha":864,"x_min":65,"x_max":793,"o":"m 65 0 l 65 1010 l 793 1010 l 793 789 l 339 789 l 339 616 l 756 616 l 756 395 l 339 395 l 339 221 l 791 221 l 791 0 l 65 0 m 531 1282 l 702 1282 q 629 1129 702 1186 q 432 1071 556 1071 q 234 1129 307 1071 q 162 1282 161 1186 l 331 1282 q 354 1225 331 1251 q 432 1199 377 1199 q 508 1225 485 1199 q 531 1282 530 1250 z "},"F":{"ha":811,"x_min":65,"x_max":775,"o":"m 65 0 l 65 1010 l 775 1010 l 775 789 l 339 789 l 339 616 l 732 616 l 732 395 l 339 395 l 339 0 l 65 0 z "},"Ƒ":{"ha":862,"x_min":-32,"x_max":827,"o":"m 116 0 l 391 0 l 391 -24 q 364 -165 391 -113 q 292 -243 337 -218 q 194 -276 248 -269 q 87 -284 141 -284 q 29 -284 67 -284 q -32 -280 -10 -283 l -32 -79 q -7 -80 -20 -80 q 14 -79 6 -79 q 84 -68 52 -79 q 116 -24 116 -58 l 116 0 m 116 0 l 116 1010 l 827 1010 l 827 789 l 391 789 l 391 616 l 783 616 l 783 395 l 391 395 l 391 0 l 116 0 z "},"Ḟ":{"ha":811,"x_min":65,"x_max":775,"o":"m 65 0 l 65 1010 l 775 1010 l 775 789 l 339 789 l 339 616 l 732 616 l 732 395 l 339 395 l 339 0 l 65 0 m 423 1089 q 327 1126 367 1089 q 288 1213 288 1162 q 327 1301 288 1265 q 422 1338 367 1338 q 517 1301 478 1338 q 556 1213 556 1265 q 517 1126 556 1162 q 423 1089 478 1089 z "},"Ⅎ":{"ha":811,"x_min":36,"x_max":746,"o":"m 746 1010 l 746 0 l 36 0 l 36 221 l 472 221 l 472 395 l 79 395 l 79 616 l 472 616 l 472 1010 l 746 1010 z "},"G":{"ha":1073,"x_min":61,"x_max":1010,"o":"m 721 677 q 701 723 715 703 q 667 757 687 743 q 619 778 646 771 q 560 785 592 785 q 443 752 491 785 q 369 657 394 719 q 343 507 343 595 q 367 355 343 418 q 439 258 392 292 q 558 225 487 225 q 663 243 621 225 q 725 295 704 261 q 746 374 746 328 l 793 369 l 562 369 l 562 564 l 1010 564 l 1010 424 q 952 188 1010 286 q 791 38 893 90 q 556 -14 689 -14 q 297 49 409 -14 q 124 227 186 111 q 61 503 61 343 q 99 725 61 628 q 206 889 138 822 q 363 990 274 955 q 554 1024 452 1024 q 721 999 644 1024 q 858 927 799 973 q 954 816 917 880 q 998 677 990 753 l 721 677 z "},"Ǥ":{"ha":1073,"x_min":61,"x_max":1042,"o":"m 1042 339 l 1042 278 l 562 278 l 562 339 l 1042 339 m 721 677 q 701 723 715 703 q 667 757 687 743 q 619 778 646 771 q 560 785 592 785 q 443 752 491 785 q 369 657 394 719 q 343 507 343 595 q 367 355 343 418 q 439 258 392 292 q 558 225 487 225 q 663 243 621 225 q 725 295 704 261 q 746 374 746 328 l 793 369 l 562 369 l 562 564 l 1010 564 l 1010 424 q 952 188 1010 286 q 791 38 893 90 q 556 -14 689 -14 q 297 49 409 -14 q 124 227 186 111 q 61 503 61 343 q 99 725 61 628 q 206 889 138 822 q 363 990 274 955 q 554 1024 452 1024 q 721 999 644 1024 q 858 927 799 973 q 954 816 917 880 q 998 677 990 753 l 721 677 z "},"Ɠ":{"ha":1215,"x_min":61,"x_max":1215,"o":"m 998 677 l 718 677 l 716 862 q 747 999 716 940 q 833 1100 779 1059 q 955 1161 887 1140 q 1095 1182 1023 1182 q 1153 1178 1125 1182 q 1215 1166 1181 1173 l 1215 953 q 1178 957 1196 954 q 1142 959 1160 959 q 1073 952 1106 959 q 1019 925 1040 946 q 998 862 998 905 l 998 677 m 721 677 q 701 723 715 703 q 667 757 687 743 q 619 778 646 771 q 560 785 592 785 q 443 752 491 785 q 369 657 394 719 q 343 507 343 595 q 367 355 343 418 q 439 258 392 292 q 558 225 487 225 q 663 243 621 225 q 725 295 704 261 q 746 374 746 328 l 793 369 l 562 369 l 562 564 l 1010 564 l 1010 424 q 952 188 1010 286 q 791 38 893 90 q 556 -14 689 -14 q 297 49 409 -14 q 124 227 186 111 q 61 503 61 343 q 99 725 61 628 q 206 889 138 822 q 363 990 274 955 q 554 1024 452 1024 q 721 999 644 1024 q 858 927 799 973 q 954 816 917 880 q 998 677 990 753 l 721 677 z "},"Ĝ":{"ha":1073,"x_min":61,"x_max":1010,"o":"m 721 677 q 701 723 715 703 q 667 757 687 743 q 619 778 646 771 q 560 785 592 785 q 443 752 491 785 q 369 657 394 719 q 343 507 343 595 q 367 355 343 418 q 439 258 392 292 q 558 225 487 225 q 663 243 621 225 q 725 295 704 261 q 746 374 746 328 l 793 369 l 562 369 l 562 564 l 1010 564 l 1010 424 q 952 188 1010 286 q 791 38 893 90 q 556 -14 689 -14 q 297 49 409 -14 q 124 227 186 111 q 61 503 61 343 q 99 725 61 628 q 206 889 138 822 q 363 990 274 955 q 554 1024 452 1024 q 721 999 644 1024 q 858 927 799 973 q 954 816 917 880 q 998 677 990 753 l 721 677 m 450 1100 l 225 1100 l 225 1106 l 452 1331 l 641 1331 l 868 1106 l 868 1100 l 643 1100 l 546 1208 l 450 1100 z "},"Ğ":{"ha":1073,"x_min":61,"x_max":1010,"o":"m 721 677 q 701 723 715 703 q 667 757 687 743 q 619 778 646 771 q 560 785 592 785 q 443 752 491 785 q 369 657 394 719 q 343 507 343 595 q 367 355 343 418 q 439 258 392 292 q 558 225 487 225 q 663 243 621 225 q 725 295 704 261 q 746 374 746 328 l 793 369 l 562 369 l 562 564 l 1010 564 l 1010 424 q 952 188 1010 286 q 791 38 893 90 q 556 -14 689 -14 q 297 49 409 -14 q 124 227 186 111 q 61 503 61 343 q 99 725 61 628 q 206 889 138 822 q 363 990 274 955 q 554 1024 452 1024 q 721 999 644 1024 q 858 927 799 973 q 954 816 917 880 q 998 677 990 753 l 721 677 m 645 1282 l 817 1282 q 743 1129 816 1186 q 546 1071 670 1071 q 349 1129 422 1071 q 276 1282 276 1186 l 446 1282 q 468 1225 445 1251 q 546 1199 491 1199 q 622 1225 599 1199 q 645 1282 645 1250 z "},"Ġ":{"ha":1073,"x_min":61,"x_max":1010,"o":"m 721 677 q 701 723 715 703 q 667 757 687 743 q 619 778 646 771 q 560 785 592 785 q 443 752 491 785 q 369 657 394 719 q 343 507 343 595 q 367 355 343 418 q 439 258 392 292 q 558 225 487 225 q 663 243 621 225 q 725 295 704 261 q 746 374 746 328 l 793 369 l 562 369 l 562 564 l 1010 564 l 1010 424 q 952 188 1010 286 q 791 38 893 90 q 556 -14 689 -14 q 297 49 409 -14 q 124 227 186 111 q 61 503 61 343 q 99 725 61 628 q 206 889 138 822 q 363 990 274 955 q 554 1024 452 1024 q 721 999 644 1024 q 858 927 799 973 q 954 816 917 880 q 998 677 990 753 l 721 677 m 547 1089 q 452 1126 491 1089 q 412 1213 412 1162 q 452 1301 412 1265 q 546 1338 491 1338 q 641 1301 602 1338 q 681 1213 681 1265 q 641 1126 681 1162 q 547 1089 602 1089 z "},"Ģ":{"ha":1073,"x_min":61,"x_max":1010,"o":"m 721 677 q 701 723 715 703 q 667 757 687 743 q 619 778 646 771 q 560 785 592 785 q 443 752 491 785 q 369 657 394 719 q 343 507 343 595 q 367 355 343 418 q 439 258 392 292 q 558 225 487 225 q 663 243 621 225 q 725 295 704 261 q 746 374 746 328 l 793 369 l 562 369 l 562 564 l 1010 564 l 1010 424 q 952 188 1010 286 q 791 38 893 90 q 556 -14 689 -14 q 297 49 409 -14 q 124 227 186 111 q 61 503 61 343 q 99 725 61 628 q 206 889 138 822 q 363 990 274 955 q 554 1024 452 1024 q 721 999 644 1024 q 858 927 799 973 q 954 816 917 880 q 998 677 990 753 l 721 677 m 360 -312 l 425 -76 l 670 -76 l 545 -312 l 360 -312 z "},"Ǧ":{"ha":1073,"x_min":61,"x_max":1010,"o":"m 721 677 q 701 723 715 703 q 667 757 687 743 q 619 778 646 771 q 560 785 592 785 q 443 752 491 785 q 369 657 394 719 q 343 507 343 595 q 367 355 343 418 q 439 258 392 292 q 558 225 487 225 q 663 243 621 225 q 725 295 704 261 q 746 374 746 328 l 793 369 l 562 369 l 562 564 l 1010 564 l 1010 424 q 952 188 1010 286 q 791 38 893 90 q 556 -14 689 -14 q 297 49 409 -14 q 124 227 186 111 q 61 503 61 343 q 99 725 61 628 q 206 889 138 822 q 363 990 274 955 q 554 1024 452 1024 q 721 999 644 1024 q 858 927 799 973 q 954 816 917 880 q 998 677 990 753 l 721 677 m 450 1332 l 546 1223 l 643 1332 l 868 1332 l 868 1326 l 641 1101 l 452 1101 l 225 1326 l 225 1332 l 450 1332 z "},"Ǵ":{"ha":1073,"x_min":61,"x_max":1010,"o":"m 721 677 q 701 723 715 703 q 667 757 687 743 q 619 778 646 771 q 560 785 592 785 q 443 752 491 785 q 369 657 394 719 q 343 507 343 595 q 367 355 343 418 q 439 258 392 292 q 558 225 487 225 q 663 243 621 225 q 725 295 704 261 q 746 374 746 328 l 793 369 l 562 369 l 562 564 l 1010 564 l 1010 424 q 952 188 1010 286 q 791 38 893 90 q 556 -14 689 -14 q 297 49 409 -14 q 124 227 186 111 q 61 503 61 343 q 99 725 61 628 q 206 889 138 822 q 363 990 274 955 q 554 1024 452 1024 q 721 999 644 1024 q 858 927 799 973 q 954 816 917 880 q 998 677 990 753 l 721 677 m 456 1105 l 550 1326 l 783 1326 l 635 1105 l 456 1105 z "},"Ḡ":{"ha":1073,"x_min":61,"x_max":1010,"o":"m 721 677 q 701 723 715 703 q 667 757 687 743 q 619 778 646 771 q 560 785 592 785 q 443 752 491 785 q 369 657 394 719 q 343 507 343 595 q 367 355 343 418 q 439 258 392 292 q 558 225 487 225 q 663 243 621 225 q 725 295 704 261 q 746 374 746 328 l 793 369 l 562 369 l 562 564 l 1010 564 l 1010 424 q 952 188 1010 286 q 791 38 893 90 q 556 -14 689 -14 q 297 49 409 -14 q 124 227 186 111 q 61 503 61 343 q 99 725 61 628 q 206 889 138 822 q 363 990 274 955 q 554 1024 452 1024 q 721 999 644 1024 q 858 927 799 973 q 954 816 917 880 q 998 677 990 753 l 721 677 m 793 1263 l 793 1138 l 300 1138 l 300 1263 l 793 1263 z "},"":{"ha":1081,"x_min":61,"x_max":1018,"o":"m 556 -14 q 298 49 410 -14 q 124 227 187 111 q 61 503 61 343 q 100 725 61 628 q 208 889 139 822 q 367 990 277 955 q 559 1024 457 1024 q 727 999 649 1024 q 865 927 805 973 q 963 817 926 880 q 1008 677 1000 753 l 732 677 q 711 723 726 703 q 674 757 696 743 q 625 778 653 771 q 565 785 597 785 q 446 752 496 785 q 370 657 397 719 q 343 507 343 595 q 368 355 343 418 q 440 258 393 292 q 558 225 488 225 q 663 243 621 225 q 725 295 704 261 q 746 374 746 328 l 803 369 l 562 369 l 562 564 l 1018 564 l 1018 0 l 843 0 l 833 110 l 827 110 q 712 19 780 51 q 556 -14 645 -14 z "},"":{"ha":1083,"x_min":61,"x_max":1052,"o":"m 1052 339 l 1052 278 l 562 278 l 562 339 l 1052 339 m 556 -14 q 298 49 410 -14 q 124 227 187 111 q 61 503 61 343 q 100 725 61 628 q 208 889 139 822 q 367 990 277 955 q 559 1024 457 1024 q 727 999 649 1024 q 865 927 805 973 q 963 817 926 880 q 1008 677 1000 753 l 732 677 q 711 723 726 703 q 674 757 696 743 q 625 778 653 771 q 565 785 597 785 q 446 752 496 785 q 370 657 397 719 q 343 507 343 595 q 368 355 343 418 q 440 258 393 292 q 558 225 488 225 q 663 243 621 225 q 725 295 704 261 q 746 374 746 328 l 803 369 l 562 369 l 562 564 l 1018 564 l 1018 0 l 843 0 l 833 110 l 827 110 q 712 19 780 51 q 556 -14 645 -14 z "},"":{"ha":1215,"x_min":61,"x_max":1225,"o":"m 1008 677 l 728 677 l 726 862 q 757 999 726 940 q 843 1100 789 1059 q 965 1161 897 1140 q 1105 1182 1033 1182 q 1163 1178 1134 1182 q 1225 1166 1191 1173 l 1225 953 q 1188 957 1206 954 q 1152 959 1170 959 q 1083 952 1116 959 q 1029 925 1050 946 q 1008 862 1008 905 l 1008 677 m 556 -14 q 298 49 410 -14 q 124 227 187 111 q 61 503 61 343 q 100 725 61 628 q 208 889 139 822 q 367 990 277 955 q 559 1024 457 1024 q 727 999 649 1024 q 865 927 805 973 q 963 817 926 880 q 1008 677 1000 753 l 732 677 q 711 723 726 703 q 674 757 696 743 q 625 778 653 771 q 565 785 597 785 q 446 752 496 785 q 370 657 397 719 q 343 507 343 595 q 368 355 343 418 q 440 258 393 292 q 558 225 488 225 q 663 243 621 225 q 725 295 704 261 q 746 374 746 328 l 803 369 l 562 369 l 562 564 l 1018 564 l 1018 0 l 843 0 l 833 110 l 827 110 q 712 19 780 51 q 556 -14 645 -14 z "},"":{"ha":1081,"x_min":61,"x_max":1018,"o":"m 556 -14 q 298 49 410 -14 q 124 227 187 111 q 61 503 61 343 q 100 725 61 628 q 208 889 139 822 q 367 990 277 955 q 559 1024 457 1024 q 727 999 649 1024 q 865 927 805 973 q 963 817 926 880 q 1008 677 1000 753 l 732 677 q 711 723 726 703 q 674 757 696 743 q 625 778 653 771 q 565 785 597 785 q 446 752 496 785 q 370 657 397 719 q 343 507 343 595 q 368 355 343 418 q 440 258 393 292 q 558 225 488 225 q 663 243 621 225 q 725 295 704 261 q 746 374 746 328 l 803 369 l 562 369 l 562 564 l 1018 564 l 1018 0 l 843 0 l 833 110 l 827 110 q 712 19 780 51 q 556 -14 645 -14 m 450 1100 l 225 1100 l 225 1106 l 452 1331 l 641 1331 l 868 1106 l 868 1100 l 643 1100 l 546 1208 l 450 1100 z "},"":{"ha":1081,"x_min":61,"x_max":1018,"o":"m 556 -14 q 298 49 410 -14 q 124 227 187 111 q 61 503 61 343 q 100 725 61 628 q 208 889 139 822 q 367 990 277 955 q 559 1024 457 1024 q 727 999 649 1024 q 865 927 805 973 q 963 817 926 880 q 1008 677 1000 753 l 732 677 q 711 723 726 703 q 674 757 696 743 q 625 778 653 771 q 565 785 597 785 q 446 752 496 785 q 370 657 397 719 q 343 507 343 595 q 368 355 343 418 q 440 258 393 292 q 558 225 488 225 q 663 243 621 225 q 725 295 704 261 q 746 374 746 328 l 803 369 l 562 369 l 562 564 l 1018 564 l 1018 0 l 843 0 l 833 110 l 827 110 q 712 19 780 51 q 556 -14 645 -14 m 645 1282 l 817 1282 q 743 1129 816 1186 q 546 1071 670 1071 q 349 1129 422 1071 q 276 1282 276 1186 l 446 1282 q 468 1225 445 1251 q 546 1199 491 1199 q 622 1225 599 1199 q 645 1282 645 1250 z "},"":{"ha":1081,"x_min":61,"x_max":1018,"o":"m 556 -14 q 298 49 410 -14 q 124 227 187 111 q 61 503 61 343 q 100 725 61 628 q 208 889 139 822 q 367 990 277 955 q 559 1024 457 1024 q 727 999 649 1024 q 865 927 805 973 q 963 817 926 880 q 1008 677 1000 753 l 732 677 q 711 723 726 703 q 674 757 696 743 q 625 778 653 771 q 565 785 597 785 q 446 752 496 785 q 370 657 397 719 q 343 507 343 595 q 368 355 343 418 q 440 258 393 292 q 558 225 488 225 q 663 243 621 225 q 725 295 704 261 q 746 374 746 328 l 803 369 l 562 369 l 562 564 l 1018 564 l 1018 0 l 843 0 l 833 110 l 827 110 q 712 19 780 51 q 556 -14 645 -14 m 547 1089 q 452 1126 491 1089 q 412 1213 412 1162 q 452 1301 412 1265 q 546 1338 491 1338 q 641 1301 602 1338 q 681 1213 681 1265 q 641 1126 681 1162 q 547 1089 602 1089 z "},"":{"ha":1081,"x_min":61,"x_max":1018,"o":"m 556 -14 q 298 49 410 -14 q 124 227 187 111 q 61 503 61 343 q 100 725 61 628 q 208 889 139 822 q 367 990 277 955 q 559 1024 457 1024 q 727 999 649 1024 q 865 927 805 973 q 963 817 926 880 q 1008 677 1000 753 l 732 677 q 711 723 726 703 q 674 757 696 743 q 625 778 653 771 q 565 785 597 785 q 446 752 496 785 q 370 657 397 719 q 343 507 343 595 q 368 355 343 418 q 440 258 393 292 q 558 225 488 225 q 663 243 621 225 q 725 295 704 261 q 746 374 746 328 l 803 369 l 562 369 l 562 564 l 1018 564 l 1018 0 l 843 0 l 833 110 l 827 110 q 712 19 780 51 q 556 -14 645 -14 m 360 -312 l 425 -76 l 670 -76 l 545 -312 l 360 -312 z "},"":{"ha":1081,"x_min":61,"x_max":1018,"o":"m 556 -14 q 298 49 410 -14 q 124 227 187 111 q 61 503 61 343 q 100 725 61 628 q 208 889 139 822 q 367 990 277 955 q 559 1024 457 1024 q 727 999 649 1024 q 865 927 805 973 q 963 817 926 880 q 1008 677 1000 753 l 732 677 q 711 723 726 703 q 674 757 696 743 q 625 778 653 771 q 565 785 597 785 q 446 752 496 785 q 370 657 397 719 q 343 507 343 595 q 368 355 343 418 q 440 258 393 292 q 558 225 488 225 q 663 243 621 225 q 725 295 704 261 q 746 374 746 328 l 803 369 l 562 369 l 562 564 l 1018 564 l 1018 0 l 843 0 l 833 110 l 827 110 q 712 19 780 51 q 556 -14 645 -14 m 450 1332 l 546 1223 l 643 1332 l 868 1332 l 868 1326 l 641 1101 l 452 1101 l 225 1326 l 225 1332 l 450 1332 z "},"":{"ha":1081,"x_min":61,"x_max":1018,"o":"m 556 -14 q 298 49 410 -14 q 124 227 187 111 q 61 503 61 343 q 100 725 61 628 q 208 889 139 822 q 367 990 277 955 q 559 1024 457 1024 q 727 999 649 1024 q 865 927 805 973 q 963 817 926 880 q 1008 677 1000 753 l 732 677 q 711 723 726 703 q 674 757 696 743 q 625 778 653 771 q 565 785 597 785 q 446 752 496 785 q 370 657 397 719 q 343 507 343 595 q 368 355 343 418 q 440 258 393 292 q 558 225 488 225 q 663 243 621 225 q 725 295 704 261 q 746 374 746 328 l 803 369 l 562 369 l 562 564 l 1018 564 l 1018 0 l 843 0 l 833 110 l 827 110 q 712 19 780 51 q 556 -14 645 -14 m 456 1105 l 550 1326 l 783 1326 l 635 1105 l 456 1105 z "},"":{"ha":1081,"x_min":61,"x_max":1018,"o":"m 556 -14 q 298 49 410 -14 q 124 227 187 111 q 61 503 61 343 q 100 725 61 628 q 208 889 139 822 q 367 990 277 955 q 559 1024 457 1024 q 727 999 649 1024 q 865 927 805 973 q 963 817 926 880 q 1008 677 1000 753 l 732 677 q 711 723 726 703 q 674 757 696 743 q 625 778 653 771 q 565 785 597 785 q 446 752 496 785 q 370 657 397 719 q 343 507 343 595 q 368 355 343 418 q 440 258 393 292 q 558 225 488 225 q 663 243 621 225 q 725 295 704 261 q 746 374 746 328 l 803 369 l 562 369 l 562 564 l 1018 564 l 1018 0 l 843 0 l 833 110 l 827 110 q 712 19 780 51 q 556 -14 645 -14 m 793 1263 l 793 1138 l 300 1138 l 300 1263 l 793 1263 z "},"H":{"ha":1042,"x_min":65,"x_max":977,"o":"m 65 0 l 65 1010 l 339 1010 l 339 616 l 702 616 l 702 1010 l 977 1010 l 977 0 l 702 0 l 702 395 l 339 395 l 339 0 l 65 0 z "},"Ḩ":{"ha":1042,"x_min":65,"x_max":977,"o":"m 65 0 l 65 1010 l 339 1010 l 339 616 l 702 616 l 702 1010 l 977 1010 l 977 0 l 702 0 l 702 395 l 339 395 l 339 0 l 65 0 m 148 4 l 245 4 l 237 -41 q 328 -83 295 -50 q 361 -164 361 -115 q 283 -290 362 -244 q 65 -335 204 -335 l 65 -231 q 177 -215 138 -231 q 217 -170 215 -200 q 196 -124 219 -142 q 124 -99 172 -106 l 148 4 z "},"Ĥ":{"ha":1042,"x_min":65,"x_max":977,"o":"m 65 0 l 65 1010 l 339 1010 l 339 616 l 702 616 l 702 1010 l 977 1010 l 977 0 l 702 0 l 702 395 l 339 395 l 339 0 l 65 0 m 424 1100 l 199 1100 l 199 1106 l 426 1331 l 616 1331 l 842 1106 l 842 1100 l 618 1100 l 521 1208 l 424 1100 z "},"Ȟ":{"ha":1042,"x_min":65,"x_max":977,"o":"m 65 0 l 65 1010 l 339 1010 l 339 616 l 702 616 l 702 1010 l 977 1010 l 977 0 l 702 0 l 702 395 l 339 395 l 339 0 l 65 0 m 424 1332 l 521 1223 l 618 1332 l 842 1332 l 842 1326 l 616 1101 l 426 1101 l 199 1326 l 199 1332 l 424 1332 z "},"Ḣ":{"ha":1042,"x_min":65,"x_max":977,"o":"m 65 0 l 65 1010 l 339 1010 l 339 616 l 702 616 l 702 1010 l 977 1010 l 977 0 l 702 0 l 702 395 l 339 395 l 339 0 l 65 0 m 521 1089 q 426 1126 466 1089 q 387 1213 387 1162 q 426 1301 387 1265 q 521 1338 466 1338 q 616 1301 577 1338 q 655 1213 655 1265 q 616 1126 655 1162 q 521 1089 577 1089 z "},"Ḥ":{"ha":1042,"x_min":65,"x_max":977,"o":"m 65 0 l 65 1010 l 339 1010 l 339 616 l 702 616 l 702 1010 l 977 1010 l 977 0 l 702 0 l 702 395 l 339 395 l 339 0 l 65 0 z "},"Ḧ":{"ha":1042,"x_min":65,"x_max":977,"o":"m 65 0 l 65 1010 l 339 1010 l 339 616 l 702 616 l 702 1010 l 977 1010 l 977 0 l 702 0 l 702 395 l 339 395 l 339 0 l 65 0 z "},"Ḫ":{"ha":1042,"x_min":65,"x_max":977,"o":"m 65 0 l 65 1010 l 339 1010 l 339 616 l 702 616 l 702 1010 l 977 1010 l 977 0 l 702 0 l 702 395 l 339 395 l 339 0 l 65 0 m 623 -49 l 793 -49 q 760 -161 793 -111 q 666 -239 727 -211 q 521 -268 605 -268 q 326 -208 400 -268 q 253 -49 252 -148 l 422 -49 q 445 -106 422 -80 q 523 -132 468 -132 q 599 -106 576 -132 q 623 -49 623 -79 z "},"Ħ":{"ha":1156,"x_min":37,"x_max":1119,"o":"m 1119 860 l 1119 730 l 37 730 l 37 860 l 1119 860 m 122 0 l 122 1010 l 397 1010 l 397 616 l 760 616 l 760 1010 l 1034 1010 l 1034 0 l 760 0 l 760 395 l 397 395 l 397 0 l 122 0 z "},"Ӈ":{"ha":1042,"x_min":65,"x_max":977,"o":"m 702 0 l 977 0 l 977 -28 q 973 -84 977 -49 q 951 -157 969 -118 q 891 -231 933 -196 q 773 -288 849 -266 q 578 -310 698 -310 q 524 -307 550 -310 q 493 -304 497 -304 l 493 -87 q 530 -89 507 -87 q 568 -91 554 -91 q 630 -85 599 -91 q 682 -61 661 -79 q 702 -8 702 -43 l 702 0 m 65 0 l 65 1010 l 339 1010 l 339 616 l 702 616 l 702 1010 l 977 1010 l 977 0 l 702 0 l 702 395 l 339 395 l 339 0 l 65 0 z "},"Ң":{"ha":1267,"x_min":65,"x_max":1239,"o":"m 65 0 l 65 1010 l 339 1010 l 339 616 l 702 616 l 702 1010 l 977 1010 l 977 0 l 702 0 l 702 395 l 339 395 l 339 0 l 65 0 m 1239 170 l 1239 -243 l 977 -243 l 977 170 l 1239 170 z "},"Ӊ":{"ha":1205,"x_min":65,"x_max":1179,"o":"m 65 0 l 65 1010 l 339 1010 l 339 616 l 702 616 l 702 1010 l 977 1010 l 977 0 l 702 0 l 702 395 l 339 395 l 339 0 l 65 0 m 1178 140 l 1178 6 q 1158 -115 1179 -55 q 1100 -226 1137 -176 q 1018 -308 1064 -276 l 898 -239 q 931 -183 913 -212 q 963 -113 950 -153 q 977 -14 977 -73 l 977 140 l 1178 140 z "},"Ҥ":{"ha":1417,"x_min":65,"x_max":1379,"o":"m 1379 1010 l 1379 789 l 977 789 l 977 0 l 702 0 l 702 395 l 339 395 l 339 0 l 65 0 l 65 1010 l 339 1010 l 339 616 l 702 616 l 702 1010 l 1379 1010 z "},"Ƕ":{"ha":1568,"x_min":65,"x_max":1499,"o":"m 1101 -14 q 888 31 978 -14 q 751 157 799 75 q 702 353 702 240 l 702 395 l 339 395 l 339 0 l 65 0 l 65 1010 l 339 1010 l 339 616 l 702 616 l 702 1010 l 977 1010 l 977 353 q 1010 249 977 287 q 1101 211 1043 211 q 1192 249 1159 211 q 1225 353 1225 287 l 1225 724 l 1499 724 l 1499 353 q 1452 157 1499 240 q 1314 31 1404 75 q 1101 -14 1225 -14 z "},"Η":{"ha":1042,"x_min":65,"x_max":977,"o":"m 65 0 l 65 1010 l 339 1010 l 339 616 l 702 616 l 702 1010 l 977 1010 l 977 0 l 702 0 l 702 395 l 339 395 l 339 0 l 65 0 z "},"Ή":{"ha":1351,"x_min":77,"x_max":1286,"o":"m 375 0 l 375 1010 l 649 1010 l 649 616 l 1012 616 l 1012 1010 l 1286 1010 l 1286 0 l 1012 0 l 1012 395 l 649 395 l 649 0 l 375 0 z "},"Ἠ":{"ha":1290,"x_min":65,"x_max":1225,"o":"m 314 0 l 314 1010 l 588 1010 l 588 616 l 951 616 l 951 1010 l 1225 1010 l 1225 0 l 951 0 l 951 395 l 588 395 l 588 0 l 314 0 z "},"Ἡ":{"ha":1267,"x_min":73,"x_max":1201,"o":"m 290 0 l 290 1010 l 564 1010 l 564 616 l 927 616 l 927 1010 l 1201 1010 l 1201 0 l 927 0 l 927 395 l 564 395 l 564 0 l 290 0 z "},"Ἢ":{"ha":1521,"x_min":71,"x_max":1456,"o":"m 545 0 l 545 1010 l 819 1010 l 819 616 l 1182 616 l 1182 1010 l 1456 1010 l 1456 0 l 1182 0 l 1182 395 l 819 395 l 819 0 l 545 0 z "},"Ἣ":{"ha":1488,"x_min":67,"x_max":1422,"o":"m 511 0 l 511 1010 l 785 1010 l 785 616 l 1148 616 l 1148 1010 l 1422 1010 l 1422 0 l 1148 0 l 1148 395 l 785 395 l 785 0 l 511 0 z "},"Ἤ":{"ha":1517,"x_min":75,"x_max":1452,"o":"m 541 0 l 541 1010 l 815 1010 l 815 616 l 1178 616 l 1178 1010 l 1452 1010 l 1452 0 l 1178 0 l 1178 395 l 815 395 l 815 0 l 541 0 z "},"Ἥ":{"ha":1533,"x_min":73,"x_max":1468,"o":"m 556 0 l 556 1010 l 831 1010 l 831 616 l 1194 616 l 1194 1010 l 1468 1010 l 1468 0 l 1194 0 l 1194 395 l 831 395 l 831 0 l 556 0 z "},"Ἦ":{"ha":1411,"x_min":67,"x_max":1345,"o":"m 434 0 l 434 1010 l 708 1010 l 708 616 l 1071 616 l 1071 1010 l 1345 1010 l 1345 0 l 1071 0 l 1071 395 l 708 395 l 708 0 l 434 0 z "},"Ἧ":{"ha":1438,"x_min":67,"x_max":1373,"o":"m 462 0 l 462 1010 l 736 1010 l 736 616 l 1099 616 l 1099 1010 l 1373 1010 l 1373 0 l 1099 0 l 1099 395 l 736 395 l 736 0 l 462 0 z "},"Ὴ":{"ha":1310,"x_min":71,"x_max":1245,"o":"m 333 0 l 333 1010 l 608 1010 l 608 616 l 971 616 l 971 1010 l 1245 1010 l 1245 0 l 971 0 l 971 395 l 608 395 l 608 0 l 333 0 z "},"Ή":{"ha":1310,"x_min":41,"x_max":1245,"o":"m 333 0 l 333 1010 l 608 1010 l 608 616 l 971 616 l 971 1010 l 1245 1010 l 1245 0 l 971 0 l 971 395 l 608 395 l 608 0 l 333 0 z "},"Н":{"ha":1042,"x_min":65,"x_max":977,"o":"m 65 0 l 65 1010 l 339 1010 l 339 616 l 702 616 l 702 1010 l 977 1010 l 977 0 l 702 0 l 702 395 l 339 395 l 339 0 l 65 0 z "},"ᾘ":{"ha":1271,"x_min":45,"x_max":1205,"o":"m 294 0 l 294 1010 l 568 1010 l 568 616 l 931 616 l 931 1010 l 1205 1010 l 1205 0 l 931 0 l 931 395 l 568 395 l 568 0 l 294 0 m 821 -335 q 724 -305 765 -335 q 683 -207 683 -275 l 683 -69 l 823 -69 l 823 -207 q 830 -230 823 -222 q 862 -239 837 -239 q 881 -238 874 -239 q 894 -237 888 -237 l 894 -326 q 859 -333 876 -330 q 821 -335 842 -335 z "},"ᾙ":{"ha":1267,"x_min":73,"x_max":1201,"o":"m 290 0 l 290 1010 l 564 1010 l 564 616 l 927 616 l 927 1010 l 1201 1010 l 1201 0 l 927 0 l 927 395 l 564 395 l 564 0 l 290 0 m 817 -335 q 720 -305 761 -335 q 679 -207 679 -275 l 679 -69 l 819 -69 l 819 -207 q 826 -230 819 -222 q 858 -239 834 -239 q 877 -238 871 -239 q 890 -237 884 -237 l 890 -326 q 855 -333 872 -330 q 817 -335 838 -335 z "},"ᾚ":{"ha":1521,"x_min":71,"x_max":1456,"o":"m 545 0 l 545 1010 l 819 1010 l 819 616 l 1182 616 l 1182 1010 l 1456 1010 l 1456 0 l 1182 0 l 1182 395 l 819 395 l 819 0 l 545 0 m 1071 -335 q 974 -305 1016 -335 q 933 -207 933 -275 l 933 -69 l 1073 -69 l 1073 -207 q 1081 -230 1073 -222 q 1113 -239 1088 -239 q 1132 -238 1125 -239 q 1144 -237 1139 -237 l 1144 -326 q 1110 -333 1127 -330 q 1071 -335 1092 -335 z "},"ᾛ":{"ha":1488,"x_min":67,"x_max":1422,"o":"m 511 0 l 511 1010 l 785 1010 l 785 616 l 1148 616 l 1148 1010 l 1422 1010 l 1422 0 l 1148 0 l 1148 395 l 785 395 l 785 0 l 511 0 m 1038 -335 q 941 -305 982 -335 q 900 -207 900 -275 l 900 -69 l 1040 -69 l 1040 -207 q 1047 -230 1040 -222 q 1079 -239 1054 -239 q 1098 -238 1091 -239 q 1111 -237 1105 -237 l 1111 -326 q 1076 -333 1093 -330 q 1038 -335 1059 -335 z "},"ᾜ":{"ha":1517,"x_min":75,"x_max":1452,"o":"m 541 0 l 541 1010 l 815 1010 l 815 616 l 1178 616 l 1178 1010 l 1452 1010 l 1452 0 l 1178 0 l 1178 395 l 815 395 l 815 0 l 541 0 m 1067 -335 q 970 -305 1012 -335 q 929 -207 929 -275 l 929 -69 l 1069 -69 l 1069 -207 q 1077 -230 1069 -222 q 1109 -239 1084 -239 q 1128 -238 1121 -239 q 1140 -237 1135 -237 l 1140 -326 q 1106 -333 1123 -330 q 1067 -335 1089 -335 z "},"ᾝ":{"ha":1533,"x_min":73,"x_max":1468,"o":"m 556 0 l 556 1010 l 831 1010 l 831 616 l 1194 616 l 1194 1010 l 1468 1010 l 1468 0 l 1194 0 l 1194 395 l 831 395 l 831 0 l 556 0 m 1083 -335 q 986 -305 1027 -335 q 945 -207 945 -275 l 945 -69 l 1085 -69 l 1085 -207 q 1092 -230 1085 -222 q 1125 -239 1100 -239 q 1144 -238 1137 -239 q 1156 -237 1151 -237 l 1156 -326 q 1122 -333 1139 -330 q 1083 -335 1104 -335 z "},"ᾞ":{"ha":1411,"x_min":67,"x_max":1345,"o":"m 434 0 l 434 1010 l 708 1010 l 708 616 l 1071 616 l 1071 1010 l 1345 1010 l 1345 0 l 1071 0 l 1071 395 l 708 395 l 708 0 l 434 0 m 961 -335 q 864 -305 905 -335 q 823 -207 823 -275 l 823 -69 l 963 -69 l 963 -207 q 970 -230 963 -222 q 1002 -239 978 -239 q 1021 -238 1015 -239 q 1034 -237 1028 -237 l 1034 -326 q 999 -333 1017 -330 q 961 -335 982 -335 z "},"ᾟ":{"ha":1438,"x_min":67,"x_max":1373,"o":"m 462 0 l 462 1010 l 736 1010 l 736 616 l 1099 616 l 1099 1010 l 1373 1010 l 1373 0 l 1099 0 l 1099 395 l 736 395 l 736 0 l 462 0 m 988 -335 q 891 -305 933 -335 q 850 -207 850 -275 l 850 -69 l 990 -69 l 990 -207 q 998 -230 990 -222 q 1030 -239 1005 -239 q 1049 -238 1042 -239 q 1061 -237 1056 -237 l 1061 -326 q 1027 -333 1044 -330 q 988 -335 1010 -335 z "},"ῌ":{"ha":1042,"x_min":65,"x_max":977,"o":"m 65 0 l 65 1010 l 339 1010 l 339 616 l 702 616 l 702 1010 l 977 1010 l 977 0 l 702 0 l 702 395 l 339 395 l 339 0 l 65 0 m 592 -335 q 495 -305 536 -335 q 454 -207 454 -275 l 454 -69 l 594 -69 l 594 -207 q 601 -230 594 -222 q 633 -239 609 -239 q 653 -238 646 -239 q 665 -237 659 -237 l 665 -326 q 630 -333 648 -330 q 592 -335 613 -335 z "},"I":{"ha":404,"x_min":65,"x_max":339,"o":"m 339 1010 l 339 0 l 65 0 l 65 1010 l 339 1010 z "},"Ï":{"ha":404,"x_min":-73,"x_max":479,"o":"m 339 1010 l 339 0 l 65 0 l 65 1010 l 339 1010 z "},"Ḯ":{"ha":404,"x_min":-55,"x_max":462,"o":"m 339 1010 l 339 0 l 65 0 l 65 1010 l 339 1010 m 103 1338 l 234 1528 l 457 1528 l 286 1338 l 103 1338 m 58 1073 q -22 1103 11 1073 q -55 1176 -55 1133 q -22 1250 -55 1219 q 58 1280 11 1280 q 136 1250 103 1280 q 168 1176 168 1219 q 136 1103 168 1133 q 58 1073 103 1073 m 351 1073 q 271 1103 304 1073 q 238 1176 238 1133 q 271 1250 238 1219 q 351 1280 304 1280 q 429 1250 397 1280 q 462 1176 462 1219 q 429 1103 462 1133 q 351 1073 397 1073 z "},"Ɨ":{"ha":404,"x_min":-65,"x_max":466,"o":"m 339 1010 l 339 0 l 65 0 l 65 1010 l 339 1010 m -65 468 l -65 614 l 466 614 l 466 468 l -65 468 z "},"Ḭ":{"ha":404,"x_min":-49,"x_max":487,"o":"m 339 1010 l 339 0 l 65 0 l 65 1010 l 339 1010 z "},"Ì":{"ha":404,"x_min":-34,"x_max":339,"o":"m 339 1010 l 339 0 l 65 0 l 65 1010 l 339 1010 m 114 1105 l -34 1326 l 199 1326 l 294 1105 l 114 1105 z "},"Í":{"ha":404,"x_min":65,"x_max":440,"o":"m 339 1010 l 339 0 l 65 0 l 65 1010 l 339 1010 m 112 1105 l 207 1326 l 440 1326 l 292 1105 l 112 1105 z "},"Î":{"ha":404,"x_min":-118,"x_max":525,"o":"m 339 1010 l 339 0 l 65 0 l 65 1010 l 339 1010 m 107 1100 l -118 1100 l -118 1106 l 109 1331 l 298 1331 l 525 1106 l 525 1100 l 300 1100 l 203 1208 l 107 1100 z "},"Ĩ":{"ha":633,"x_min":47,"x_max":584,"o":"m 452 1010 l 452 0 l 178 0 l 178 1010 l 452 1010 m 182 1105 l 47 1105 q 96 1263 47 1211 q 215 1316 145 1315 q 280 1304 254 1316 q 327 1275 307 1292 q 364 1247 348 1259 q 399 1235 381 1235 q 439 1256 427 1235 q 452 1312 451 1276 l 584 1312 q 534 1154 582 1207 q 416 1099 485 1100 q 351 1111 378 1098 q 305 1139 324 1123 q 268 1167 285 1155 q 233 1180 252 1180 q 195 1161 209 1180 q 182 1105 182 1142 z "},"Ī":{"ha":404,"x_min":-43,"x_max":450,"o":"m 339 1010 l 339 0 l 65 0 l 65 1010 l 339 1010 m 450 1263 l 450 1138 l -43 1138 l -43 1263 l 450 1263 z "},"Ĭ":{"ha":404,"x_min":-68,"x_max":473,"o":"m 339 1010 l 339 0 l 65 0 l 65 1010 l 339 1010 m 302 1282 l 473 1282 q 400 1129 473 1186 q 203 1071 327 1071 q 5 1129 78 1071 q -67 1282 -68 1186 l 103 1282 q 125 1225 102 1251 q 203 1199 148 1199 q 279 1225 256 1199 q 302 1282 301 1250 z "},"Į":{"ha":404,"x_min":46,"x_max":359,"o":"m 339 1010 l 339 0 l 65 0 l 65 1010 l 339 1010 m 241 -274 q 125 -240 172 -274 q 59 -144 78 -206 q 49 -58 46 -102 q 69 20 52 -14 q 114 67 86 54 l 339 0 q 266 -32 291 -15 q 241 -79 240 -49 q 253 -117 240 -104 q 286 -130 266 -130 q 309 -127 299 -130 q 327 -122 318 -124 l 359 -245 q 310 -265 339 -255 q 241 -274 280 -274 z "},"İ":{"ha":404,"x_min":65,"x_max":339,"o":"m 339 1010 l 339 0 l 65 0 l 65 1010 l 339 1010 m 204 1089 q 109 1126 148 1089 q 69 1213 69 1162 q 109 1301 69 1265 q 203 1338 148 1338 q 298 1301 259 1338 q 337 1213 337 1265 q 298 1126 337 1162 q 204 1089 259 1089 z "},"Ǐ":{"ha":404,"x_min":-118,"x_max":525,"o":"m 339 1010 l 339 0 l 65 0 l 65 1010 l 339 1010 m 107 1332 l 203 1223 l 300 1332 l 525 1332 l 525 1326 l 298 1101 l 109 1101 l -118 1326 l -118 1332 l 107 1332 z "},"Ȉ":{"ha":404,"x_min":-159,"x_max":431,"o":"m 339 1010 l 339 0 l 65 0 l 65 1010 l 339 1010 m 169 1105 l -11 1105 l -159 1326 l 74 1326 l 169 1105 m 431 1105 l 256 1105 l 161 1326 l 381 1326 l 431 1105 z "},"Ȋ":{"ha":404,"x_min":-70,"x_max":473,"o":"m 339 1010 l 339 0 l 65 0 l 65 1010 l 339 1010 m -69 1128 q 3 1286 -70 1225 q 201 1347 76 1347 q 399 1286 325 1347 q 473 1128 473 1225 l 302 1128 q 278 1184 301 1160 q 201 1209 255 1209 q 125 1184 147 1209 q 103 1128 102 1160 l -69 1128 z "},"Ỉ":{"ha":404,"x_min":65,"x_max":405,"o":"m 339 1010 l 339 0 l 65 0 l 65 1010 l 339 1010 m 298 1123 l 103 1123 l 85 1199 q 160 1213 138 1201 q 182 1241 182 1225 q 156 1275 182 1268 q 89 1282 130 1282 l 95 1391 q 326 1355 247 1391 q 404 1255 405 1320 q 372 1191 405 1213 q 298 1162 339 1168 l 298 1123 z "},"Ị":{"ha":404,"x_min":65,"x_max":339,"o":"m 339 1010 l 339 0 l 65 0 l 65 1010 l 339 1010 z "},"Ι":{"ha":404,"x_min":65,"x_max":339,"o":"m 339 1010 l 339 0 l 65 0 l 65 1010 l 339 1010 z "},"Ί":{"ha":614,"x_min":0,"x_max":548,"o":"m 548 1010 l 548 0 l 274 0 l 274 1010 l 548 1010 z "},"Ϊ":{"ha":404,"x_min":-73,"x_max":479,"o":"m 339 1010 l 339 0 l 65 0 l 65 1010 l 339 1010 z "},"Ἰ":{"ha":623,"x_min":65,"x_max":564,"o":"m 564 1010 l 564 0 l 290 0 l 290 1010 l 564 1010 z "},"Ἱ":{"ha":600,"x_min":73,"x_max":541,"o":"m 541 1010 l 541 0 l 266 0 l 266 1010 l 541 1010 z "},"Ἲ":{"ha":854,"x_min":71,"x_max":795,"o":"m 795 1010 l 795 0 l 521 0 l 521 1010 l 795 1010 z "},"Ἳ":{"ha":821,"x_min":67,"x_max":762,"o":"m 762 1010 l 762 0 l 487 0 l 487 1010 l 762 1010 z "},"Ἴ":{"ha":850,"x_min":75,"x_max":791,"o":"m 791 1010 l 791 0 l 517 0 l 517 1010 l 791 1010 z "},"Ἵ":{"ha":866,"x_min":73,"x_max":807,"o":"m 807 1010 l 807 0 l 533 0 l 533 1010 l 807 1010 z "},"Ἶ":{"ha":744,"x_min":67,"x_max":685,"o":"m 685 1010 l 685 0 l 410 0 l 410 1010 l 685 1010 z "},"Ἷ":{"ha":771,"x_min":67,"x_max":712,"o":"m 712 1010 l 712 0 l 438 0 l 438 1010 l 712 1010 z "},"Ῐ":{"ha":404,"x_min":-68,"x_max":473,"o":"m 339 1010 l 339 0 l 65 0 l 65 1010 l 339 1010 m 302 1282 l 473 1282 q 400 1129 473 1186 q 203 1071 327 1071 q 5 1129 78 1071 q -67 1282 -68 1186 l 103 1282 q 125 1225 102 1251 q 203 1199 148 1199 q 279 1225 256 1199 q 302 1282 301 1250 z "},"Ῑ":{"ha":404,"x_min":-43,"x_max":450,"o":"m 339 1010 l 339 0 l 65 0 l 65 1010 l 339 1010 m 450 1263 l 450 1138 l -43 1138 l -43 1263 l 450 1263 z "},"Ὶ":{"ha":643,"x_min":71,"x_max":584,"o":"m 584 1010 l 584 0 l 310 0 l 310 1010 l 584 1010 z "},"Ί":{"ha":643,"x_min":41,"x_max":584,"o":"m 584 1010 l 584 0 l 310 0 l 310 1010 l 584 1010 z "},"І":{"ha":404,"x_min":65,"x_max":339,"o":"m 339 1010 l 339 0 l 65 0 l 65 1010 l 339 1010 z "},"Ї":{"ha":404,"x_min":-73,"x_max":479,"o":"m 339 1010 l 339 0 l 65 0 l 65 1010 l 339 1010 m 47 1099 q -38 1132 -3 1099 q -73 1213 -73 1166 q -38 1294 -73 1261 q 47 1328 -3 1328 q 131 1294 96 1328 q 166 1213 166 1261 q 131 1132 166 1166 q 47 1099 96 1099 m 361 1099 q 276 1132 311 1099 q 241 1213 241 1166 q 276 1294 241 1261 q 361 1328 311 1328 q 445 1294 410 1328 q 479 1213 479 1261 q 445 1132 479 1166 q 361 1099 410 1099 z "},"":{"ha":700,"x_min":37,"x_max":663,"o":"m 37 789 l 37 1010 l 663 1010 l 663 789 l 37 789 m 37 0 l 37 221 l 663 221 l 663 0 l 37 0 m 487 1010 l 487 0 l 213 0 l 213 1010 l 487 1010 z "},"":{"ha":700,"x_min":37,"x_max":663,"o":"m 37 789 l 37 1010 l 663 1010 l 663 789 l 37 789 m 37 0 l 37 221 l 663 221 l 663 0 l 37 0 m 487 1010 l 487 0 l 213 0 l 213 1010 l 487 1010 z "},"":{"ha":700,"x_min":37,"x_max":663,"o":"m 37 789 l 37 1010 l 663 1010 l 663 789 l 37 789 m 37 0 l 37 221 l 663 221 l 663 0 l 37 0 m 487 1010 l 487 0 l 213 0 l 213 1010 l 487 1010 m 251 1338 l 382 1528 l 605 1528 l 434 1338 l 251 1338 m 206 1073 q 126 1103 159 1073 q 93 1176 93 1133 q 126 1250 93 1219 q 206 1280 159 1280 q 284 1250 251 1280 q 316 1176 316 1219 q 284 1103 316 1133 q 206 1073 251 1073 m 499 1073 q 419 1103 452 1073 q 386 1176 386 1133 q 419 1250 386 1219 q 499 1280 452 1280 q 577 1250 545 1280 q 610 1176 610 1219 q 577 1103 610 1133 q 499 1073 545 1073 z "},"":{"ha":700,"x_min":37,"x_max":663,"o":"m 37 789 l 37 1010 l 663 1010 l 663 789 l 37 789 m 37 0 l 37 221 l 663 221 l 663 0 l 37 0 m 487 1010 l 487 0 l 213 0 l 213 1010 l 487 1010 m 83 468 l 83 614 l 614 614 l 614 468 l 83 468 z "},"":{"ha":700,"x_min":37,"x_max":663,"o":"m 37 789 l 37 1010 l 663 1010 l 663 789 l 37 789 m 37 0 l 37 221 l 663 221 l 663 0 l 37 0 m 487 1010 l 487 0 l 213 0 l 213 1010 l 487 1010 z "},"":{"ha":700,"x_min":37,"x_max":663,"o":"m 37 789 l 37 1010 l 663 1010 l 663 789 l 37 789 m 37 0 l 37 221 l 663 221 l 663 0 l 37 0 m 487 1010 l 487 0 l 213 0 l 213 1010 l 487 1010 m 262 1105 l 114 1326 l 347 1326 l 442 1105 l 262 1105 z "},"":{"ha":700,"x_min":37,"x_max":663,"o":"m 37 789 l 37 1010 l 663 1010 l 663 789 l 37 789 m 37 0 l 37 221 l 663 221 l 663 0 l 37 0 m 487 1010 l 487 0 l 213 0 l 213 1010 l 487 1010 m 260 1105 l 355 1326 l 588 1326 l 440 1105 l 260 1105 z "},"":{"ha":700,"x_min":30,"x_max":673,"o":"m 37 789 l 37 1010 l 663 1010 l 663 789 l 37 789 m 37 0 l 37 221 l 663 221 l 663 0 l 37 0 m 487 1010 l 487 0 l 213 0 l 213 1010 l 487 1010 m 254 1100 l 30 1100 l 30 1106 l 256 1331 l 446 1331 l 673 1106 l 673 1100 l 448 1100 l 351 1208 l 254 1100 z "},"":{"ha":700,"x_min":37,"x_max":663,"o":"m 37 789 l 37 1010 l 663 1010 l 663 789 l 37 789 m 37 0 l 37 221 l 663 221 l 663 0 l 37 0 m 487 1010 l 487 0 l 213 0 l 213 1010 l 487 1010 m 217 1105 l 83 1105 q 132 1263 83 1211 q 251 1316 181 1315 q 316 1304 289 1316 q 363 1275 343 1292 q 400 1247 383 1259 q 434 1235 416 1235 q 475 1256 463 1235 q 487 1312 487 1276 l 619 1312 q 569 1154 618 1207 q 452 1099 521 1100 q 386 1111 413 1098 q 340 1139 360 1123 q 304 1167 321 1155 q 268 1180 287 1180 q 231 1161 245 1180 q 217 1105 217 1142 z "},"":{"ha":700,"x_min":37,"x_max":663,"o":"m 37 789 l 37 1010 l 663 1010 l 663 789 l 37 789 m 37 0 l 37 221 l 663 221 l 663 0 l 37 0 m 487 1010 l 487 0 l 213 0 l 213 1010 l 487 1010 m 598 1263 l 598 1138 l 105 1138 l 105 1263 l 598 1263 z "},"":{"ha":700,"x_min":37,"x_max":663,"o":"m 37 789 l 37 1010 l 663 1010 l 663 789 l 37 789 m 37 0 l 37 221 l 663 221 l 663 0 l 37 0 m 487 1010 l 487 0 l 213 0 l 213 1010 l 487 1010 m 450 1282 l 621 1282 q 548 1129 621 1186 q 351 1071 475 1071 q 153 1129 226 1071 q 81 1282 80 1186 l 251 1282 q 273 1225 250 1251 q 351 1199 296 1199 q 427 1225 404 1199 q 450 1282 449 1250 z "},"":{"ha":700,"x_min":37,"x_max":683,"o":"m 37 789 l 37 1010 l 663 1010 l 663 789 l 37 789 m 37 0 l 37 221 l 663 221 l 663 0 l 37 0 m 487 1010 l 487 0 l 213 0 l 213 1010 l 487 1010 m 564 -274 q 449 -240 496 -274 q 383 -144 401 -206 q 373 -58 370 -102 q 392 20 375 -14 q 438 67 409 54 l 663 0 q 589 -32 615 -15 q 564 -79 564 -49 q 577 -117 564 -104 q 610 -130 590 -130 q 632 -127 622 -130 q 651 -122 642 -124 l 683 -245 q 633 -265 663 -255 q 564 -274 604 -274 z "},"":{"ha":700,"x_min":37,"x_max":663,"o":"m 37 789 l 37 1010 l 663 1010 l 663 789 l 37 789 m 37 0 l 37 221 l 663 221 l 663 0 l 37 0 m 487 1010 l 487 0 l 213 0 l 213 1010 l 487 1010 m 352 1089 q 256 1126 296 1089 q 217 1213 217 1162 q 256 1301 217 1265 q 351 1338 296 1338 q 446 1301 407 1338 q 485 1213 485 1265 q 446 1126 485 1162 q 352 1089 407 1089 z "},"":{"ha":700,"x_min":30,"x_max":673,"o":"m 37 789 l 37 1010 l 663 1010 l 663 789 l 37 789 m 37 0 l 37 221 l 663 221 l 663 0 l 37 0 m 487 1010 l 487 0 l 213 0 l 213 1010 l 487 1010 m 254 1332 l 351 1223 l 448 1332 l 673 1332 l 673 1326 l 446 1101 l 256 1101 l 30 1326 l 30 1332 l 254 1332 z "},"":{"ha":700,"x_min":-11,"x_max":663,"o":"m 37 789 l 37 1010 l 663 1010 l 663 789 l 37 789 m 37 0 l 37 221 l 663 221 l 663 0 l 37 0 m 487 1010 l 487 0 l 213 0 l 213 1010 l 487 1010 m 317 1105 l 137 1105 l -11 1326 l 222 1326 l 317 1105 m 579 1105 l 404 1105 l 309 1326 l 529 1326 l 579 1105 z "},"":{"ha":700,"x_min":37,"x_max":663,"o":"m 37 789 l 37 1010 l 663 1010 l 663 789 l 37 789 m 37 0 l 37 221 l 663 221 l 663 0 l 37 0 m 487 1010 l 487 0 l 213 0 l 213 1010 l 487 1010 m 79 1128 q 151 1286 78 1225 q 349 1347 224 1347 q 547 1286 473 1347 q 621 1128 621 1225 l 450 1128 q 426 1184 449 1160 q 349 1209 403 1209 q 273 1184 295 1209 q 251 1128 250 1160 l 79 1128 z "},"":{"ha":700,"x_min":37,"x_max":663,"o":"m 37 789 l 37 1010 l 663 1010 l 663 789 l 37 789 m 37 0 l 37 221 l 663 221 l 663 0 l 37 0 m 487 1010 l 487 0 l 213 0 l 213 1010 l 487 1010 m 446 1123 l 251 1123 l 233 1199 q 308 1213 286 1201 q 329 1241 330 1225 q 304 1275 330 1268 q 237 1282 278 1282 l 243 1391 q 474 1355 395 1391 q 552 1255 553 1320 q 520 1191 553 1213 q 446 1162 487 1168 l 446 1123 z "},"":{"ha":700,"x_min":37,"x_max":663,"o":"m 37 789 l 37 1010 l 663 1010 l 663 789 l 37 789 m 37 0 l 37 221 l 663 221 l 663 0 l 37 0 m 487 1010 l 487 0 l 213 0 l 213 1010 l 487 1010 z "},"":{"ha":925,"x_min":37,"x_max":888,"o":"m 262 789 l 262 1010 l 888 1010 l 888 789 l 262 789 m 262 0 l 262 221 l 888 221 l 888 0 l 262 0 m 712 1010 l 712 0 l 438 0 l 438 1010 l 712 1010 z "},"":{"ha":894,"x_min":37,"x_max":856,"o":"m 231 789 l 231 1010 l 856 1010 l 856 789 l 231 789 m 231 0 l 231 221 l 856 221 l 856 0 l 231 0 m 681 1010 l 681 0 l 406 0 l 406 1010 l 681 1010 z "},"":{"ha":1150,"x_min":37,"x_max":1113,"o":"m 487 789 l 487 1010 l 1113 1010 l 1113 789 l 487 789 m 487 0 l 487 221 l 1113 221 l 1113 0 l 487 0 m 937 1010 l 937 0 l 663 0 l 663 1010 l 937 1010 z "},"":{"ha":1121,"x_min":37,"x_max":1083,"o":"m 458 789 l 458 1010 l 1083 1010 l 1083 789 l 458 789 m 458 0 l 458 221 l 1083 221 l 1083 0 l 458 0 m 908 1010 l 908 0 l 633 0 l 633 1010 l 908 1010 z "},"":{"ha":1142,"x_min":37,"x_max":1105,"o":"m 479 789 l 479 1010 l 1105 1010 l 1105 789 l 479 789 m 479 0 l 479 221 l 1105 221 l 1105 0 l 479 0 m 929 1010 l 929 0 l 655 0 l 655 1010 l 929 1010 z "},"":{"ha":1160,"x_min":37,"x_max":1123,"o":"m 497 789 l 497 1010 l 1123 1010 l 1123 789 l 497 789 m 497 0 l 497 221 l 1123 221 l 1123 0 l 497 0 m 947 1010 l 947 0 l 673 0 l 673 1010 l 947 1010 z "},"":{"ha":1044,"x_min":37,"x_max":1006,"o":"m 381 789 l 381 1010 l 1006 1010 l 1006 789 l 381 789 m 381 0 l 381 221 l 1006 221 l 1006 0 l 381 0 m 831 1010 l 831 0 l 556 0 l 556 1010 l 831 1010 z "},"":{"ha":1071,"x_min":37,"x_max":1034,"o":"m 408 789 l 408 1010 l 1034 1010 l 1034 789 l 408 789 m 408 0 l 408 221 l 1034 221 l 1034 0 l 408 0 m 858 1010 l 858 0 l 584 0 l 584 1010 l 858 1010 z "},"":{"ha":700,"x_min":37,"x_max":663,"o":"m 37 789 l 37 1010 l 663 1010 l 663 789 l 37 789 m 37 0 l 37 221 l 663 221 l 663 0 l 37 0 m 487 1010 l 487 0 l 213 0 l 213 1010 l 487 1010 m 450 1282 l 621 1282 q 548 1129 621 1186 q 351 1071 475 1071 q 153 1129 226 1071 q 81 1282 80 1186 l 251 1282 q 273 1225 250 1251 q 351 1199 296 1199 q 427 1225 404 1199 q 450 1282 449 1250 z "},"":{"ha":700,"x_min":37,"x_max":663,"o":"m 37 789 l 37 1010 l 663 1010 l 663 789 l 37 789 m 37 0 l 37 221 l 663 221 l 663 0 l 37 0 m 487 1010 l 487 0 l 213 0 l 213 1010 l 487 1010 m 598 1263 l 598 1138 l 105 1138 l 105 1263 l 598 1263 z "},"":{"ha":939,"x_min":37,"x_max":902,"o":"m 276 789 l 276 1010 l 902 1010 l 902 789 l 276 789 m 276 0 l 276 221 l 902 221 l 902 0 l 276 0 m 726 1010 l 726 0 l 452 0 l 452 1010 l 726 1010 z "},"":{"ha":939,"x_min":8,"x_max":902,"o":"m 276 789 l 276 1010 l 902 1010 l 902 789 l 276 789 m 276 0 l 276 221 l 902 221 l 902 0 l 276 0 m 726 1010 l 726 0 l 452 0 l 452 1010 l 726 1010 z "},"":{"ha":700,"x_min":37,"x_max":663,"o":"m 37 789 l 37 1010 l 663 1010 l 663 789 l 37 789 m 37 0 l 37 221 l 663 221 l 663 0 l 37 0 m 487 1010 l 487 0 l 213 0 l 213 1010 l 487 1010 z "},"":{"ha":700,"x_min":37,"x_max":663,"o":"m 37 789 l 37 1010 l 663 1010 l 663 789 l 37 789 m 37 0 l 37 221 l 663 221 l 663 0 l 37 0 m 487 1010 l 487 0 l 213 0 l 213 1010 l 487 1010 m 195 1099 q 110 1132 145 1099 q 75 1213 75 1166 q 110 1294 75 1261 q 195 1328 145 1328 q 279 1294 244 1328 q 314 1213 314 1261 q 279 1132 314 1166 q 195 1099 244 1099 m 509 1099 q 424 1132 459 1099 q 389 1213 389 1166 q 424 1294 389 1261 q 509 1328 459 1328 q 593 1294 558 1328 q 627 1213 627 1261 q 593 1132 627 1166 q 509 1099 558 1099 z "},"J":{"ha":817,"x_min":15,"x_max":752,"o":"m 481 1010 l 752 1010 l 752 318 q 702 144 751 219 q 567 28 653 70 q 369 -14 481 -14 q 191 20 272 -14 q 63 127 111 54 q 16 316 15 199 l 290 316 q 303 252 291 278 q 336 212 315 225 q 387 199 357 199 q 438 213 417 199 q 470 252 459 226 q 481 318 481 279 l 481 1010 z "},"Ĵ":{"ha":817,"x_min":15,"x_max":937,"o":"m 481 1010 l 752 1010 l 752 318 q 702 144 751 219 q 567 28 653 70 q 369 -14 481 -14 q 191 20 272 -14 q 63 127 111 54 q 16 316 15 199 l 290 316 q 303 252 291 278 q 336 212 315 225 q 387 199 357 199 q 438 213 417 199 q 470 252 459 226 q 481 318 481 279 l 481 1010 m 519 1100 l 294 1100 l 294 1106 l 521 1331 l 710 1331 l 937 1106 l 937 1100 l 712 1100 l 616 1208 l 519 1100 z "},"Ɉ":{"ha":817,"x_min":15,"x_max":878,"o":"m 481 1010 l 752 1010 l 752 318 q 702 144 751 219 q 567 28 653 70 q 369 -14 481 -14 q 191 20 272 -14 q 63 127 111 54 q 16 316 15 199 l 290 316 q 303 252 291 278 q 336 212 315 225 q 387 199 357 199 q 438 213 417 199 q 470 252 459 226 q 481 318 481 279 l 481 1010 m 347 533 l 347 679 l 878 679 l 878 533 l 347 533 z "},"Ϳ":{"ha":817,"x_min":15,"x_max":752,"o":"m 481 1010 l 752 1010 l 752 318 q 702 144 751 219 q 567 28 653 70 q 369 -14 481 -14 q 191 20 272 -14 q 63 127 111 54 q 16 316 15 199 l 290 316 q 303 252 291 278 q 336 212 315 225 q 387 199 357 199 q 438 213 417 199 q 470 252 459 226 q 481 318 481 279 l 481 1010 z "},"Ј":{"ha":817,"x_min":15,"x_max":752,"o":"m 481 1010 l 752 1010 l 752 318 q 702 144 751 219 q 567 28 653 70 q 369 -14 481 -14 q 191 20 272 -14 q 63 127 111 54 q 16 316 15 199 l 290 316 q 303 252 291 278 q 336 212 315 225 q 387 199 357 199 q 438 213 417 199 q 470 252 459 226 q 481 318 481 279 l 481 1010 z "},"K":{"ha":992,"x_min":65,"x_max":984,"o":"m 65 0 l 65 1010 l 339 1010 l 339 602 l 353 602 l 657 1010 l 977 1010 l 635 560 l 984 0 l 657 0 l 430 379 l 339 260 l 339 0 l 65 0 z "},"Ķ":{"ha":992,"x_min":65,"x_max":984,"o":"m 65 0 l 65 1010 l 339 1010 l 339 602 l 353 602 l 657 1010 l 977 1010 l 635 560 l 984 0 l 657 0 l 430 379 l 339 260 l 339 0 l 65 0 m 305 -314 l 370 -78 l 615 -78 l 490 -314 l 305 -314 z "},"Ǩ":{"ha":992,"x_min":65,"x_max":984,"o":"m 65 0 l 65 1010 l 339 1010 l 339 602 l 353 602 l 657 1010 l 977 1010 l 635 560 l 984 0 l 657 0 l 430 379 l 339 260 l 339 0 l 65 0 m 395 1332 l 491 1223 l 588 1332 l 813 1332 l 813 1326 l 586 1101 l 397 1101 l 170 1326 l 170 1332 l 395 1332 z "},"Ḱ":{"ha":992,"x_min":65,"x_max":984,"o":"m 65 0 l 65 1010 l 339 1010 l 339 602 l 353 602 l 657 1010 l 977 1010 l 635 560 l 984 0 l 657 0 l 430 379 l 339 260 l 339 0 l 65 0 m 400 1105 l 495 1326 l 728 1326 l 580 1105 l 400 1105 z "},"Ḳ":{"ha":992,"x_min":65,"x_max":984,"o":"m 65 0 l 65 1010 l 339 1010 l 339 602 l 353 602 l 657 1010 l 977 1010 l 635 560 l 984 0 l 657 0 l 430 379 l 339 260 l 339 0 l 65 0 z "},"Ḵ":{"ha":992,"x_min":65,"x_max":984,"o":"m 65 0 l 65 1010 l 339 1010 l 339 602 l 353 602 l 657 1010 l 977 1010 l 635 560 l 984 0 l 657 0 l 430 379 l 339 260 l 339 0 l 65 0 z "},"Ҡ":{"ha":1274,"x_min":30,"x_max":1274,"o":"m 860 0 l 545 408 l 519 408 l 519 0 l 245 0 l 245 805 l 30 805 l 30 1010 l 519 1010 l 519 629 l 566 629 l 913 1010 l 1274 1010 l 811 503 l 1207 0 l 860 0 z "},"Қ":{"ha":1180,"x_min":71,"x_max":1130,"o":"m 687 0 l 371 408 l 345 408 l 345 0 l 71 0 l 71 1010 l 345 1010 l 345 629 l 393 629 l 740 1010 l 1101 1010 l 637 503 l 1034 0 l 687 0 m 1130 103 l 1130 -310 l 868 -310 l 868 103 l 1130 103 z "},"Ƙ":{"ha":1065,"x_min":65,"x_max":1057,"o":"m 65 0 l 65 1010 l 339 1010 l 339 619 l 353 619 l 639 909 q 766 999 699 971 q 906 1022 833 1028 q 1057 973 979 1016 l 977 781 q 902 790 929 803 q 842 744 874 776 l 637 537 l 1050 0 l 722 0 l 462 341 l 339 215 l 339 0 l 65 0 z "},"Κ":{"ha":992,"x_min":65,"x_max":984,"o":"m 65 0 l 65 1010 l 339 1010 l 339 602 l 353 602 l 657 1010 l 977 1010 l 635 560 l 984 0 l 657 0 l 430 379 l 339 260 l 339 0 l 65 0 z "},"L":{"ha":793,"x_min":65,"x_max":748,"o":"m 65 0 l 65 1010 l 339 1010 l 339 221 l 748 221 l 748 0 l 65 0 z "},"Ĺ":{"ha":793,"x_min":65,"x_max":748,"o":"m 65 0 l 65 1010 l 339 1010 l 339 221 l 748 221 l 748 0 l 65 0 m 109 1105 l 203 1326 l 436 1326 l 288 1105 l 109 1105 z "},"Ļ":{"ha":793,"x_min":65,"x_max":748,"o":"m 65 0 l 65 1010 l 339 1010 l 339 221 l 748 221 l 748 0 l 65 0 m 222 -316 l 287 -80 l 532 -80 l 407 -316 l 222 -316 z "},"Ľ":{"ha":793,"x_min":65,"x_max":748,"o":"m 65 0 l 65 1010 l 339 1010 l 339 221 l 748 221 l 748 0 l 65 0 m 477 802 l 477 1065 l 661 1065 l 624 802 l 477 802 z "},"Ḷ":{"ha":793,"x_min":65,"x_max":748,"o":"m 65 0 l 65 1010 l 339 1010 l 339 221 l 748 221 l 748 0 l 65 0 z "},"Ḹ":{"ha":793,"x_min":-47,"x_max":748,"o":"m 65 0 l 65 1010 l 339 1010 l 339 221 l 748 221 l 748 0 l 65 0 m 446 1263 l 446 1138 l -47 1138 l -47 1263 l 446 1263 z "},"Ḻ":{"ha":793,"x_min":65,"x_max":748,"o":"m 65 0 l 65 1010 l 339 1010 l 339 221 l 748 221 l 748 0 l 65 0 z "},"Ḽ":{"ha":793,"x_min":65,"x_max":748,"o":"m 65 0 l 65 1010 l 339 1010 l 339 221 l 748 221 l 748 0 l 65 0 z "},"Ł":{"ha":835,"x_min":14,"x_max":819,"o":"m 509 667 l 509 531 l 14 404 l 14 539 l 509 667 m 136 0 l 136 1010 l 410 1010 l 410 221 l 819 221 l 819 0 l 136 0 z "},"Ƚ":{"ha":793,"x_min":-65,"x_max":748,"o":"m 65 0 l 65 1010 l 339 1010 l 339 221 l 748 221 l 748 0 l 65 0 m -65 468 l -65 614 l 466 614 l 466 468 l -65 468 z "},"ǈ":{"ha":1203,"x_min":65,"x_max":1134,"o":"m 65 0 l 65 1010 l 339 1010 l 339 221 l 748 221 l 748 0 l 65 0 z "},"M":{"ha":1294,"x_min":65,"x_max":1229,"o":"m 65 1010 l 406 1010 l 641 438 l 653 438 l 888 1010 l 1229 1010 l 1229 0 l 961 0 l 961 584 l 953 584 l 728 8 l 566 8 l 341 588 l 333 588 l 333 0 l 65 0 l 65 1010 z "},"Ḿ":{"ha":1294,"x_min":65,"x_max":1229,"o":"m 65 1010 l 406 1010 l 641 438 l 653 438 l 888 1010 l 1229 1010 l 1229 0 l 961 0 l 961 584 l 953 584 l 728 8 l 566 8 l 341 588 l 333 588 l 333 0 l 65 0 l 65 1010 m 556 1105 l 651 1326 l 884 1326 l 736 1105 l 556 1105 z "},"Ṁ":{"ha":1294,"x_min":65,"x_max":1229,"o":"m 65 1010 l 406 1010 l 641 438 l 653 438 l 888 1010 l 1229 1010 l 1229 0 l 961 0 l 961 584 l 953 584 l 728 8 l 566 8 l 341 588 l 333 588 l 333 0 l 65 0 l 65 1010 m 648 1089 q 552 1126 592 1089 q 513 1213 513 1162 q 552 1301 513 1265 q 647 1338 592 1338 q 742 1301 703 1338 q 781 1213 781 1265 q 742 1126 781 1162 q 648 1089 703 1089 z "},"Ṃ":{"ha":1294,"x_min":65,"x_max":1229,"o":"m 65 1010 l 406 1010 l 641 438 l 653 438 l 888 1010 l 1229 1010 l 1229 0 l 961 0 l 961 584 l 953 584 l 728 8 l 566 8 l 341 588 l 333 588 l 333 0 l 65 0 l 65 1010 z "},"Ӎ":{"ha":1446,"x_min":65,"x_max":1432,"o":"m 65 1010 l 406 1010 l 641 438 l 653 438 l 888 1010 l 1229 1010 l 1229 0 l 961 0 l 961 584 l 953 584 l 728 8 l 566 8 l 341 588 l 333 588 l 333 0 l 65 0 l 65 1010 m 1430 140 l 1430 6 q 1411 -115 1432 -55 q 1353 -226 1389 -176 q 1271 -308 1316 -276 l 1150 -239 q 1184 -183 1165 -212 q 1216 -113 1202 -153 q 1229 -14 1230 -73 l 1229 140 l 1430 140 z "},"Μ":{"ha":1294,"x_min":65,"x_max":1229,"o":"m 65 1010 l 406 1010 l 641 438 l 653 438 l 888 1010 l 1229 1010 l 1229 0 l 961 0 l 961 584 l 953 584 l 728 8 l 566 8 l 341 588 l 333 588 l 333 0 l 65 0 l 65 1010 z "},"Ϻ":{"ha":1294,"x_min":65,"x_max":1229,"o":"m 65 1010 l 406 1010 l 641 438 l 653 438 l 888 1010 l 1229 1010 l 1229 0 l 961 0 l 961 584 l 953 584 l 728 8 l 566 8 l 341 588 l 333 588 l 333 0 l 65 0 l 65 1010 z "},"М":{"ha":1294,"x_min":65,"x_max":1229,"o":"m 65 1010 l 406 1010 l 641 438 l 653 438 l 888 1010 l 1229 1010 l 1229 0 l 961 0 l 961 584 l 953 584 l 728 8 l 566 8 l 341 588 l 333 588 l 333 0 l 65 0 l 65 1010 z "},"N":{"ha":1004,"x_min":65,"x_max":939,"o":"m 939 1010 l 939 0 l 710 0 l 345 531 l 339 531 l 339 0 l 65 0 l 65 1010 l 298 1010 l 657 481 l 665 481 l 665 1010 l 939 1010 z "},"Ñ":{"ha":1004,"x_min":65,"x_max":939,"o":"m 939 1010 l 939 0 l 710 0 l 345 531 l 339 531 l 339 0 l 65 0 l 65 1010 l 298 1010 l 657 481 l 665 481 l 665 1010 l 939 1010 m 369 1105 l 235 1105 q 284 1263 235 1211 q 402 1316 332 1315 q 468 1304 441 1316 q 515 1275 495 1292 q 552 1247 535 1259 q 586 1235 568 1235 q 627 1256 615 1235 q 639 1312 639 1276 l 771 1312 q 721 1154 770 1207 q 604 1099 673 1100 q 538 1111 565 1098 q 492 1139 511 1123 q 456 1167 472 1155 q 420 1180 439 1180 q 383 1161 397 1180 q 369 1105 369 1142 z "},"Ń":{"ha":1004,"x_min":65,"x_max":939,"o":"m 939 1010 l 939 0 l 710 0 l 345 531 l 339 531 l 339 0 l 65 0 l 65 1010 l 298 1010 l 657 481 l 665 481 l 665 1010 l 939 1010 m 412 1105 l 507 1326 l 740 1326 l 592 1105 l 412 1105 z "},"Ņ":{"ha":1004,"x_min":65,"x_max":939,"o":"m 939 1010 l 939 0 l 710 0 l 345 531 l 339 531 l 339 0 l 65 0 l 65 1010 l 298 1010 l 657 481 l 665 481 l 665 1010 l 939 1010 m 319 -316 l 384 -80 l 628 -80 l 504 -316 l 319 -316 z "},"Ň":{"ha":1004,"x_min":65,"x_max":939,"o":"m 939 1010 l 939 0 l 710 0 l 345 531 l 339 531 l 339 0 l 65 0 l 65 1010 l 298 1010 l 657 481 l 665 481 l 665 1010 l 939 1010 m 406 1332 l 503 1223 l 600 1332 l 825 1332 l 825 1326 l 598 1101 l 408 1101 l 182 1326 l 182 1332 l 406 1332 z "},"Ǹ":{"ha":1004,"x_min":65,"x_max":939,"o":"m 939 1010 l 939 0 l 710 0 l 345 531 l 339 531 l 339 0 l 65 0 l 65 1010 l 298 1010 l 657 481 l 665 481 l 665 1010 l 939 1010 m 414 1105 l 266 1326 l 499 1326 l 594 1105 l 414 1105 z "},"Ṅ":{"ha":1004,"x_min":65,"x_max":939,"o":"m 939 1010 l 939 0 l 710 0 l 345 531 l 339 531 l 339 0 l 65 0 l 65 1010 l 298 1010 l 657 481 l 665 481 l 665 1010 l 939 1010 m 504 1089 q 408 1126 448 1089 q 369 1213 369 1162 q 408 1301 369 1265 q 503 1338 448 1338 q 598 1301 559 1338 q 637 1213 637 1265 q 598 1126 637 1162 q 504 1089 559 1089 z "},"Ṇ":{"ha":1004,"x_min":65,"x_max":939,"o":"m 939 1010 l 939 0 l 710 0 l 345 531 l 339 531 l 339 0 l 65 0 l 65 1010 l 298 1010 l 657 481 l 665 481 l 665 1010 l 939 1010 z "},"Ṉ":{"ha":1004,"x_min":65,"x_max":939,"o":"m 939 1010 l 939 0 l 710 0 l 345 531 l 339 531 l 339 0 l 65 0 l 65 1010 l 298 1010 l 657 481 l 665 481 l 665 1010 l 939 1010 z "},"Ṋ":{"ha":1004,"x_min":65,"x_max":939,"o":"m 939 1010 l 939 0 l 710 0 l 345 531 l 339 531 l 339 0 l 65 0 l 65 1010 l 298 1010 l 657 481 l 665 481 l 665 1010 l 939 1010 z "},"Ɲ":{"ha":1040,"x_min":-47,"x_max":975,"o":"m 101 0 l 375 0 l 375 -24 q 348 -165 375 -113 q 277 -243 321 -218 q 179 -276 232 -269 q 71 -284 125 -284 q 13 -284 51 -284 q -47 -280 -26 -283 l -47 -79 q -23 -80 -36 -80 q -2 -79 -10 -79 q 68 -68 36 -79 q 101 -24 101 -58 l 101 0 m 975 1010 l 975 0 l 746 0 l 381 531 l 375 531 l 375 0 l 101 0 l 101 1010 l 333 1010 l 692 481 l 700 481 l 700 1010 l 975 1010 z "},"Ŋ":{"ha":1004,"x_min":65,"x_max":939,"o":"m 710 0 l 939 0 l 939 -14 q 896 -195 939 -130 q 771 -284 852 -259 q 578 -310 690 -310 q 538 -306 560 -310 q 495 -296 515 -302 l 495 -99 q 541 -106 515 -103 q 592 -109 566 -109 q 679 -85 647 -109 q 710 -20 710 -61 l 710 0 m 939 1010 l 939 0 l 710 0 l 345 531 l 339 531 l 339 0 l 65 0 l 65 1010 l 298 1010 l 657 481 l 665 481 l 665 1010 l 939 1010 z "},"И":{"ha":1004,"x_min":65,"x_max":939,"o":"m 65 1010 l 339 1010 l 339 481 l 347 481 l 706 1010 l 939 1010 l 939 0 l 665 0 l 665 531 l 659 531 l 294 0 l 65 0 l 65 1010 z "},"Ѝ":{"ha":1004,"x_min":65,"x_max":939,"o":"m 65 1010 l 339 1010 l 339 481 l 347 481 l 706 1010 l 939 1010 l 939 0 l 665 0 l 665 531 l 659 531 l 294 0 l 65 0 l 65 1010 m 412 1105 l 264 1326 l 497 1326 l 592 1105 l 412 1105 z "},"Й":{"ha":1004,"x_min":65,"x_max":939,"o":"m 65 1010 l 339 1010 l 339 481 l 347 481 l 706 1010 l 939 1010 l 939 0 l 665 0 l 665 531 l 659 531 l 294 0 l 65 0 l 65 1010 m 600 1282 l 771 1282 q 698 1129 771 1186 q 501 1071 625 1071 q 303 1129 376 1071 q 231 1282 230 1186 l 400 1282 q 423 1225 400 1251 q 501 1199 446 1199 q 577 1225 554 1199 q 600 1282 599 1250 z "},"Ӣ":{"ha":1004,"x_min":65,"x_max":939,"o":"m 65 1010 l 339 1010 l 339 481 l 347 481 l 706 1010 l 939 1010 l 939 0 l 665 0 l 665 531 l 659 531 l 294 0 l 65 0 l 65 1010 m 748 1263 l 748 1138 l 254 1138 l 254 1263 l 748 1263 z "},"Ӥ":{"ha":1004,"x_min":65,"x_max":939,"o":"m 65 1010 l 339 1010 l 339 481 l 347 481 l 706 1010 l 939 1010 l 939 0 l 665 0 l 665 531 l 659 531 l 294 0 l 65 0 l 65 1010 z "},"Ҋ":{"ha":1004,"x_min":65,"x_max":1136,"o":"m 65 1010 l 339 1010 l 339 481 l 347 481 l 706 1010 l 939 1010 l 939 0 l 665 0 l 665 531 l 659 531 l 294 0 l 65 0 l 65 1010 m 600 1282 l 771 1282 q 698 1129 771 1186 q 501 1071 625 1071 q 303 1129 376 1071 q 231 1282 230 1186 l 400 1282 q 423 1225 400 1251 q 501 1199 446 1199 q 577 1225 554 1199 q 600 1282 599 1250 m 1134 140 l 1134 6 q 1115 -115 1136 -55 q 1057 -226 1093 -176 q 975 -308 1020 -276 l 854 -239 q 888 -183 870 -212 q 920 -113 907 -153 q 933 -14 934 -73 l 933 140 l 1134 140 z "},"Ͷ":{"ha":1097,"x_min":110,"x_max":984,"o":"m 110 1010 l 385 1010 l 385 481 l 393 481 l 752 1010 l 984 1010 l 984 0 l 710 0 l 710 531 l 704 531 l 339 0 l 110 0 l 110 1010 z "},"Ν":{"ha":1004,"x_min":65,"x_max":939,"o":"m 939 1010 l 939 0 l 710 0 l 345 531 l 339 531 l 339 0 l 65 0 l 65 1010 l 298 1010 l 657 481 l 665 481 l 665 1010 l 939 1010 z "},"ǋ":{"ha":1367,"x_min":65,"x_max":1298,"o":"m 939 1010 l 939 0 l 710 0 l 345 531 l 339 531 l 339 0 l 65 0 l 65 1010 l 298 1010 l 657 481 l 665 481 l 665 1010 l 939 1010 z "},"O":{"ha":1105,"x_min":61,"x_max":1044,"o":"m 1044 505 q 978 221 1044 336 q 801 46 912 105 q 552 -14 690 -14 q 303 46 414 -14 q 127 222 192 106 q 61 505 61 337 q 127 789 61 674 q 303 964 192 905 q 552 1024 414 1024 q 801 964 690 1024 q 978 789 912 905 q 1044 505 1044 674 m 762 505 q 738 658 762 596 q 667 753 714 721 q 552 785 620 785 q 438 753 484 785 q 367 658 391 721 q 343 505 343 596 q 367 352 343 414 q 438 257 391 290 q 552 225 484 225 q 667 257 620 225 q 738 352 714 290 q 762 505 762 414 z "},"Ö":{"ha":1105,"x_min":61,"x_max":1044,"o":"m 1044 505 q 978 221 1044 336 q 801 46 912 105 q 552 -14 690 -14 q 303 46 414 -14 q 127 222 192 106 q 61 505 61 337 q 127 789 61 674 q 303 964 192 905 q 552 1024 414 1024 q 801 964 690 1024 q 978 789 912 905 q 1044 505 1044 674 m 762 505 q 738 658 762 596 q 667 753 714 721 q 552 785 620 785 q 438 753 484 785 q 367 658 391 721 q 343 505 343 596 q 367 352 343 414 q 438 257 391 290 q 552 225 484 225 q 667 257 620 225 q 738 352 714 290 q 762 505 762 414 z "},"Õ":{"ha":1105,"x_min":61,"x_max":1044,"o":"m 1044 505 q 978 221 1044 336 q 801 46 912 105 q 552 -14 690 -14 q 303 46 414 -14 q 127 222 192 106 q 61 505 61 337 q 127 789 61 674 q 303 964 192 905 q 552 1024 414 1024 q 801 964 690 1024 q 978 789 912 905 q 1044 505 1044 674 m 762 505 q 738 658 762 596 q 667 753 714 721 q 552 785 620 785 q 438 753 484 785 q 367 658 391 721 q 343 505 343 596 q 367 352 343 414 q 438 257 391 290 q 552 225 484 225 q 667 257 620 225 q 738 352 714 290 q 762 505 762 414 z "},"Ø":{"ha":1105,"x_min":61,"x_max":1044,"o":"m 239 -53 l 128 22 l 866 1061 l 977 986 l 239 -53 m 1044 505 q 978 221 1044 336 q 801 46 912 105 q 552 -14 690 -14 q 303 46 414 -14 q 127 222 192 106 q 61 505 61 337 q 127 789 61 674 q 303 964 192 905 q 552 1024 414 1024 q 801 964 690 1024 q 978 789 912 905 q 1044 505 1044 674 m 762 505 q 738 658 762 596 q 667 753 714 721 q 552 785 620 785 q 438 753 484 785 q 367 658 391 721 q 343 505 343 596 q 367 352 343 414 q 438 257 391 290 q 552 225 484 225 q 667 257 620 225 q 738 352 714 290 q 762 505 762 414 z "},"Ơ":{"ha":1166,"x_min":61,"x_max":1150,"o":"m 1002 1044 l 1150 1044 q 1090 808 1150 893 q 892 724 1029 724 l 892 840 q 981 894 960 840 q 1002 1044 1002 947 m 1044 505 q 978 221 1044 336 q 801 46 912 105 q 552 -14 690 -14 q 303 46 414 -14 q 127 222 192 106 q 61 505 61 337 q 127 789 61 674 q 303 964 192 905 q 552 1024 414 1024 q 801 964 690 1024 q 978 789 912 905 q 1044 505 1044 674 m 762 505 q 738 658 762 596 q 667 753 714 721 q 552 785 620 785 q 438 753 484 785 q 367 658 391 721 q 343 505 343 596 q 367 352 343 414 q 438 257 391 290 q 552 225 484 225 q 667 257 620 225 q 738 352 714 290 q 762 505 762 414 z "},"Ò":{"ha":1105,"x_min":61,"x_max":1044,"o":"m 1044 505 q 978 221 1044 336 q 801 46 912 105 q 552 -14 690 -14 q 303 46 414 -14 q 127 222 192 106 q 61 505 61 337 q 127 789 61 674 q 303 964 192 905 q 552 1024 414 1024 q 801 964 690 1024 q 978 789 912 905 q 1044 505 1044 674 m 762 505 q 738 658 762 596 q 667 753 714 721 q 552 785 620 785 q 438 753 484 785 q 367 658 391 721 q 343 505 343 596 q 367 352 343 414 q 438 257 391 290 q 552 225 484 225 q 667 257 620 225 q 738 352 714 290 q 762 505 762 414 m 464 1105 l 316 1326 l 548 1326 l 643 1105 l 464 1105 z "},"Ó":{"ha":1105,"x_min":61,"x_max":1044,"o":"m 1044 505 q 978 221 1044 336 q 801 46 912 105 q 552 -14 690 -14 q 303 46 414 -14 q 127 222 192 106 q 61 505 61 337 q 127 789 61 674 q 303 964 192 905 q 552 1024 414 1024 q 801 964 690 1024 q 978 789 912 905 q 1044 505 1044 674 m 762 505 q 738 658 762 596 q 667 753 714 721 q 552 785 620 785 q 438 753 484 785 q 367 658 391 721 q 343 505 343 596 q 367 352 343 414 q 438 257 391 290 q 552 225 484 225 q 667 257 620 225 q 738 352 714 290 q 762 505 762 414 m 462 1105 l 556 1326 l 789 1326 l 641 1105 l 462 1105 z "},"Ô":{"ha":1105,"x_min":61,"x_max":1044,"o":"m 1044 505 q 978 221 1044 336 q 801 46 912 105 q 552 -14 690 -14 q 303 46 414 -14 q 127 222 192 106 q 61 505 61 337 q 127 789 61 674 q 303 964 192 905 q 552 1024 414 1024 q 801 964 690 1024 q 978 789 912 905 q 1044 505 1044 674 m 762 505 q 738 658 762 596 q 667 753 714 721 q 552 785 620 785 q 438 753 484 785 q 367 658 391 721 q 343 505 343 596 q 367 352 343 414 q 438 257 391 290 q 552 225 484 225 q 667 257 620 225 q 738 352 714 290 q 762 505 762 414 m 456 1100 l 231 1100 l 231 1106 l 458 1331 l 647 1331 l 874 1106 l 874 1100 l 649 1100 l 552 1208 l 456 1100 z "},"Ō":{"ha":1105,"x_min":61,"x_max":1044,"o":"m 1044 505 q 978 221 1044 336 q 801 46 912 105 q 552 -14 690 -14 q 303 46 414 -14 q 127 222 192 106 q 61 505 61 337 q 127 789 61 674 q 303 964 192 905 q 552 1024 414 1024 q 801 964 690 1024 q 978 789 912 905 q 1044 505 1044 674 m 762 505 q 738 658 762 596 q 667 753 714 721 q 552 785 620 785 q 438 753 484 785 q 367 658 391 721 q 343 505 343 596 q 367 352 343 414 q 438 257 391 290 q 552 225 484 225 q 667 257 620 225 q 738 352 714 290 q 762 505 762 414 m 799 1263 l 799 1138 l 306 1138 l 306 1263 l 799 1263 z "},"Ŏ":{"ha":1105,"x_min":61,"x_max":1044,"o":"m 1044 505 q 978 221 1044 336 q 801 46 912 105 q 552 -14 690 -14 q 303 46 414 -14 q 127 222 192 106 q 61 505 61 337 q 127 789 61 674 q 303 964 192 905 q 552 1024 414 1024 q 801 964 690 1024 q 978 789 912 905 q 1044 505 1044 674 m 762 505 q 738 658 762 596 q 667 753 714 721 q 552 785 620 785 q 438 753 484 785 q 367 658 391 721 q 343 505 343 596 q 367 352 343 414 q 438 257 391 290 q 552 225 484 225 q 667 257 620 225 q 738 352 714 290 q 762 505 762 414 m 651 1282 l 823 1282 q 749 1129 822 1186 q 552 1071 676 1071 q 355 1129 428 1071 q 282 1282 282 1186 l 452 1282 q 474 1225 451 1251 q 552 1199 497 1199 q 628 1225 605 1199 q 651 1282 651 1250 z "},"Ő":{"ha":1105,"x_min":61,"x_max":1044,"o":"m 1044 505 q 978 221 1044 336 q 801 46 912 105 q 552 -14 690 -14 q 303 46 414 -14 q 127 222 192 106 q 61 505 61 337 q 127 789 61 674 q 303 964 192 905 q 552 1024 414 1024 q 801 964 690 1024 q 978 789 912 905 q 1044 505 1044 674 m 762 505 q 738 658 762 596 q 667 753 714 721 q 552 785 620 785 q 438 753 484 785 q 367 658 391 721 q 343 505 343 596 q 367 352 343 414 q 438 257 391 290 q 552 225 484 225 q 667 257 620 225 q 738 352 714 290 q 762 505 762 414 m 594 1101 l 754 1302 l 963 1302 l 773 1101 l 594 1101 m 308 1101 l 454 1302 l 663 1302 l 491 1101 l 308 1101 z "},"Ǒ":{"ha":1105,"x_min":61,"x_max":1044,"o":"m 1044 505 q 978 221 1044 336 q 801 46 912 105 q 552 -14 690 -14 q 303 46 414 -14 q 127 222 192 106 q 61 505 61 337 q 127 789 61 674 q 303 964 192 905 q 552 1024 414 1024 q 801 964 690 1024 q 978 789 912 905 q 1044 505 1044 674 m 762 505 q 738 658 762 596 q 667 753 714 721 q 552 785 620 785 q 438 753 484 785 q 367 658 391 721 q 343 505 343 596 q 367 352 343 414 q 438 257 391 290 q 552 225 484 225 q 667 257 620 225 q 738 352 714 290 q 762 505 762 414 m 456 1332 l 552 1223 l 649 1332 l 874 1332 l 874 1326 l 647 1101 l 458 1101 l 231 1326 l 231 1332 l 456 1332 z "},"Ǫ":{"ha":1105,"x_min":61,"x_max":1044,"o":"m 1044 505 q 978 221 1044 336 q 801 46 912 105 q 552 -14 690 -14 q 303 46 414 -14 q 127 222 192 106 q 61 505 61 337 q 127 789 61 674 q 303 964 192 905 q 552 1024 414 1024 q 801 964 690 1024 q 978 789 912 905 q 1044 505 1044 674 m 762 505 q 738 658 762 596 q 667 753 714 721 q 552 785 620 785 q 438 753 484 785 q 367 658 391 721 q 343 505 343 596 q 367 352 343 414 q 438 257 391 290 q 552 225 484 225 q 667 257 620 225 q 738 352 714 290 q 762 505 762 414 m 594 -270 q 478 -236 525 -270 q 412 -140 431 -202 q 402 -54 400 -98 q 422 24 405 -10 q 468 71 439 58 l 692 4 q 619 -28 645 -11 q 594 -75 593 -45 q 606 -113 593 -100 q 639 -126 619 -126 q 662 -123 652 -126 q 681 -118 671 -120 l 712 -241 q 663 -261 692 -251 q 594 -270 633 -270 z "},"Ǭ":{"ha":1105,"x_min":61,"x_max":1044,"o":"m 1044 505 q 978 221 1044 336 q 801 46 912 105 q 552 -14 690 -14 q 303 46 414 -14 q 127 222 192 106 q 61 505 61 337 q 127 789 61 674 q 303 964 192 905 q 552 1024 414 1024 q 801 964 690 1024 q 978 789 912 905 q 1044 505 1044 674 m 762 505 q 738 658 762 596 q 667 753 714 721 q 552 785 620 785 q 438 753 484 785 q 367 658 391 721 q 343 505 343 596 q 367 352 343 414 q 438 257 391 290 q 552 225 484 225 q 667 257 620 225 q 738 352 714 290 q 762 505 762 414 m 594 -270 q 478 -236 525 -270 q 412 -140 431 -202 q 402 -54 400 -98 q 422 24 405 -10 q 468 71 439 58 l 692 4 q 619 -28 645 -11 q 594 -75 593 -45 q 606 -113 593 -100 q 639 -126 619 -126 q 662 -123 652 -126 q 681 -118 671 -120 l 712 -241 q 663 -261 692 -251 q 594 -270 633 -270 m 799 1263 l 799 1138 l 306 1138 l 306 1263 l 799 1263 z "},"Ȍ":{"ha":1105,"x_min":61,"x_max":1044,"o":"m 1044 505 q 978 221 1044 336 q 801 46 912 105 q 552 -14 690 -14 q 303 46 414 -14 q 127 222 192 106 q 61 505 61 337 q 127 789 61 674 q 303 964 192 905 q 552 1024 414 1024 q 801 964 690 1024 q 978 789 912 905 q 1044 505 1044 674 m 762 505 q 738 658 762 596 q 667 753 714 721 q 552 785 620 785 q 438 753 484 785 q 367 658 391 721 q 343 505 343 596 q 367 352 343 414 q 438 257 391 290 q 552 225 484 225 q 667 257 620 225 q 738 352 714 290 q 762 505 762 414 m 518 1105 l 338 1105 l 190 1326 l 423 1326 l 518 1105 m 780 1105 l 606 1105 l 510 1326 l 730 1326 l 780 1105 z "},"Ȏ":{"ha":1105,"x_min":61,"x_max":1044,"o":"m 1044 505 q 978 221 1044 336 q 801 46 912 105 q 552 -14 690 -14 q 303 46 414 -14 q 127 222 192 106 q 61 505 61 337 q 127 789 61 674 q 303 964 192 905 q 552 1024 414 1024 q 801 964 690 1024 q 978 789 912 905 q 1044 505 1044 674 m 762 505 q 738 658 762 596 q 667 753 714 721 q 552 785 620 785 q 438 753 484 785 q 367 658 391 721 q 343 505 343 596 q 367 352 343 414 q 438 257 391 290 q 552 225 484 225 q 667 257 620 225 q 738 352 714 290 q 762 505 762 414 m 280 1128 q 353 1286 280 1225 q 550 1347 426 1347 q 748 1286 674 1347 q 823 1128 822 1225 l 651 1128 q 628 1184 651 1160 q 550 1209 605 1209 q 474 1184 497 1209 q 452 1128 451 1160 l 280 1128 z "},"Ȫ":{"ha":1105,"x_min":61,"x_max":1044,"o":"m 1044 505 q 978 221 1044 336 q 801 46 912 105 q 552 -14 690 -14 q 303 46 414 -14 q 127 222 192 106 q 61 505 61 337 q 127 789 61 674 q 303 964 192 905 q 552 1024 414 1024 q 801 964 690 1024 q 978 789 912 905 q 1044 505 1044 674 m 762 505 q 738 658 762 596 q 667 753 714 721 q 552 785 620 785 q 438 753 484 785 q 367 658 391 721 q 343 505 343 596 q 367 352 343 414 q 438 257 391 290 q 552 225 484 225 q 667 257 620 225 q 738 352 714 290 q 762 505 762 414 z "},"Ȭ":{"ha":1105,"x_min":61,"x_max":1044,"o":"m 1044 505 q 978 221 1044 336 q 801 46 912 105 q 552 -14 690 -14 q 303 46 414 -14 q 127 222 192 106 q 61 505 61 337 q 127 789 61 674 q 303 964 192 905 q 552 1024 414 1024 q 801 964 690 1024 q 978 789 912 905 q 1044 505 1044 674 m 762 505 q 738 658 762 596 q 667 753 714 721 q 552 785 620 785 q 438 753 484 785 q 367 658 391 721 q 343 505 343 596 q 367 352 343 414 q 438 257 391 290 q 552 225 484 225 q 667 257 620 225 q 738 352 714 290 q 762 505 762 414 m 665 1278 l 769 1249 q 736 1164 769 1201 q 653 1126 703 1126 q 588 1137 616 1126 q 535 1158 560 1147 q 479 1168 510 1168 q 451 1151 463 1168 q 440 1111 439 1134 l 337 1140 q 368 1225 337 1188 q 450 1263 399 1263 q 509 1252 480 1263 q 566 1232 538 1242 q 623 1221 595 1221 q 652 1238 639 1221 q 665 1278 664 1255 m 799 1466 l 799 1342 l 304 1342 l 304 1466 l 799 1466 z "},"Ȯ":{"ha":1105,"x_min":61,"x_max":1044,"o":"m 1044 505 q 978 221 1044 336 q 801 46 912 105 q 552 -14 690 -14 q 303 46 414 -14 q 127 222 192 106 q 61 505 61 337 q 127 789 61 674 q 303 964 192 905 q 552 1024 414 1024 q 801 964 690 1024 q 978 789 912 905 q 1044 505 1044 674 m 762 505 q 738 658 762 596 q 667 753 714 721 q 552 785 620 785 q 438 753 484 785 q 367 658 391 721 q 343 505 343 596 q 367 352 343 414 q 438 257 391 290 q 552 225 484 225 q 667 257 620 225 q 738 352 714 290 q 762 505 762 414 m 553 1089 q 458 1126 497 1089 q 418 1213 418 1162 q 458 1301 418 1265 q 552 1338 497 1338 q 647 1301 608 1338 q 687 1213 687 1265 q 647 1126 687 1162 q 553 1089 608 1089 z "},"Ȱ":{"ha":1105,"x_min":61,"x_max":1044,"o":"m 1044 505 q 978 221 1044 336 q 801 46 912 105 q 552 -14 690 -14 q 303 46 414 -14 q 127 222 192 106 q 61 505 61 337 q 127 789 61 674 q 303 964 192 905 q 552 1024 414 1024 q 801 964 690 1024 q 978 789 912 905 q 1044 505 1044 674 m 762 505 q 738 658 762 596 q 667 753 714 721 q 552 785 620 785 q 438 753 484 785 q 367 658 391 721 q 343 505 343 596 q 367 352 343 414 q 438 257 391 290 q 552 225 484 225 q 667 257 620 225 q 738 352 714 290 q 762 505 762 414 z "},"Ṍ":{"ha":1105,"x_min":61,"x_max":1044,"o":"m 1044 505 q 978 221 1044 336 q 801 46 912 105 q 552 -14 690 -14 q 303 46 414 -14 q 127 222 192 106 q 61 505 61 337 q 127 789 61 674 q 303 964 192 905 q 552 1024 414 1024 q 801 964 690 1024 q 978 789 912 905 q 1044 505 1044 674 m 762 505 q 738 658 762 596 q 667 753 714 721 q 552 785 620 785 q 438 753 484 785 q 367 658 391 721 q 343 505 343 596 q 367 352 343 414 q 438 257 391 290 q 552 225 484 225 q 667 257 620 225 q 738 352 714 290 q 762 505 762 414 m 444 1338 l 575 1528 l 798 1528 l 627 1338 l 444 1338 m 427 1091 l 302 1091 q 347 1232 302 1186 q 458 1278 393 1278 q 519 1268 494 1279 q 563 1243 545 1257 q 598 1217 582 1229 q 630 1207 614 1206 q 668 1225 656 1207 q 680 1275 679 1243 l 803 1275 q 757 1134 802 1182 q 647 1086 711 1087 q 585 1096 610 1086 q 542 1122 560 1107 q 508 1147 524 1136 q 475 1158 493 1158 q 440 1141 453 1158 q 427 1091 427 1124 z "},"Ṏ":{"ha":1105,"x_min":61,"x_max":1044,"o":"m 1044 505 q 978 221 1044 336 q 801 46 912 105 q 552 -14 690 -14 q 303 46 414 -14 q 127 222 192 106 q 61 505 61 337 q 127 789 61 674 q 303 964 192 905 q 552 1024 414 1024 q 801 964 690 1024 q 978 789 912 905 q 1044 505 1044 674 m 762 505 q 738 658 762 596 q 667 753 714 721 q 552 785 620 785 q 438 753 484 785 q 367 658 391 721 q 343 505 343 596 q 367 352 343 414 q 438 257 391 290 q 552 225 484 225 q 667 257 620 225 q 738 352 714 290 q 762 505 762 414 m 663 1259 l 767 1229 q 734 1144 767 1180 q 653 1107 701 1107 q 587 1117 615 1107 q 535 1138 560 1127 q 479 1148 509 1148 q 451 1131 463 1148 q 440 1091 439 1115 l 337 1121 q 368 1205 337 1168 q 450 1243 399 1243 q 509 1233 480 1243 q 566 1212 538 1222 q 623 1201 594 1201 q 651 1218 639 1201 q 663 1259 662 1235 m 300 1383 q 329 1443 299 1418 q 404 1468 360 1468 q 481 1443 450 1468 q 513 1383 512 1418 q 482 1324 512 1347 q 404 1300 451 1300 q 329 1324 360 1300 q 300 1383 299 1347 m 590 1383 q 620 1443 589 1418 q 696 1468 650 1468 q 772 1443 742 1468 q 803 1383 802 1418 q 772 1324 802 1347 q 696 1300 742 1300 q 620 1324 650 1300 q 590 1383 589 1347 z "},"Ṑ":{"ha":1105,"x_min":61,"x_max":1044,"o":"m 1044 505 q 978 221 1044 336 q 801 46 912 105 q 552 -14 690 -14 q 303 46 414 -14 q 127 222 192 106 q 61 505 61 337 q 127 789 61 674 q 303 964 192 905 q 552 1024 414 1024 q 801 964 690 1024 q 978 789 912 905 q 1044 505 1044 674 m 762 505 q 738 658 762 596 q 667 753 714 721 q 552 785 620 785 q 438 753 484 785 q 367 658 391 721 q 343 505 343 596 q 367 352 343 414 q 438 257 391 290 q 552 225 484 225 q 667 257 620 225 q 738 352 714 290 q 762 505 762 414 m 470 1338 l 299 1528 l 522 1528 l 653 1338 l 470 1338 m 799 1243 l 799 1119 l 306 1119 l 306 1243 l 799 1243 z "},"Ṓ":{"ha":1105,"x_min":61,"x_max":1044,"o":"m 1044 505 q 978 221 1044 336 q 801 46 912 105 q 552 -14 690 -14 q 303 46 414 -14 q 127 222 192 106 q 61 505 61 337 q 127 789 61 674 q 303 964 192 905 q 552 1024 414 1024 q 801 964 690 1024 q 978 789 912 905 q 1044 505 1044 674 m 762 505 q 738 658 762 596 q 667 753 714 721 q 552 785 620 785 q 438 753 484 785 q 367 658 391 721 q 343 505 343 596 q 367 352 343 414 q 438 257 391 290 q 552 225 484 225 q 667 257 620 225 q 738 352 714 290 q 762 505 762 414 m 452 1338 l 583 1528 l 806 1528 l 635 1338 l 452 1338 m 799 1243 l 799 1119 l 306 1119 l 306 1243 l 799 1243 z "},"Ọ":{"ha":1105,"x_min":61,"x_max":1044,"o":"m 1044 505 q 978 221 1044 336 q 801 46 912 105 q 552 -14 690 -14 q 303 46 414 -14 q 127 222 192 106 q 61 505 61 337 q 127 789 61 674 q 303 964 192 905 q 552 1024 414 1024 q 801 964 690 1024 q 978 789 912 905 q 1044 505 1044 674 m 762 505 q 738 658 762 596 q 667 753 714 721 q 552 785 620 785 q 438 753 484 785 q 367 658 391 721 q 343 505 343 596 q 367 352 343 414 q 438 257 391 290 q 552 225 484 225 q 667 257 620 225 q 738 352 714 290 q 762 505 762 414 z "},"Ỏ":{"ha":1105,"x_min":61,"x_max":1044,"o":"m 1044 505 q 978 221 1044 336 q 801 46 912 105 q 552 -14 690 -14 q 303 46 414 -14 q 127 222 192 106 q 61 505 61 337 q 127 789 61 674 q 303 964 192 905 q 552 1024 414 1024 q 801 964 690 1024 q 978 789 912 905 q 1044 505 1044 674 m 762 505 q 738 658 762 596 q 667 753 714 721 q 552 785 620 785 q 438 753 484 785 q 367 658 391 721 q 343 505 343 596 q 367 352 343 414 q 438 257 391 290 q 552 225 484 225 q 667 257 620 225 q 738 352 714 290 q 762 505 762 414 m 647 1123 l 452 1123 l 434 1199 q 509 1213 487 1201 q 531 1241 532 1225 q 505 1275 532 1268 q 438 1282 479 1282 l 444 1391 q 675 1355 596 1391 q 754 1255 755 1320 q 721 1191 755 1213 q 647 1162 688 1168 l 647 1123 z "},"Ố":{"ha":1105,"x_min":61,"x_max":1059,"o":"m 1044 505 q 978 221 1044 336 q 801 46 912 105 q 552 -14 690 -14 q 303 46 414 -14 q 127 222 192 106 q 61 505 61 337 q 127 789 61 674 q 303 964 192 905 q 552 1024 414 1024 q 801 964 690 1024 q 978 789 912 905 q 1044 505 1044 674 m 762 505 q 738 658 762 596 q 667 753 714 721 q 552 785 620 785 q 438 753 484 785 q 367 658 391 721 q 343 505 343 596 q 367 352 343 414 q 438 257 391 290 q 552 225 484 225 q 667 257 620 225 q 738 352 714 290 q 762 505 762 414 m 294 1085 l 491 1221 l 608 1221 l 807 1085 l 649 1085 l 550 1154 l 450 1085 l 294 1085 m 756 1150 l 884 1340 l 1059 1340 l 886 1150 l 756 1150 z "},"Ồ":{"ha":1105,"x_min":45,"x_max":1044,"o":"m 1044 505 q 978 221 1044 336 q 801 46 912 105 q 552 -14 690 -14 q 303 46 414 -14 q 127 222 192 106 q 61 505 61 337 q 127 789 61 674 q 303 964 192 905 q 552 1024 414 1024 q 801 964 690 1024 q 978 789 912 905 q 1044 505 1044 674 m 762 505 q 738 658 762 596 q 667 753 714 721 q 552 785 620 785 q 438 753 484 785 q 367 658 391 721 q 343 505 343 596 q 367 352 343 414 q 438 257 391 290 q 552 225 484 225 q 667 257 620 225 q 738 352 714 290 q 762 505 762 414 m 610 1217 l 809 1081 l 651 1081 l 552 1150 l 452 1081 l 296 1081 l 493 1217 l 610 1217 m 217 1334 l 347 1146 l 219 1146 l 45 1334 l 217 1334 z "},"Ổ":{"ha":1105,"x_min":61,"x_max":1044,"o":"m 1044 505 q 978 221 1044 336 q 801 46 912 105 q 552 -14 690 -14 q 303 46 414 -14 q 127 222 192 106 q 61 505 61 337 q 127 789 61 674 q 303 964 192 905 q 552 1024 414 1024 q 801 964 690 1024 q 978 789 912 905 q 1044 505 1044 674 m 762 505 q 738 658 762 596 q 667 753 714 721 q 552 785 620 785 q 438 753 484 785 q 367 658 391 721 q 343 505 343 596 q 367 352 343 414 q 438 257 391 290 q 552 225 484 225 q 667 257 620 225 q 738 352 714 290 q 762 505 762 414 m 606 1221 l 805 1085 l 645 1085 l 552 1146 l 456 1085 l 296 1085 l 495 1221 l 606 1221 m 866 1166 l 740 1166 l 724 1229 q 786 1240 767 1231 q 805 1263 805 1249 q 782 1291 805 1285 q 726 1298 760 1298 l 732 1387 q 897 1358 840 1387 q 955 1274 955 1329 q 927 1223 955 1242 q 866 1198 899 1203 l 866 1166 z "},"Ỗ":{"ha":1105,"x_min":61,"x_max":1044,"o":"m 1044 505 q 978 221 1044 336 q 801 46 912 105 q 552 -14 690 -14 q 303 46 414 -14 q 127 222 192 106 q 61 505 61 337 q 127 789 61 674 q 303 964 192 905 q 552 1024 414 1024 q 801 964 690 1024 q 978 789 912 905 q 1044 505 1044 674 m 762 505 q 738 658 762 596 q 667 753 714 721 q 552 785 620 785 q 438 753 484 785 q 367 658 391 721 q 343 505 343 596 q 367 352 343 414 q 438 257 391 290 q 552 225 484 225 q 667 257 620 225 q 738 352 714 290 q 762 505 762 414 m 616 1233 l 809 1091 l 649 1091 l 552 1160 l 460 1091 l 296 1091 l 491 1233 l 616 1233 m 651 1397 l 736 1365 q 715 1292 735 1325 q 655 1259 694 1259 q 612 1265 633 1259 q 572 1279 591 1271 q 535 1294 553 1288 q 499 1300 517 1300 q 481 1287 485 1300 q 477 1255 477 1274 l 395 1278 q 415 1348 394 1315 q 475 1381 435 1381 q 513 1375 493 1381 q 554 1361 533 1369 q 594 1347 575 1353 q 631 1342 614 1342 q 647 1360 643 1342 q 651 1397 651 1378 z "},"Ộ":{"ha":1105,"x_min":61,"x_max":1044,"o":"m 1044 505 q 978 221 1044 336 q 801 46 912 105 q 552 -14 690 -14 q 303 46 414 -14 q 127 222 192 106 q 61 505 61 337 q 127 789 61 674 q 303 964 192 905 q 552 1024 414 1024 q 801 964 690 1024 q 978 789 912 905 q 1044 505 1044 674 m 762 505 q 738 658 762 596 q 667 753 714 721 q 552 785 620 785 q 438 753 484 785 q 367 658 391 721 q 343 505 343 596 q 367 352 343 414 q 438 257 391 290 q 552 225 484 225 q 667 257 620 225 q 738 352 714 290 q 762 505 762 414 m 456 1100 l 231 1100 l 231 1106 l 458 1331 l 647 1331 l 874 1106 l 874 1100 l 649 1100 l 552 1208 l 456 1100 z "},"Ớ":{"ha":1166,"x_min":61,"x_max":1150,"o":"m 1002 1044 l 1150 1044 q 1090 808 1150 893 q 892 724 1029 724 l 892 840 q 981 894 960 840 q 1002 1044 1002 947 m 1044 505 q 978 221 1044 336 q 801 46 912 105 q 552 -14 690 -14 q 303 46 414 -14 q 127 222 192 106 q 61 505 61 337 q 127 789 61 674 q 303 964 192 905 q 552 1024 414 1024 q 801 964 690 1024 q 978 789 912 905 q 1044 505 1044 674 m 762 505 q 738 658 762 596 q 667 753 714 721 q 552 785 620 785 q 438 753 484 785 q 367 658 391 721 q 343 505 343 596 q 367 352 343 414 q 438 257 391 290 q 552 225 484 225 q 667 257 620 225 q 738 352 714 290 q 762 505 762 414 m 462 1105 l 556 1326 l 789 1326 l 641 1105 l 462 1105 z "},"Ờ":{"ha":1166,"x_min":61,"x_max":1150,"o":"m 1002 1044 l 1150 1044 q 1090 808 1150 893 q 892 724 1029 724 l 892 840 q 981 894 960 840 q 1002 1044 1002 947 m 1044 505 q 978 221 1044 336 q 801 46 912 105 q 552 -14 690 -14 q 303 46 414 -14 q 127 222 192 106 q 61 505 61 337 q 127 789 61 674 q 303 964 192 905 q 552 1024 414 1024 q 801 964 690 1024 q 978 789 912 905 q 1044 505 1044 674 m 762 505 q 738 658 762 596 q 667 753 714 721 q 552 785 620 785 q 438 753 484 785 q 367 658 391 721 q 343 505 343 596 q 367 352 343 414 q 438 257 391 290 q 552 225 484 225 q 667 257 620 225 q 738 352 714 290 q 762 505 762 414 m 464 1105 l 316 1326 l 548 1326 l 643 1105 l 464 1105 z "},"Ở":{"ha":1166,"x_min":61,"x_max":1150,"o":"m 1002 1044 l 1150 1044 q 1090 808 1150 893 q 892 724 1029 724 l 892 840 q 981 894 960 840 q 1002 1044 1002 947 m 1044 505 q 978 221 1044 336 q 801 46 912 105 q 552 -14 690 -14 q 303 46 414 -14 q 127 222 192 106 q 61 505 61 337 q 127 789 61 674 q 303 964 192 905 q 552 1024 414 1024 q 801 964 690 1024 q 978 789 912 905 q 1044 505 1044 674 m 762 505 q 738 658 762 596 q 667 753 714 721 q 552 785 620 785 q 438 753 484 785 q 367 658 391 721 q 343 505 343 596 q 367 352 343 414 q 438 257 391 290 q 552 225 484 225 q 667 257 620 225 q 738 352 714 290 q 762 505 762 414 m 647 1123 l 452 1123 l 434 1199 q 509 1213 487 1201 q 531 1241 532 1225 q 505 1275 532 1268 q 438 1282 479 1282 l 444 1391 q 675 1355 596 1391 q 754 1255 755 1320 q 721 1191 755 1213 q 647 1162 688 1168 l 647 1123 z "},"Ỡ":{"ha":1166,"x_min":61,"x_max":1150,"o":"m 1002 1044 l 1150 1044 q 1090 808 1150 893 q 892 724 1029 724 l 892 840 q 981 894 960 840 q 1002 1044 1002 947 m 1044 505 q 978 221 1044 336 q 801 46 912 105 q 552 -14 690 -14 q 303 46 414 -14 q 127 222 192 106 q 61 505 61 337 q 127 789 61 674 q 303 964 192 905 q 552 1024 414 1024 q 801 964 690 1024 q 978 789 912 905 q 1044 505 1044 674 m 762 505 q 738 658 762 596 q 667 753 714 721 q 552 785 620 785 q 438 753 484 785 q 367 658 391 721 q 343 505 343 596 q 367 352 343 414 q 438 257 391 290 q 552 225 484 225 q 667 257 620 225 q 738 352 714 290 q 762 505 762 414 m 418 1105 l 284 1105 q 333 1263 284 1211 q 452 1316 382 1315 q 517 1304 490 1316 q 564 1275 544 1292 q 601 1247 584 1259 q 635 1235 618 1235 q 676 1256 664 1235 q 689 1312 688 1276 l 821 1312 q 771 1154 819 1207 q 653 1099 722 1100 q 588 1111 615 1098 q 541 1139 561 1123 q 505 1167 522 1155 q 470 1180 488 1180 q 432 1161 446 1180 q 418 1105 418 1142 z "},"Ợ":{"ha":1166,"x_min":61,"x_max":1150,"o":"m 1002 1044 l 1150 1044 q 1090 808 1150 893 q 892 724 1029 724 l 892 840 q 981 894 960 840 q 1002 1044 1002 947 m 1044 505 q 978 221 1044 336 q 801 46 912 105 q 552 -14 690 -14 q 303 46 414 -14 q 127 222 192 106 q 61 505 61 337 q 127 789 61 674 q 303 964 192 905 q 552 1024 414 1024 q 801 964 690 1024 q 978 789 912 905 q 1044 505 1044 674 m 762 505 q 738 658 762 596 q 667 753 714 721 q 552 785 620 785 q 438 753 484 785 q 367 658 391 721 q 343 505 343 596 q 367 352 343 414 q 438 257 391 290 q 552 225 484 225 q 667 257 620 225 q 738 352 714 290 q 762 505 762 414 z "},"Ǿ":{"ha":1105,"x_min":61,"x_max":1044,"o":"m 239 -53 l 128 22 l 866 1061 l 977 986 l 239 -53 m 1044 505 q 978 221 1044 336 q 801 46 912 105 q 552 -14 690 -14 q 303 46 414 -14 q 127 222 192 106 q 61 505 61 337 q 127 789 61 674 q 303 964 192 905 q 552 1024 414 1024 q 801 964 690 1024 q 978 789 912 905 q 1044 505 1044 674 m 762 505 q 738 658 762 596 q 667 753 714 721 q 552 785 620 785 q 438 753 484 785 q 367 658 391 721 q 343 505 343 596 q 367 352 343 414 q 438 257 391 290 q 552 225 484 225 q 667 257 620 225 q 738 352 714 290 q 762 505 762 414 m 462 1105 l 556 1326 l 789 1326 l 641 1105 l 462 1105 z "},"Ο":{"ha":1105,"x_min":61,"x_max":1044,"o":"m 1044 505 q 978 221 1044 336 q 801 46 912 105 q 552 -14 690 -14 q 303 46 414 -14 q 127 222 192 106 q 61 505 61 337 q 127 789 61 674 q 303 964 192 905 q 552 1024 414 1024 q 801 964 690 1024 q 978 789 912 905 q 1044 505 1044 674 m 762 505 q 738 658 762 596 q 667 753 714 721 q 552 785 620 785 q 438 753 484 785 q 367 658 391 721 q 343 505 343 596 q 367 352 343 414 q 438 257 391 290 q 552 225 484 225 q 667 257 620 225 q 738 352 714 290 q 762 505 762 414 z "},"Ό":{"ha":1138,"x_min":-20,"x_max":1134,"o":"m 1134 505 q 1069 221 1134 336 q 892 46 1003 105 q 643 -14 780 -14 q 394 46 505 -14 q 217 222 283 106 q 152 505 152 337 q 217 789 152 674 q 394 964 283 905 q 643 1024 505 1024 q 892 964 780 1024 q 1069 789 1003 905 q 1134 505 1134 674 m 852 505 q 828 658 852 596 q 758 753 804 721 q 643 785 711 785 q 528 753 575 785 q 458 658 482 721 q 434 505 434 596 q 458 352 434 414 q 528 257 482 290 q 643 225 575 225 q 758 257 711 225 q 828 352 804 290 q 852 505 852 414 z "},"Ὀ":{"ha":1138,"x_min":-18,"x_max":1134,"o":"m 1134 505 q 1069 221 1134 336 q 892 46 1003 105 q 643 -14 780 -14 q 394 46 505 -14 q 217 222 283 106 q 152 505 152 337 q 217 789 152 674 q 394 964 283 905 q 643 1024 505 1024 q 892 964 780 1024 q 1069 789 1003 905 q 1134 505 1134 674 m 852 505 q 828 658 852 596 q 758 753 804 721 q 643 785 711 785 q 528 753 575 785 q 458 658 482 721 q 434 505 434 596 q 458 352 434 414 q 528 257 482 290 q 643 225 575 225 q 758 257 711 225 q 828 352 804 290 q 852 505 852 414 z "},"Ὁ":{"ha":1184,"x_min":59,"x_max":1180,"o":"m 1180 505 q 1114 221 1180 336 q 937 46 1049 105 q 689 -14 826 -14 q 439 46 550 -14 q 263 222 328 106 q 197 505 197 337 q 263 789 197 674 q 439 964 328 905 q 689 1024 550 1024 q 937 964 826 1024 q 1114 789 1049 905 q 1180 505 1180 674 m 898 505 q 874 658 898 596 q 803 753 850 721 q 689 785 757 785 q 574 753 620 785 q 503 658 527 721 q 479 505 479 596 q 503 352 479 414 q 574 257 527 290 q 689 225 620 225 q 803 257 757 225 q 874 352 850 290 q 898 505 898 414 z "},"Ὂ":{"ha":1369,"x_min":-12,"x_max":1365,"o":"m 1365 505 q 1300 221 1365 336 q 1123 46 1234 105 q 874 -14 1011 -14 q 625 46 736 -14 q 448 222 513 106 q 383 505 383 337 q 448 789 383 674 q 625 964 513 905 q 874 1024 736 1024 q 1123 964 1011 1024 q 1300 789 1234 905 q 1365 505 1365 674 m 1083 505 q 1059 658 1083 596 q 989 753 1035 721 q 874 785 942 785 q 759 753 806 785 q 689 658 713 721 q 665 505 665 596 q 689 352 665 414 q 759 257 713 290 q 874 225 806 225 q 989 257 942 225 q 1059 352 1035 290 q 1083 505 1083 414 z "},"Ὃ":{"ha":1336,"x_min":-16,"x_max":1332,"o":"m 1332 505 q 1266 221 1332 336 q 1089 46 1200 105 q 840 -14 978 -14 q 591 46 702 -14 q 415 222 480 106 q 349 505 349 337 q 415 789 349 674 q 591 964 480 905 q 840 1024 702 1024 q 1089 964 978 1024 q 1266 789 1200 905 q 1332 505 1332 674 m 1050 505 q 1026 658 1050 596 q 955 753 1002 721 q 840 785 908 785 q 726 753 772 785 q 655 658 679 721 q 631 505 631 596 q 655 352 631 414 q 726 257 679 290 q 840 225 772 225 q 955 257 908 225 q 1026 352 1002 290 q 1050 505 1050 414 z "},"Ὄ":{"ha":1284,"x_min":-8,"x_max":1280,"o":"m 1280 505 q 1215 221 1280 336 q 1038 46 1149 105 q 789 -14 926 -14 q 540 46 651 -14 q 363 222 429 106 q 298 505 298 337 q 363 789 298 674 q 540 964 429 905 q 789 1024 651 1024 q 1038 964 926 1024 q 1215 789 1149 905 q 1280 505 1280 674 m 998 505 q 974 658 998 596 q 904 753 950 721 q 789 785 857 785 q 674 753 721 785 q 604 658 628 721 q 580 505 580 596 q 604 352 580 414 q 674 257 628 290 q 789 225 721 225 q 904 257 857 225 q 974 352 950 290 q 998 505 998 414 z "},"Ὅ":{"ha":1300,"x_min":-10,"x_max":1296,"o":"m 1296 505 q 1231 221 1296 336 q 1054 46 1165 105 q 805 -14 942 -14 q 556 46 667 -14 q 379 222 444 106 q 314 505 314 337 q 379 789 314 674 q 556 964 444 905 q 805 1024 667 1024 q 1054 964 942 1024 q 1231 789 1165 905 q 1296 505 1296 674 m 1014 505 q 990 658 1014 596 q 920 753 966 721 q 805 785 873 785 q 690 753 737 785 q 620 658 644 721 q 596 505 596 596 q 620 352 596 414 q 690 257 644 290 q 805 225 737 225 q 920 257 873 225 q 990 352 966 290 q 1014 505 1014 414 z "},"Ὸ":{"ha":1158,"x_min":-12,"x_max":1154,"o":"m 1154 505 q 1089 221 1154 336 q 911 46 1023 105 q 663 -14 800 -14 q 414 46 525 -14 q 237 222 302 106 q 172 505 172 337 q 237 789 172 674 q 414 964 302 905 q 663 1024 525 1024 q 911 964 800 1024 q 1089 789 1023 905 q 1154 505 1154 674 m 872 505 q 848 658 872 596 q 778 753 824 721 q 663 785 731 785 q 548 753 595 785 q 478 658 502 721 q 454 505 454 596 q 478 352 454 414 q 548 257 502 290 q 663 225 595 225 q 778 257 731 225 q 848 352 824 290 q 872 505 872 414 z "},"ϴ":{"ha":1105,"x_min":61,"x_max":1044,"o":"m 783 588 l 783 424 q 683 398 725 402 q 611 400 642 394 q 552 417 580 406 q 494 435 525 427 q 421 442 463 443 q 322 424 380 441 l 322 588 q 421 613 380 610 q 494 611 463 617 q 552 594 525 604 q 611 576 580 583 q 683 569 642 568 q 783 588 725 571 m 1044 505 q 978 221 1044 336 q 801 46 912 105 q 552 -14 690 -14 q 303 46 414 -14 q 127 222 192 106 q 61 505 61 337 q 127 789 61 674 q 303 964 192 905 q 552 1024 414 1024 q 801 964 690 1024 q 978 789 912 905 q 1044 505 1044 674 m 762 505 q 738 658 762 596 q 667 753 714 721 q 552 785 620 785 q 438 753 484 785 q 367 658 391 721 q 343 505 343 596 q 367 352 343 414 q 438 257 391 290 q 552 225 484 225 q 667 257 620 225 q 738 352 714 290 q 762 505 762 414 z "},"Ό":{"ha":1077,"x_min":14,"x_max":1073,"o":"m 1073 505 q 1008 221 1073 336 q 831 46 942 105 q 582 -14 719 -14 q 333 46 444 -14 q 156 222 221 106 q 91 505 91 337 q 156 789 91 674 q 333 964 221 905 q 582 1024 444 1024 q 831 964 719 1024 q 1008 789 942 905 q 1073 505 1073 674 m 791 505 q 767 658 791 596 q 697 753 743 721 q 582 785 650 785 q 467 753 514 785 q 397 658 421 721 q 373 505 373 596 q 397 352 373 414 q 467 257 421 290 q 582 225 514 225 q 697 257 650 225 q 767 352 743 290 q 791 505 791 414 z "},"О":{"ha":1105,"x_min":61,"x_max":1044,"o":"m 1044 505 q 978 221 1044 336 q 801 46 912 105 q 552 -14 690 -14 q 303 46 414 -14 q 127 222 192 106 q 61 505 61 337 q 127 789 61 674 q 303 964 192 905 q 552 1024 414 1024 q 801 964 690 1024 q 978 789 912 905 q 1044 505 1044 674 m 762 505 q 738 658 762 596 q 667 753 714 721 q 552 785 620 785 q 438 753 484 785 q 367 658 391 721 q 343 505 343 596 q 367 352 343 414 q 438 257 391 290 q 552 225 484 225 q 667 257 620 225 q 738 352 714 290 q 762 505 762 414 z "},"Ӧ":{"ha":1105,"x_min":61,"x_max":1044,"o":"m 1044 505 q 978 221 1044 336 q 801 46 912 105 q 552 -14 690 -14 q 303 46 414 -14 q 127 222 192 106 q 61 505 61 337 q 127 789 61 674 q 303 964 192 905 q 552 1024 414 1024 q 801 964 690 1024 q 978 789 912 905 q 1044 505 1044 674 m 762 505 q 738 658 762 596 q 667 753 714 721 q 552 785 620 785 q 438 753 484 785 q 367 658 391 721 q 343 505 343 596 q 367 352 343 414 q 438 257 391 290 q 552 225 484 225 q 667 257 620 225 q 738 352 714 290 q 762 505 762 414 z "},"Ɵ":{"ha":1105,"x_min":61,"x_max":1044,"o":"m 783 588 l 783 424 q 683 398 725 402 q 611 400 642 394 q 552 417 580 406 q 494 435 525 427 q 421 442 463 443 q 322 424 380 441 l 322 588 q 421 613 380 610 q 494 611 463 617 q 552 594 525 604 q 611 576 580 583 q 683 569 642 568 q 783 588 725 571 m 1044 505 q 978 221 1044 336 q 801 46 912 105 q 552 -14 690 -14 q 303 46 414 -14 q 127 222 192 106 q 61 505 61 337 q 127 789 61 674 q 303 964 192 905 q 552 1024 414 1024 q 801 964 690 1024 q 978 789 912 905 q 1044 505 1044 674 m 762 505 q 738 658 762 596 q 667 753 714 721 q 552 785 620 785 q 438 753 484 785 q 367 658 391 721 q 343 505 343 596 q 367 352 343 414 q 438 257 391 290 q 552 225 484 225 q 667 257 620 225 q 738 352 714 290 q 762 505 762 414 z "},"Ө":{"ha":1105,"x_min":61,"x_max":1044,"o":"m 783 588 l 783 424 q 683 398 725 402 q 611 400 642 394 q 552 417 580 406 q 494 435 525 427 q 421 442 463 443 q 322 424 380 441 l 322 588 q 421 613 380 610 q 494 611 463 617 q 552 594 525 604 q 611 576 580 583 q 683 569 642 568 q 783 588 725 571 m 1044 505 q 978 221 1044 336 q 801 46 912 105 q 552 -14 690 -14 q 303 46 414 -14 q 127 222 192 106 q 61 505 61 337 q 127 789 61 674 q 303 964 192 905 q 552 1024 414 1024 q 801 964 690 1024 q 978 789 912 905 q 1044 505 1044 674 m 762 505 q 738 658 762 596 q 667 753 714 721 q 552 785 620 785 q 438 753 484 785 q 367 658 391 721 q 343 505 343 596 q 367 352 343 414 q 438 257 391 290 q 552 225 484 225 q 667 257 620 225 q 738 352 714 290 q 762 505 762 414 z "},"Ӫ":{"ha":1105,"x_min":61,"x_max":1044,"o":"m 783 588 l 783 424 q 683 398 725 402 q 611 400 642 394 q 552 417 580 406 q 494 435 525 427 q 421 442 463 443 q 322 424 380 441 l 322 588 q 421 613 380 610 q 494 611 463 617 q 552 594 525 604 q 611 576 580 583 q 683 569 642 568 q 783 588 725 571 m 1044 505 q 978 221 1044 336 q 801 46 912 105 q 552 -14 690 -14 q 303 46 414 -14 q 127 222 192 106 q 61 505 61 337 q 127 789 61 674 q 303 964 192 905 q 552 1024 414 1024 q 801 964 690 1024 q 978 789 912 905 q 1044 505 1044 674 m 762 505 q 738 658 762 596 q 667 753 714 721 q 552 785 620 785 q 438 753 484 785 q 367 658 391 721 q 343 505 343 596 q 367 352 343 414 q 438 257 391 290 q 552 225 484 225 q 667 257 620 225 q 738 352 714 290 q 762 505 762 414 z "},"Œ":{"ha":1474,"x_min":61,"x_max":1403,"o":"m 529 0 q 292 54 399 0 q 124 220 186 109 q 61 503 61 331 q 124 788 61 676 q 292 955 186 901 q 529 1010 399 1010 l 1403 1010 l 1403 789 l 949 789 l 949 616 l 1365 616 l 1365 395 l 949 395 l 949 221 l 1401 221 l 1401 0 l 529 0 m 675 221 l 675 789 l 529 789 q 432 764 474 789 q 364 676 389 738 q 339 503 339 614 q 364 330 339 392 q 432 245 389 269 q 529 221 474 221 l 675 221 z "},"P":{"ha":911,"x_min":65,"x_max":876,"o":"m 65 0 l 65 1010 l 501 1010 q 698 966 614 1010 q 829 841 782 921 q 876 653 876 761 q 828 465 876 545 q 693 343 780 386 q 491 300 607 300 l 231 300 l 231 513 l 436 513 q 519 530 484 513 q 571 579 553 547 q 590 653 590 610 q 571 727 590 696 q 519 775 553 758 q 436 791 484 791 l 339 791 l 339 0 l 65 0 z "},"Ṕ":{"ha":911,"x_min":65,"x_max":876,"o":"m 65 0 l 65 1010 l 501 1010 q 698 966 614 1010 q 829 841 782 921 q 876 653 876 761 q 828 465 876 545 q 693 343 780 386 q 491 300 607 300 l 231 300 l 231 513 l 436 513 q 519 530 484 513 q 571 579 553 547 q 590 653 590 610 q 571 727 590 696 q 519 775 553 758 q 436 791 484 791 l 339 791 l 339 0 l 65 0 m 355 1105 l 450 1326 l 683 1326 l 535 1105 l 355 1105 z "},"Ṗ":{"ha":911,"x_min":65,"x_max":876,"o":"m 65 0 l 65 1010 l 501 1010 q 698 966 614 1010 q 829 841 782 921 q 876 653 876 761 q 828 465 876 545 q 693 343 780 386 q 491 300 607 300 l 231 300 l 231 513 l 436 513 q 519 530 484 513 q 571 579 553 547 q 590 653 590 610 q 571 727 590 696 q 519 775 553 758 q 436 791 484 791 l 339 791 l 339 0 l 65 0 m 446 1089 q 351 1126 391 1089 q 312 1213 312 1162 q 351 1301 312 1265 q 446 1338 391 1338 q 541 1301 502 1338 q 580 1213 580 1265 q 541 1126 580 1162 q 446 1089 502 1089 z "},"Ҏ":{"ha":943,"x_min":73,"x_max":884,"o":"m 485 673 l 765 239 l 677 182 l 397 616 l 485 673 m 73 0 l 73 1010 l 509 1010 q 706 966 621 1010 q 837 841 790 921 q 884 653 884 761 q 836 465 884 545 q 701 343 788 386 q 499 300 615 300 l 239 300 l 239 513 l 444 513 q 527 530 492 513 q 579 579 561 547 q 598 653 598 610 q 579 727 598 696 q 527 775 561 758 q 444 791 492 791 l 347 791 l 347 0 l 73 0 z "},"Ƥ":{"ha":1247,"x_min":37,"x_max":1211,"o":"m 278 590 l 37 590 l 37 710 q 80 873 37 806 q 200 975 122 940 q 385 1010 279 1010 l 836 1010 q 1033 966 949 1010 q 1164 841 1118 921 q 1211 653 1211 761 q 1163 465 1211 545 q 1029 343 1115 386 q 827 300 942 300 l 675 300 l 675 0 l 400 0 l 400 791 l 385 791 q 319 771 343 791 q 287 722 296 752 q 278 663 278 692 l 278 590 m 675 513 l 771 513 q 854 530 820 513 q 907 579 888 547 q 925 653 925 610 q 907 727 925 696 q 854 775 888 758 q 771 791 820 791 l 675 791 l 675 513 z "},"Ρ":{"ha":911,"x_min":65,"x_max":876,"o":"m 65 0 l 65 1010 l 501 1010 q 698 966 614 1010 q 829 841 782 921 q 876 653 876 761 q 828 465 876 545 q 693 343 780 386 q 491 300 607 300 l 231 300 l 231 513 l 436 513 q 519 530 484 513 q 571 579 553 547 q 590 653 590 610 q 571 727 590 696 q 519 775 553 758 q 436 791 484 791 l 339 791 l 339 0 l 65 0 z "},"Ῥ":{"ha":1154,"x_min":73,"x_max":1091,"o":"m 280 0 l 280 1010 l 716 1010 q 913 966 829 1010 q 1044 841 997 921 q 1091 653 1091 761 q 1043 465 1091 545 q 908 343 995 386 q 706 300 822 300 l 446 300 l 446 513 l 651 513 q 734 530 699 513 q 786 579 768 547 q 805 653 805 610 q 786 727 805 696 q 734 775 768 758 q 651 791 699 791 l 554 791 l 554 0 l 280 0 z "},"Q":{"ha":1107,"x_min":61,"x_max":1046,"o":"m 456 375 l 669 375 l 746 278 l 876 130 l 1046 -75 l 803 -75 l 683 65 l 602 182 l 456 375 m 1044 505 q 978 221 1044 336 q 801 46 912 105 q 552 -14 690 -14 q 303 46 414 -14 q 127 222 192 106 q 61 505 61 337 q 127 789 61 674 q 303 964 192 905 q 552 1024 414 1024 q 801 964 690 1024 q 978 789 912 905 q 1044 505 1044 674 m 762 505 q 738 658 762 596 q 667 753 714 721 q 552 785 620 785 q 438 753 484 785 q 367 658 391 721 q 343 505 343 596 q 367 352 343 414 q 438 257 391 290 q 552 225 484 225 q 667 257 620 225 q 738 352 714 290 q 762 505 762 414 z "},"R":{"ha":927,"x_min":65,"x_max":909,"o":"m 65 0 l 65 1010 l 501 1010 q 698 969 614 1010 q 829 851 782 928 q 876 667 876 774 q 828 484 876 558 q 693 371 780 409 q 491 333 607 333 l 231 333 l 231 546 l 436 546 q 519 559 484 546 q 571 597 553 571 q 590 667 590 624 q 571 738 590 710 q 519 778 553 765 q 436 791 484 791 l 339 791 l 339 0 l 65 0 m 657 464 l 909 0 l 612 0 l 365 464 l 657 464 z "},"Ŕ":{"ha":927,"x_min":65,"x_max":909,"o":"m 65 0 l 65 1010 l 501 1010 q 698 969 614 1010 q 829 851 782 928 q 876 667 876 774 q 828 484 876 558 q 693 371 780 409 q 491 333 607 333 l 231 333 l 231 546 l 436 546 q 519 559 484 546 q 571 597 553 571 q 590 667 590 624 q 571 738 590 710 q 519 778 553 765 q 436 791 484 791 l 339 791 l 339 0 l 65 0 m 657 464 l 909 0 l 612 0 l 365 464 l 657 464 m 367 1105 l 462 1326 l 694 1326 l 546 1105 l 367 1105 z "},"Ŗ":{"ha":927,"x_min":65,"x_max":909,"o":"m 65 0 l 65 1010 l 501 1010 q 698 969 614 1010 q 829 851 782 928 q 876 667 876 774 q 828 484 876 558 q 693 371 780 409 q 491 333 607 333 l 231 333 l 231 546 l 436 546 q 519 559 484 546 q 571 597 553 571 q 590 667 590 624 q 571 738 590 710 q 519 778 553 765 q 436 791 484 791 l 339 791 l 339 0 l 65 0 m 657 464 l 909 0 l 612 0 l 365 464 l 657 464 m 289 -316 l 354 -80 l 599 -80 l 474 -316 l 289 -316 z "},"Ř":{"ha":927,"x_min":65,"x_max":909,"o":"m 65 0 l 65 1010 l 501 1010 q 698 969 614 1010 q 829 851 782 928 q 876 667 876 774 q 828 484 876 558 q 693 371 780 409 q 491 333 607 333 l 231 333 l 231 546 l 436 546 q 519 559 484 546 q 571 597 553 571 q 590 667 590 624 q 571 738 590 710 q 519 778 553 765 q 436 791 484 791 l 339 791 l 339 0 l 65 0 m 657 464 l 909 0 l 612 0 l 365 464 l 657 464 m 361 1332 l 458 1223 l 554 1332 l 779 1332 l 779 1326 l 552 1101 l 363 1101 l 136 1326 l 136 1332 l 361 1332 z "},"Ȑ":{"ha":927,"x_min":65,"x_max":909,"o":"m 65 0 l 65 1010 l 501 1010 q 698 969 614 1010 q 829 851 782 928 q 876 667 876 774 q 828 484 876 558 q 693 371 780 409 q 491 333 607 333 l 231 333 l 231 546 l 436 546 q 519 559 484 546 q 571 597 553 571 q 590 667 590 624 q 571 738 590 710 q 519 778 553 765 q 436 791 484 791 l 339 791 l 339 0 l 65 0 m 657 464 l 909 0 l 612 0 l 365 464 l 657 464 m 423 1105 l 244 1105 l 96 1326 l 328 1326 l 423 1105 m 686 1105 l 511 1105 l 415 1326 l 635 1326 l 686 1105 z "},"Ȓ":{"ha":927,"x_min":65,"x_max":909,"o":"m 65 0 l 65 1010 l 501 1010 q 698 969 614 1010 q 829 851 782 928 q 876 667 876 774 q 828 484 876 558 q 693 371 780 409 q 491 333 607 333 l 231 333 l 231 546 l 436 546 q 519 559 484 546 q 571 597 553 571 q 590 667 590 624 q 571 738 590 710 q 519 778 553 765 q 436 791 484 791 l 339 791 l 339 0 l 65 0 m 657 464 l 909 0 l 612 0 l 365 464 l 657 464 m 185 1128 q 258 1286 185 1225 q 456 1347 331 1347 q 654 1286 580 1347 q 728 1128 727 1225 l 556 1128 q 533 1184 556 1160 q 456 1209 510 1209 q 379 1184 402 1209 q 357 1128 357 1160 l 185 1128 z "},"Ṙ":{"ha":927,"x_min":65,"x_max":909,"o":"m 65 0 l 65 1010 l 501 1010 q 698 969 614 1010 q 829 851 782 928 q 876 667 876 774 q 828 484 876 558 q 693 371 780 409 q 491 333 607 333 l 231 333 l 231 546 l 436 546 q 519 559 484 546 q 571 597 553 571 q 590 667 590 624 q 571 738 590 710 q 519 778 553 765 q 436 791 484 791 l 339 791 l 339 0 l 65 0 m 657 464 l 909 0 l 612 0 l 365 464 l 657 464 m 458 1089 q 363 1126 402 1089 q 324 1213 324 1162 q 363 1301 324 1265 q 458 1338 402 1338 q 553 1301 513 1338 q 592 1213 592 1265 q 553 1126 592 1162 q 458 1089 513 1089 z "},"Ṛ":{"ha":927,"x_min":65,"x_max":909,"o":"m 65 0 l 65 1010 l 501 1010 q 698 969 614 1010 q 829 851 782 928 q 876 667 876 774 q 828 484 876 558 q 693 371 780 409 q 491 333 607 333 l 231 333 l 231 546 l 436 546 q 519 559 484 546 q 571 597 553 571 q 590 667 590 624 q 571 738 590 710 q 519 778 553 765 q 436 791 484 791 l 339 791 l 339 0 l 65 0 m 657 464 l 909 0 l 612 0 l 365 464 l 657 464 z "},"Ṝ":{"ha":927,"x_min":65,"x_max":909,"o":"m 65 0 l 65 1010 l 501 1010 q 698 969 614 1010 q 829 851 782 928 q 876 667 876 774 q 828 484 876 558 q 693 371 780 409 q 491 333 607 333 l 231 333 l 231 546 l 436 546 q 519 559 484 546 q 571 597 553 571 q 590 667 590 624 q 571 738 590 710 q 519 778 553 765 q 436 791 484 791 l 339 791 l 339 0 l 65 0 m 657 464 l 909 0 l 612 0 l 365 464 l 657 464 m 704 1263 l 704 1138 l 211 1138 l 211 1263 l 704 1263 z "},"Ṟ":{"ha":927,"x_min":65,"x_max":909,"o":"m 65 0 l 65 1010 l 501 1010 q 698 969 614 1010 q 829 851 782 928 q 876 667 876 774 q 828 484 876 558 q 693 371 780 409 q 491 333 607 333 l 231 333 l 231 546 l 436 546 q 519 559 484 546 q 571 597 553 571 q 590 667 590 624 q 571 738 590 710 q 519 778 553 765 q 436 791 484 791 l 339 791 l 339 0 l 65 0 m 657 464 l 909 0 l 612 0 l 365 464 l 657 464 z "},"℟":{"ha":941,"x_min":71,"x_max":915,"o":"m 633 1158 l 389 -254 l 308 -247 l 546 1103 l 327 1146 l 345 1219 l 633 1158 m 71 0 l 71 1010 l 507 1010 q 704 969 619 1010 q 835 851 788 928 q 882 667 882 774 q 834 484 882 558 q 699 371 786 409 q 497 333 613 333 l 237 333 l 237 546 l 442 546 q 525 559 490 546 q 577 597 559 571 q 596 667 596 624 q 577 738 596 710 q 525 778 559 765 q 442 791 490 791 l 345 791 l 345 0 l 71 0 m 663 464 l 915 0 l 618 0 l 371 464 l 663 464 z "},"℞":{"ha":1140,"x_min":65,"x_max":1067,"o":"m 65 1010 l 489 1010 q 700 974 614 1010 q 833 868 787 939 q 878 692 878 797 q 848 550 878 610 q 769 451 818 491 q 663 387 720 411 l 612 363 l 231 363 l 229 580 l 493 580 q 547 590 521 580 q 589 622 573 599 q 606 685 606 645 q 588 749 606 726 q 544 780 571 771 q 489 789 517 789 l 339 789 l 339 0 l 65 0 l 65 1010 m 854 0 l 519 466 l 728 466 l 1067 0 l 854 0 m 692 0 l 537 0 l 876 466 l 1026 466 l 692 0 z "},"Ɍ":{"ha":965,"x_min":8,"x_max":939,"o":"m 258 357 l 8 357 l 8 550 l 258 550 l 258 357 m 95 0 l 95 1010 l 531 1010 q 727 969 643 1010 q 859 851 812 928 q 906 667 906 774 q 857 484 906 558 q 723 371 809 409 q 521 333 636 333 l 260 333 l 260 546 l 466 546 q 548 559 514 546 q 601 597 582 571 q 619 667 619 624 q 601 738 619 710 q 548 778 582 765 q 466 791 514 791 l 369 791 l 369 0 l 95 0 m 687 464 l 939 0 l 641 0 l 395 464 l 687 464 z "},"S":{"ha":925,"x_min":39,"x_max":886,"o":"m 610 694 q 573 771 606 744 q 473 799 540 799 q 404 789 431 799 q 364 762 377 779 q 351 722 352 744 q 358 689 350 704 q 382 663 365 675 q 425 642 399 652 q 487 625 451 633 l 570 608 q 714 561 654 590 q 811 492 773 532 q 867 404 849 453 q 886 298 885 356 q 836 129 885 198 q 695 24 787 60 q 475 -12 604 -12 q 246 27 344 -12 q 94 147 148 66 q 39 355 40 228 l 300 355 q 323 277 302 309 q 382 229 344 246 q 472 213 419 213 q 545 224 515 213 q 590 254 575 235 q 606 298 605 273 q 591 339 605 321 q 543 370 576 356 q 454 397 510 384 l 353 418 q 142 516 219 447 q 65 702 65 584 q 117 871 65 799 q 261 983 169 943 q 473 1024 354 1024 q 685 983 596 1024 q 823 868 774 942 q 872 694 872 794 l 610 694 z "},"Ś":{"ha":925,"x_min":39,"x_max":886,"o":"m 610 694 q 573 771 606 744 q 473 799 540 799 q 404 789 431 799 q 364 762 377 779 q 351 722 352 744 q 358 689 350 704 q 382 663 365 675 q 425 642 399 652 q 487 625 451 633 l 570 608 q 714 561 654 590 q 811 492 773 532 q 867 404 849 453 q 886 298 885 356 q 836 129 885 198 q 695 24 787 60 q 475 -12 604 -12 q 246 27 344 -12 q 94 147 148 66 q 39 355 40 228 l 300 355 q 323 277 302 309 q 382 229 344 246 q 472 213 419 213 q 545 224 515 213 q 590 254 575 235 q 606 298 605 273 q 591 339 605 321 q 543 370 576 356 q 454 397 510 384 l 353 418 q 142 516 219 447 q 65 702 65 584 q 117 871 65 799 q 261 983 169 943 q 473 1024 354 1024 q 685 983 596 1024 q 823 868 774 942 q 872 694 872 794 l 610 694 m 373 1105 l 468 1326 l 700 1326 l 552 1105 l 373 1105 z "},"Ŝ":{"ha":925,"x_min":39,"x_max":886,"o":"m 610 694 q 573 771 606 744 q 473 799 540 799 q 404 789 431 799 q 364 762 377 779 q 351 722 352 744 q 358 689 350 704 q 382 663 365 675 q 425 642 399 652 q 487 625 451 633 l 570 608 q 714 561 654 590 q 811 492 773 532 q 867 404 849 453 q 886 298 885 356 q 836 129 885 198 q 695 24 787 60 q 475 -12 604 -12 q 246 27 344 -12 q 94 147 148 66 q 39 355 40 228 l 300 355 q 323 277 302 309 q 382 229 344 246 q 472 213 419 213 q 545 224 515 213 q 590 254 575 235 q 606 298 605 273 q 591 339 605 321 q 543 370 576 356 q 454 397 510 384 l 353 418 q 142 516 219 447 q 65 702 65 584 q 117 871 65 799 q 261 983 169 943 q 473 1024 354 1024 q 685 983 596 1024 q 823 868 774 942 q 872 694 872 794 l 610 694 m 367 1100 l 142 1100 l 142 1106 l 369 1331 l 558 1331 l 785 1106 l 785 1100 l 560 1100 l 464 1208 l 367 1100 z "},"Ş":{"ha":925,"x_min":39,"x_max":886,"o":"m 610 694 q 573 771 606 744 q 473 799 540 799 q 404 789 431 799 q 364 762 377 779 q 351 722 352 744 q 358 689 350 704 q 382 663 365 675 q 425 642 399 652 q 487 625 451 633 l 570 608 q 714 561 654 590 q 811 492 773 532 q 867 404 849 453 q 886 298 885 356 q 836 129 885 198 q 695 24 787 60 q 475 -12 604 -12 q 246 27 344 -12 q 94 147 148 66 q 39 355 40 228 l 300 355 q 323 277 302 309 q 382 229 344 246 q 472 213 419 213 q 545 224 515 213 q 590 254 575 235 q 606 298 605 273 q 591 339 605 321 q 543 370 576 356 q 454 397 510 384 l 353 418 q 142 516 219 447 q 65 702 65 584 q 117 871 65 799 q 261 983 169 943 q 473 1024 354 1024 q 685 983 596 1024 q 823 868 774 942 q 872 694 872 794 l 610 694 m 418 4 l 515 4 l 507 -41 q 598 -83 566 -50 q 631 -164 631 -115 q 553 -290 632 -244 q 335 -335 474 -335 l 335 -231 q 447 -215 408 -231 q 487 -170 485 -200 q 466 -124 489 -142 q 395 -99 442 -106 l 418 4 z "},"Š":{"ha":925,"x_min":39,"x_max":886,"o":"m 610 694 q 573 771 606 744 q 473 799 540 799 q 404 789 431 799 q 364 762 377 779 q 351 722 352 744 q 358 689 350 704 q 382 663 365 675 q 425 642 399 652 q 487 625 451 633 l 570 608 q 714 561 654 590 q 811 492 773 532 q 867 404 849 453 q 886 298 885 356 q 836 129 885 198 q 695 24 787 60 q 475 -12 604 -12 q 246 27 344 -12 q 94 147 148 66 q 39 355 40 228 l 300 355 q 323 277 302 309 q 382 229 344 246 q 472 213 419 213 q 545 224 515 213 q 590 254 575 235 q 606 298 605 273 q 591 339 605 321 q 543 370 576 356 q 454 397 510 384 l 353 418 q 142 516 219 447 q 65 702 65 584 q 117 871 65 799 q 261 983 169 943 q 473 1024 354 1024 q 685 983 596 1024 q 823 868 774 942 q 872 694 872 794 l 610 694 m 367 1332 l 464 1223 l 560 1332 l 785 1332 l 785 1326 l 558 1101 l 369 1101 l 142 1326 l 142 1332 l 367 1332 z "},"Ș":{"ha":925,"x_min":39,"x_max":886,"o":"m 610 694 q 573 771 606 744 q 473 799 540 799 q 404 789 431 799 q 364 762 377 779 q 351 722 352 744 q 358 689 350 704 q 382 663 365 675 q 425 642 399 652 q 487 625 451 633 l 570 608 q 714 561 654 590 q 811 492 773 532 q 867 404 849 453 q 886 298 885 356 q 836 129 885 198 q 695 24 787 60 q 475 -12 604 -12 q 246 27 344 -12 q 94 147 148 66 q 39 355 40 228 l 300 355 q 323 277 302 309 q 382 229 344 246 q 472 213 419 213 q 545 224 515 213 q 590 254 575 235 q 606 298 605 273 q 591 339 605 321 q 543 370 576 356 q 454 397 510 384 l 353 418 q 142 516 219 447 q 65 702 65 584 q 117 871 65 799 q 261 983 169 943 q 473 1024 354 1024 q 685 983 596 1024 q 823 868 774 942 q 872 694 872 794 l 610 694 m 283 -316 l 348 -80 l 593 -80 l 469 -316 l 283 -316 z "},"Ṡ":{"ha":925,"x_min":39,"x_max":886,"o":"m 610 694 q 573 771 606 744 q 473 799 540 799 q 404 789 431 799 q 364 762 377 779 q 351 722 352 744 q 358 689 350 704 q 382 663 365 675 q 425 642 399 652 q 487 625 451 633 l 570 608 q 714 561 654 590 q 811 492 773 532 q 867 404 849 453 q 886 298 885 356 q 836 129 885 198 q 695 24 787 60 q 475 -12 604 -12 q 246 27 344 -12 q 94 147 148 66 q 39 355 40 228 l 300 355 q 323 277 302 309 q 382 229 344 246 q 472 213 419 213 q 545 224 515 213 q 590 254 575 235 q 606 298 605 273 q 591 339 605 321 q 543 370 576 356 q 454 397 510 384 l 353 418 q 142 516 219 447 q 65 702 65 584 q 117 871 65 799 q 261 983 169 943 q 473 1024 354 1024 q 685 983 596 1024 q 823 868 774 942 q 872 694 872 794 l 610 694 m 464 1089 q 369 1126 408 1089 q 329 1213 329 1162 q 369 1301 329 1265 q 464 1338 408 1338 q 559 1301 519 1338 q 598 1213 598 1265 q 559 1126 598 1162 q 464 1089 519 1089 z "},"Ṣ":{"ha":925,"x_min":39,"x_max":886,"o":"m 610 694 q 573 771 606 744 q 473 799 540 799 q 404 789 431 799 q 364 762 377 779 q 351 722 352 744 q 358 689 350 704 q 382 663 365 675 q 425 642 399 652 q 487 625 451 633 l 570 608 q 714 561 654 590 q 811 492 773 532 q 867 404 849 453 q 886 298 885 356 q 836 129 885 198 q 695 24 787 60 q 475 -12 604 -12 q 246 27 344 -12 q 94 147 148 66 q 39 355 40 228 l 300 355 q 323 277 302 309 q 382 229 344 246 q 472 213 419 213 q 545 224 515 213 q 590 254 575 235 q 606 298 605 273 q 591 339 605 321 q 543 370 576 356 q 454 397 510 384 l 353 418 q 142 516 219 447 q 65 702 65 584 q 117 871 65 799 q 261 983 169 943 q 473 1024 354 1024 q 685 983 596 1024 q 823 868 774 942 q 872 694 872 794 l 610 694 z "},"Ṥ":{"ha":925,"x_min":39,"x_max":886,"o":"m 610 694 q 573 771 606 744 q 473 799 540 799 q 404 789 431 799 q 364 762 377 779 q 351 722 352 744 q 358 689 350 704 q 382 663 365 675 q 425 642 399 652 q 487 625 451 633 l 570 608 q 714 561 654 590 q 811 492 773 532 q 867 404 849 453 q 886 298 885 356 q 836 129 885 198 q 695 24 787 60 q 475 -12 604 -12 q 246 27 344 -12 q 94 147 148 66 q 39 355 40 228 l 300 355 q 323 277 302 309 q 382 229 344 246 q 472 213 419 213 q 545 224 515 213 q 590 254 575 235 q 606 298 605 273 q 591 339 605 321 q 543 370 576 356 q 454 397 510 384 l 353 418 q 142 516 219 447 q 65 702 65 584 q 117 871 65 799 q 261 983 169 943 q 473 1024 354 1024 q 685 983 596 1024 q 823 868 774 942 q 872 694 872 794 l 610 694 m 410 1103 l 513 1272 l 669 1272 l 533 1103 l 410 1103 m 201 1243 q 233 1303 202 1278 q 308 1328 263 1328 q 385 1303 355 1328 q 414 1243 415 1278 q 385 1183 415 1207 q 308 1158 355 1158 q 233 1183 263 1158 q 201 1243 202 1207 z "},"Ṧ":{"ha":925,"x_min":39,"x_max":886,"o":"m 610 694 q 573 771 606 744 q 473 799 540 799 q 404 789 431 799 q 364 762 377 779 q 351 722 352 744 q 358 689 350 704 q 382 663 365 675 q 425 642 399 652 q 487 625 451 633 l 570 608 q 714 561 654 590 q 811 492 773 532 q 867 404 849 453 q 886 298 885 356 q 836 129 885 198 q 695 24 787 60 q 475 -12 604 -12 q 246 27 344 -12 q 94 147 148 66 q 39 355 40 228 l 300 355 q 323 277 302 309 q 382 229 344 246 q 472 213 419 213 q 545 224 515 213 q 590 254 575 235 q 606 298 605 273 q 591 339 605 321 q 543 370 576 356 q 454 397 510 384 l 353 418 q 142 516 219 447 q 65 702 65 584 q 117 871 65 799 q 261 983 169 943 q 473 1024 354 1024 q 685 983 596 1024 q 823 868 774 942 q 872 694 872 794 l 610 694 m 357 1430 q 387 1490 357 1466 q 464 1515 418 1515 q 540 1490 509 1515 q 570 1430 570 1466 q 540 1371 570 1395 q 464 1347 509 1347 q 387 1371 418 1347 q 357 1430 357 1395 m 379 1310 l 466 1239 l 552 1310 l 769 1310 l 769 1298 l 558 1136 l 375 1136 l 160 1302 l 160 1310 l 379 1310 z "},"Ṩ":{"ha":925,"x_min":39,"x_max":886,"o":"m 610 694 q 573 771 606 744 q 473 799 540 799 q 404 789 431 799 q 364 762 377 779 q 351 722 352 744 q 358 689 350 704 q 382 663 365 675 q 425 642 399 652 q 487 625 451 633 l 570 608 q 714 561 654 590 q 811 492 773 532 q 867 404 849 453 q 886 298 885 356 q 836 129 885 198 q 695 24 787 60 q 475 -12 604 -12 q 246 27 344 -12 q 94 147 148 66 q 39 355 40 228 l 300 355 q 323 277 302 309 q 382 229 344 246 q 472 213 419 213 q 545 224 515 213 q 590 254 575 235 q 606 298 605 273 q 591 339 605 321 q 543 370 576 356 q 454 397 510 384 l 353 418 q 142 516 219 447 q 65 702 65 584 q 117 871 65 799 q 261 983 169 943 q 473 1024 354 1024 q 685 983 596 1024 q 823 868 774 942 q 872 694 872 794 l 610 694 m 464 1089 q 369 1126 408 1089 q 329 1213 329 1162 q 369 1301 329 1265 q 464 1338 408 1338 q 559 1301 519 1338 q 598 1213 598 1265 q 559 1126 598 1162 q 464 1089 519 1089 z "},"Ѕ":{"ha":925,"x_min":39,"x_max":886,"o":"m 610 694 q 573 771 606 744 q 473 799 540 799 q 404 789 431 799 q 364 762 377 779 q 351 722 352 744 q 358 689 350 704 q 382 663 365 675 q 425 642 399 652 q 487 625 451 633 l 570 608 q 714 561 654 590 q 811 492 773 532 q 867 404 849 453 q 886 298 885 356 q 836 129 885 198 q 695 24 787 60 q 475 -12 604 -12 q 246 27 344 -12 q 94 147 148 66 q 39 355 40 228 l 300 355 q 323 277 302 309 q 382 229 344 246 q 472 213 419 213 q 545 224 515 213 q 590 254 575 235 q 606 298 605 273 q 591 339 605 321 q 543 370 576 356 q 454 397 510 384 l 353 418 q 142 516 219 447 q 65 702 65 584 q 117 871 65 799 q 261 983 169 943 q 473 1024 354 1024 q 685 983 596 1024 q 823 868 774 942 q 872 694 872 794 l 610 694 z "},"Ƨ":{"ha":925,"x_min":39,"x_max":886,"o":"m 316 694 l 53 694 q 102 868 54 794 q 240 983 151 942 q 452 1024 329 1024 q 664 983 572 1024 q 809 871 757 943 q 860 702 861 799 q 783 516 861 584 q 572 418 706 447 l 472 397 q 382 370 415 384 q 335 339 349 356 q 320 298 320 321 q 335 254 320 273 q 380 224 351 235 q 454 213 410 213 q 544 229 507 213 q 602 277 581 246 q 625 355 623 309 l 886 355 q 831 147 885 228 q 679 27 777 66 q 450 -12 581 -12 q 230 24 322 -12 q 89 129 139 60 q 39 298 40 198 q 58 404 40 356 q 114 492 76 453 q 212 561 152 532 q 355 608 272 590 l 438 625 q 516 649 486 636 q 561 680 547 662 q 574 722 576 698 q 561 762 574 744 q 521 789 548 779 q 452 799 494 799 q 352 771 385 799 q 316 694 320 744 z "},"ẞ":{"ha":1028,"x_min":65,"x_max":988,"o":"m 65 0 l 65 661 q 115 849 65 767 q 252 978 164 931 q 454 1024 340 1024 q 616 1000 527 1024 q 795 933 705 976 q 959 835 884 890 l 734 592 q 866 535 808 578 q 956 431 923 492 q 988 298 988 369 q 941 136 988 207 q 809 26 893 66 q 616 -14 725 -14 q 485 -1 554 -14 q 371 32 417 12 l 442 225 q 519 202 479 210 q 590 193 558 193 q 694 221 656 193 q 732 298 732 249 q 724 348 732 325 q 701 389 716 371 q 665 419 686 406 q 615 437 643 431 q 554 444 587 444 l 466 444 l 466 586 l 639 754 q 555 799 604 782 q 454 815 505 815 q 393 796 418 815 q 353 743 367 778 q 339 661 339 709 l 339 0 l 65 0 z "},"T":{"ha":953,"x_min":37,"x_max":915,"o":"m 37 789 l 37 1010 l 915 1010 l 915 789 l 612 789 l 612 0 l 341 0 l 341 789 l 37 789 z "},"Ţ":{"ha":953,"x_min":37,"x_max":915,"o":"m 37 789 l 37 1010 l 915 1010 l 915 789 l 612 789 l 612 0 l 341 0 l 341 789 l 37 789 m 424 4 l 521 4 l 513 -41 q 604 -83 572 -50 q 637 -164 637 -115 q 559 -290 638 -244 q 341 -335 480 -335 l 341 -231 q 453 -215 414 -231 q 493 -170 491 -200 q 472 -124 495 -142 q 400 -99 448 -106 l 424 4 z "},"Ť":{"ha":953,"x_min":37,"x_max":915,"o":"m 37 789 l 37 1010 l 915 1010 l 915 789 l 612 789 l 612 0 l 341 0 l 341 789 l 37 789 m 381 1332 l 477 1223 l 574 1332 l 799 1332 l 799 1326 l 572 1101 l 383 1101 l 156 1326 l 156 1332 l 381 1332 z "},"Ț":{"ha":953,"x_min":37,"x_max":915,"o":"m 37 789 l 37 1010 l 915 1010 l 915 789 l 612 789 l 612 0 l 341 0 l 341 789 l 37 789 m 291 -316 l 356 -80 l 601 -80 l 476 -316 l 291 -316 z "},"Ṫ":{"ha":953,"x_min":37,"x_max":915,"o":"m 37 789 l 37 1010 l 915 1010 l 915 789 l 612 789 l 612 0 l 341 0 l 341 789 l 37 789 m 478 1089 q 383 1126 422 1089 q 343 1213 343 1162 q 383 1301 343 1265 q 477 1338 422 1338 q 572 1301 533 1338 q 612 1213 612 1265 q 572 1126 612 1162 q 478 1089 533 1089 z "},"Ṭ":{"ha":953,"x_min":37,"x_max":915,"o":"m 37 789 l 37 1010 l 915 1010 l 915 789 l 612 789 l 612 0 l 341 0 l 341 789 l 37 789 z "},"Ṯ":{"ha":953,"x_min":37,"x_max":915,"o":"m 37 789 l 37 1010 l 915 1010 l 915 789 l 612 789 l 612 0 l 341 0 l 341 789 l 37 789 z "},"Ṱ":{"ha":953,"x_min":37,"x_max":915,"o":"m 37 789 l 37 1010 l 915 1010 l 915 789 l 612 789 l 612 0 l 341 0 l 341 789 l 37 789 z "},"Ƭ":{"ha":996,"x_min":37,"x_max":959,"o":"m 959 1010 l 959 789 l 655 789 l 655 0 l 385 0 l 385 789 l 365 789 q 297 770 320 789 q 266 720 274 750 q 258 659 258 690 l 258 586 l 37 586 l 37 708 q 120 930 37 850 q 365 1010 203 1010 l 959 1010 z "},"Ʈ":{"ha":953,"x_min":37,"x_max":915,"o":"m 612 0 l 612 -24 q 644 -69 612 -58 q 712 -81 676 -81 l 758 -81 l 758 -284 l 639 -284 q 532 -276 585 -284 q 436 -242 479 -268 q 367 -164 393 -217 q 341 -22 341 -111 l 341 0 l 612 0 m 37 789 l 37 1010 l 915 1010 l 915 789 l 612 789 l 612 0 l 341 0 l 341 789 l 37 789 z "},"Ⱦ":{"ha":953,"x_min":37,"x_max":915,"o":"m 235 -128 l 618 1138 l 758 1138 l 375 -128 l 235 -128 m 37 789 l 37 1010 l 915 1010 l 915 789 l 612 789 l 612 0 l 341 0 l 341 789 l 37 789 z "},"Τ":{"ha":953,"x_min":37,"x_max":915,"o":"m 37 789 l 37 1010 l 915 1010 l 915 789 l 612 789 l 612 0 l 341 0 l 341 789 l 37 789 z "},"U":{"ha":1002,"x_min":65,"x_max":937,"o":"m 663 1010 l 937 1010 l 937 363 q 882 164 937 248 q 729 34 827 79 q 501 -12 631 -12 q 272 34 370 -12 q 120 164 174 79 q 65 363 65 248 l 65 1010 l 339 1010 l 339 387 q 360 303 339 340 q 418 246 381 266 q 501 225 454 225 q 585 246 548 225 q 642 303 621 266 q 663 387 663 340 l 663 1010 z "},"Ư":{"ha":1213,"x_min":65,"x_max":1176,"o":"m 1026 1030 l 1176 1030 q 1150 851 1176 926 q 1058 735 1125 776 q 868 694 991 694 l 868 815 q 981 841 948 815 q 1020 916 1014 868 q 1026 1030 1026 965 m 663 1010 l 937 1010 l 937 363 q 882 164 937 248 q 729 34 827 79 q 501 -12 631 -12 q 272 34 370 -12 q 120 164 174 79 q 65 363 65 248 l 65 1010 l 339 1010 l 339 387 q 360 303 339 340 q 418 246 381 266 q 501 225 454 225 q 585 246 548 225 q 642 303 621 266 q 663 387 663 340 l 663 1010 z "},"Ù":{"ha":1002,"x_min":65,"x_max":937,"o":"m 663 1010 l 937 1010 l 937 363 q 882 164 937 248 q 729 34 827 79 q 501 -12 631 -12 q 272 34 370 -12 q 120 164 174 79 q 65 363 65 248 l 65 1010 l 339 1010 l 339 387 q 360 303 339 340 q 418 246 381 266 q 501 225 454 225 q 585 246 548 225 q 642 303 621 266 q 663 387 663 340 l 663 1010 m 412 1105 l 264 1326 l 497 1326 l 592 1105 l 412 1105 z "},"Ú":{"ha":1002,"x_min":65,"x_max":937,"o":"m 663 1010 l 937 1010 l 937 363 q 882 164 937 248 q 729 34 827 79 q 501 -12 631 -12 q 272 34 370 -12 q 120 164 174 79 q 65 363 65 248 l 65 1010 l 339 1010 l 339 387 q 360 303 339 340 q 418 246 381 266 q 501 225 454 225 q 585 246 548 225 q 642 303 621 266 q 663 387 663 340 l 663 1010 m 410 1105 l 505 1326 l 738 1326 l 590 1105 l 410 1105 z "},"Û":{"ha":1002,"x_min":65,"x_max":937,"o":"m 663 1010 l 937 1010 l 937 363 q 882 164 937 248 q 729 34 827 79 q 501 -12 631 -12 q 272 34 370 -12 q 120 164 174 79 q 65 363 65 248 l 65 1010 l 339 1010 l 339 387 q 360 303 339 340 q 418 246 381 266 q 501 225 454 225 q 585 246 548 225 q 642 303 621 266 q 663 387 663 340 l 663 1010 m 404 1100 l 180 1100 l 180 1106 l 406 1331 l 596 1331 l 823 1106 l 823 1100 l 598 1100 l 501 1208 l 404 1100 z "},"Ü":{"ha":1002,"x_min":65,"x_max":937,"o":"m 663 1010 l 937 1010 l 937 363 q 882 164 937 248 q 729 34 827 79 q 501 -12 631 -12 q 272 34 370 -12 q 120 164 174 79 q 65 363 65 248 l 65 1010 l 339 1010 l 339 387 q 360 303 339 340 q 418 246 381 266 q 501 225 454 225 q 585 246 548 225 q 642 303 621 266 q 663 387 663 340 l 663 1010 z "},"Ũ":{"ha":1002,"x_min":65,"x_max":937,"o":"m 663 1010 l 937 1010 l 937 363 q 882 164 937 248 q 729 34 827 79 q 501 -12 631 -12 q 272 34 370 -12 q 120 164 174 79 q 65 363 65 248 l 65 1010 l 339 1010 l 339 387 q 360 303 339 340 q 418 246 381 266 q 501 225 454 225 q 585 246 548 225 q 642 303 621 266 q 663 387 663 340 l 663 1010 m 367 1105 l 233 1105 q 282 1263 233 1211 q 400 1316 330 1315 q 466 1304 439 1316 q 513 1275 493 1292 q 550 1247 533 1259 q 584 1235 566 1235 q 625 1256 613 1235 q 637 1312 637 1276 l 769 1312 q 719 1154 768 1207 q 602 1099 671 1100 q 536 1111 563 1098 q 490 1139 509 1123 q 454 1167 471 1155 q 418 1180 437 1180 q 381 1161 395 1180 q 367 1105 367 1142 z "},"Ū":{"ha":1002,"x_min":65,"x_max":937,"o":"m 663 1010 l 937 1010 l 937 363 q 882 164 937 248 q 729 34 827 79 q 501 -12 631 -12 q 272 34 370 -12 q 120 164 174 79 q 65 363 65 248 l 65 1010 l 339 1010 l 339 387 q 360 303 339 340 q 418 246 381 266 q 501 225 454 225 q 585 246 548 225 q 642 303 621 266 q 663 387 663 340 l 663 1010 m 748 1263 l 748 1138 l 254 1138 l 254 1263 l 748 1263 z "},"Ŭ":{"ha":1002,"x_min":65,"x_max":937,"o":"m 663 1010 l 937 1010 l 937 363 q 882 164 937 248 q 729 34 827 79 q 501 -12 631 -12 q 272 34 370 -12 q 120 164 174 79 q 65 363 65 248 l 65 1010 l 339 1010 l 339 387 q 360 303 339 340 q 418 246 381 266 q 501 225 454 225 q 585 246 548 225 q 642 303 621 266 q 663 387 663 340 l 663 1010 m 600 1282 l 771 1282 q 698 1129 771 1186 q 501 1071 625 1071 q 303 1129 376 1071 q 231 1282 230 1186 l 400 1282 q 423 1225 400 1251 q 501 1199 446 1199 q 577 1225 554 1199 q 600 1282 599 1250 z "},"Ů":{"ha":1002,"x_min":65,"x_max":937,"o":"m 663 1010 l 937 1010 l 937 363 q 882 164 937 248 q 729 34 827 79 q 501 -12 631 -12 q 272 34 370 -12 q 120 164 174 79 q 65 363 65 248 l 65 1010 l 339 1010 l 339 387 q 360 303 339 340 q 418 246 381 266 q 501 225 454 225 q 585 246 548 225 q 642 303 621 266 q 663 387 663 340 l 663 1010 m 501 1055 q 422 1076 458 1055 q 364 1131 386 1096 q 343 1207 343 1165 q 364 1284 343 1249 q 422 1339 386 1318 q 501 1359 458 1359 q 581 1339 545 1359 q 638 1284 617 1318 q 659 1207 659 1249 q 638 1131 659 1165 q 581 1076 617 1096 q 501 1055 545 1055 m 501 1148 q 545 1166 527 1149 q 564 1208 564 1183 q 546 1250 564 1232 q 501 1267 527 1267 q 457 1249 475 1266 q 438 1207 438 1232 q 456 1165 438 1183 q 501 1148 475 1148 z "},"Ű":{"ha":1002,"x_min":65,"x_max":937,"o":"m 663 1010 l 937 1010 l 937 363 q 882 164 937 248 q 729 34 827 79 q 501 -12 631 -12 q 272 34 370 -12 q 120 164 174 79 q 65 363 65 248 l 65 1010 l 339 1010 l 339 387 q 360 303 339 340 q 418 246 381 266 q 501 225 454 225 q 585 246 548 225 q 642 303 621 266 q 663 387 663 340 l 663 1010 m 543 1101 l 702 1302 l 911 1302 l 722 1101 l 543 1101 m 256 1101 l 402 1302 l 612 1302 l 440 1101 l 256 1101 z "},"Ų":{"ha":1002,"x_min":65,"x_max":937,"o":"m 663 1010 l 937 1010 l 937 363 q 882 164 937 248 q 729 34 827 79 q 501 -12 631 -12 q 272 34 370 -12 q 120 164 174 79 q 65 363 65 248 l 65 1010 l 339 1010 l 339 387 q 360 303 339 340 q 418 246 381 266 q 501 225 454 225 q 585 246 548 225 q 642 303 621 266 q 663 387 663 340 l 663 1010 m 552 -274 q 437 -240 484 -274 q 371 -144 390 -206 q 361 -58 358 -102 q 381 20 363 -14 q 426 67 398 54 l 651 0 q 578 -32 603 -15 q 552 -79 552 -49 q 565 -117 552 -104 q 598 -130 578 -130 q 620 -127 611 -130 q 639 -122 630 -124 l 671 -245 q 621 -265 651 -255 q 552 -274 592 -274 z "},"Ǔ":{"ha":1002,"x_min":65,"x_max":937,"o":"m 663 1010 l 937 1010 l 937 363 q 882 164 937 248 q 729 34 827 79 q 501 -12 631 -12 q 272 34 370 -12 q 120 164 174 79 q 65 363 65 248 l 65 1010 l 339 1010 l 339 387 q 360 303 339 340 q 418 246 381 266 q 501 225 454 225 q 585 246 548 225 q 642 303 621 266 q 663 387 663 340 l 663 1010 m 404 1332 l 501 1223 l 598 1332 l 823 1332 l 823 1326 l 596 1101 l 406 1101 l 180 1326 l 180 1332 l 404 1332 z "},"Ǖ":{"ha":1002,"x_min":65,"x_max":937,"o":"m 663 1010 l 937 1010 l 937 363 q 882 164 937 248 q 729 34 827 79 q 501 -12 631 -12 q 272 34 370 -12 q 120 164 174 79 q 65 363 65 248 l 65 1010 l 339 1010 l 339 387 q 360 303 339 340 q 418 246 381 266 q 501 225 454 225 q 585 246 548 225 q 642 303 621 266 q 663 387 663 340 l 663 1010 z "},"Ǘ":{"ha":1002,"x_min":65,"x_max":937,"o":"m 663 1010 l 937 1010 l 937 363 q 882 164 937 248 q 729 34 827 79 q 501 -12 631 -12 q 272 34 370 -12 q 120 164 174 79 q 65 363 65 248 l 65 1010 l 339 1010 l 339 387 q 360 303 339 340 q 418 246 381 266 q 501 225 454 225 q 585 246 548 225 q 642 303 621 266 q 663 387 663 340 l 663 1010 m 400 1338 l 532 1528 l 755 1528 l 584 1338 l 400 1338 m 356 1073 q 276 1103 309 1073 q 243 1176 243 1133 q 276 1250 243 1219 q 356 1280 309 1280 q 434 1250 401 1280 q 466 1176 466 1219 q 434 1103 466 1133 q 356 1073 401 1073 m 649 1073 q 569 1103 602 1073 q 536 1176 536 1133 q 569 1250 536 1219 q 649 1280 602 1280 q 727 1250 694 1280 q 760 1176 760 1219 q 727 1103 760 1133 q 649 1073 694 1073 z "},"Ǚ":{"ha":1002,"x_min":65,"x_max":937,"o":"m 663 1010 l 937 1010 l 937 363 q 882 164 937 248 q 729 34 827 79 q 501 -12 631 -12 q 272 34 370 -12 q 120 164 174 79 q 65 363 65 248 l 65 1010 l 339 1010 l 339 387 q 360 303 339 340 q 418 246 381 266 q 501 225 454 225 q 585 246 548 225 q 642 303 621 266 q 663 387 663 340 l 663 1010 m 251 1203 q 280 1262 251 1237 q 355 1286 309 1286 q 432 1262 402 1286 q 462 1203 462 1237 q 431 1143 462 1166 q 355 1119 401 1119 q 281 1143 311 1119 q 251 1203 251 1166 m 541 1203 q 570 1262 541 1237 q 647 1286 600 1286 q 723 1263 691 1286 q 754 1203 754 1239 q 723 1143 754 1166 q 647 1119 691 1119 q 570 1143 600 1119 q 541 1203 541 1168 m 416 1468 l 503 1399 l 590 1468 l 807 1468 l 807 1458 l 596 1296 l 412 1296 l 197 1462 l 197 1468 l 416 1468 z "},"Ǜ":{"ha":1002,"x_min":65,"x_max":937,"o":"m 663 1010 l 937 1010 l 937 363 q 882 164 937 248 q 729 34 827 79 q 501 -12 631 -12 q 272 34 370 -12 q 120 164 174 79 q 65 363 65 248 l 65 1010 l 339 1010 l 339 387 q 360 303 339 340 q 418 246 381 266 q 501 225 454 225 q 585 246 548 225 q 642 303 621 266 q 663 387 663 340 l 663 1010 m 481 1411 l 572 1296 l 446 1296 l 320 1411 l 481 1411 m 249 1203 q 278 1262 248 1237 q 353 1286 308 1286 q 431 1262 400 1286 q 462 1203 461 1237 q 430 1143 461 1166 q 353 1119 399 1119 q 278 1143 308 1119 q 249 1203 248 1166 m 539 1203 q 569 1263 538 1239 q 645 1286 600 1286 q 722 1262 692 1286 q 752 1203 751 1237 q 722 1143 751 1168 q 645 1119 692 1119 q 569 1143 600 1119 q 539 1203 538 1166 z "},"Ȕ":{"ha":1002,"x_min":65,"x_max":937,"o":"m 663 1010 l 937 1010 l 937 363 q 882 164 937 248 q 729 34 827 79 q 501 -12 631 -12 q 272 34 370 -12 q 120 164 174 79 q 65 363 65 248 l 65 1010 l 339 1010 l 339 387 q 360 303 339 340 q 418 246 381 266 q 501 225 454 225 q 585 246 548 225 q 642 303 621 266 q 663 387 663 340 l 663 1010 m 467 1105 l 287 1105 l 139 1326 l 372 1326 l 467 1105 m 729 1105 l 554 1105 l 459 1326 l 679 1326 l 729 1105 z "},"Ȗ":{"ha":1002,"x_min":65,"x_max":937,"o":"m 663 1010 l 937 1010 l 937 363 q 882 164 937 248 q 729 34 827 79 q 501 -12 631 -12 q 272 34 370 -12 q 120 164 174 79 q 65 363 65 248 l 65 1010 l 339 1010 l 339 387 q 360 303 339 340 q 418 246 381 266 q 501 225 454 225 q 585 246 548 225 q 642 303 621 266 q 663 387 663 340 l 663 1010 m 229 1128 q 301 1286 228 1225 q 499 1347 374 1347 q 697 1286 623 1347 q 771 1128 771 1225 l 600 1128 q 576 1184 599 1160 q 499 1209 553 1209 q 423 1184 445 1209 q 400 1128 400 1160 l 229 1128 z "},"Ṳ":{"ha":1002,"x_min":65,"x_max":937,"o":"m 663 1010 l 937 1010 l 937 363 q 882 164 937 248 q 729 34 827 79 q 501 -12 631 -12 q 272 34 370 -12 q 120 164 174 79 q 65 363 65 248 l 65 1010 l 339 1010 l 339 387 q 360 303 339 340 q 418 246 381 266 q 501 225 454 225 q 585 246 548 225 q 642 303 621 266 q 663 387 663 340 l 663 1010 z "},"Ṵ":{"ha":1002,"x_min":65,"x_max":937,"o":"m 663 1010 l 937 1010 l 937 363 q 882 164 937 248 q 729 34 827 79 q 501 -12 631 -12 q 272 34 370 -12 q 120 164 174 79 q 65 363 65 248 l 65 1010 l 339 1010 l 339 387 q 360 303 339 340 q 418 246 381 266 q 501 225 454 225 q 585 246 548 225 q 642 303 621 266 q 663 387 663 340 l 663 1010 z "},"Ṷ":{"ha":1002,"x_min":65,"x_max":937,"o":"m 663 1010 l 937 1010 l 937 363 q 882 164 937 248 q 729 34 827 79 q 501 -12 631 -12 q 272 34 370 -12 q 120 164 174 79 q 65 363 65 248 l 65 1010 l 339 1010 l 339 387 q 360 303 339 340 q 418 246 381 266 q 501 225 454 225 q 585 246 548 225 q 642 303 621 266 q 663 387 663 340 l 663 1010 z "},"Ṹ":{"ha":1002,"x_min":65,"x_max":937,"o":"m 663 1010 l 937 1010 l 937 363 q 882 164 937 248 q 729 34 827 79 q 501 -12 631 -12 q 272 34 370 -12 q 120 164 174 79 q 65 363 65 248 l 65 1010 l 339 1010 l 339 387 q 360 303 339 340 q 418 246 381 266 q 501 225 454 225 q 585 246 548 225 q 642 303 621 266 q 663 387 663 340 l 663 1010 m 393 1338 l 524 1528 l 747 1528 l 576 1338 l 393 1338 m 376 1091 l 251 1091 q 296 1232 251 1186 q 407 1278 342 1278 q 468 1268 443 1279 q 512 1243 493 1257 q 546 1217 531 1229 q 579 1207 562 1206 q 616 1225 605 1207 q 628 1275 627 1243 l 752 1275 q 705 1134 751 1182 q 595 1086 660 1087 q 534 1096 559 1086 q 491 1122 509 1107 q 457 1147 472 1136 q 424 1158 441 1158 q 389 1141 401 1158 q 376 1091 376 1124 z "},"Ṻ":{"ha":1002,"x_min":65,"x_max":937,"o":"m 663 1010 l 937 1010 l 937 363 q 882 164 937 248 q 729 34 827 79 q 501 -12 631 -12 q 272 34 370 -12 q 120 164 174 79 q 65 363 65 248 l 65 1010 l 339 1010 l 339 387 q 360 303 339 340 q 418 246 381 266 q 501 225 454 225 q 585 246 548 225 q 642 303 621 266 q 663 387 663 340 l 663 1010 m 748 1217 l 748 1095 l 253 1095 l 253 1217 l 748 1217 m 249 1361 q 278 1421 248 1397 q 353 1446 308 1446 q 430 1421 399 1446 q 462 1361 461 1397 q 431 1301 461 1326 q 353 1276 400 1276 q 277 1301 307 1276 q 249 1361 248 1326 m 539 1361 q 568 1421 538 1397 q 645 1446 599 1446 q 721 1421 690 1446 q 752 1361 751 1397 q 721 1302 751 1326 q 645 1278 690 1278 q 568 1302 599 1278 q 539 1361 538 1326 z "},"Ụ":{"ha":1002,"x_min":65,"x_max":937,"o":"m 663 1010 l 937 1010 l 937 363 q 882 164 937 248 q 729 34 827 79 q 501 -12 631 -12 q 272 34 370 -12 q 120 164 174 79 q 65 363 65 248 l 65 1010 l 339 1010 l 339 387 q 360 303 339 340 q 418 246 381 266 q 501 225 454 225 q 585 246 548 225 q 642 303 621 266 q 663 387 663 340 l 663 1010 z "},"Ủ":{"ha":1002,"x_min":65,"x_max":937,"o":"m 663 1010 l 937 1010 l 937 363 q 882 164 937 248 q 729 34 827 79 q 501 -12 631 -12 q 272 34 370 -12 q 120 164 174 79 q 65 363 65 248 l 65 1010 l 339 1010 l 339 387 q 360 303 339 340 q 418 246 381 266 q 501 225 454 225 q 585 246 548 225 q 642 303 621 266 q 663 387 663 340 l 663 1010 m 596 1123 l 400 1123 l 383 1199 q 458 1213 436 1201 q 479 1241 480 1225 q 454 1275 480 1268 q 387 1282 428 1282 l 393 1391 q 624 1355 545 1391 q 702 1255 703 1320 q 670 1191 703 1213 q 596 1162 637 1168 l 596 1123 z "},"Ứ":{"ha":1213,"x_min":65,"x_max":1176,"o":"m 1026 1030 l 1176 1030 q 1150 851 1176 926 q 1058 735 1125 776 q 868 694 991 694 l 868 815 q 981 841 948 815 q 1020 916 1014 868 q 1026 1030 1026 965 m 663 1010 l 937 1010 l 937 363 q 882 164 937 248 q 729 34 827 79 q 501 -12 631 -12 q 272 34 370 -12 q 120 164 174 79 q 65 363 65 248 l 65 1010 l 339 1010 l 339 387 q 360 303 339 340 q 418 246 381 266 q 501 225 454 225 q 585 246 548 225 q 642 303 621 266 q 663 387 663 340 l 663 1010 m 410 1105 l 505 1326 l 738 1326 l 590 1105 l 410 1105 z "},"Ừ":{"ha":1213,"x_min":65,"x_max":1176,"o":"m 1026 1030 l 1176 1030 q 1150 851 1176 926 q 1058 735 1125 776 q 868 694 991 694 l 868 815 q 981 841 948 815 q 1020 916 1014 868 q 1026 1030 1026 965 m 663 1010 l 937 1010 l 937 363 q 882 164 937 248 q 729 34 827 79 q 501 -12 631 -12 q 272 34 370 -12 q 120 164 174 79 q 65 363 65 248 l 65 1010 l 339 1010 l 339 387 q 360 303 339 340 q 418 246 381 266 q 501 225 454 225 q 585 246 548 225 q 642 303 621 266 q 663 387 663 340 l 663 1010 m 412 1105 l 264 1326 l 497 1326 l 592 1105 l 412 1105 z "},"Ử":{"ha":1213,"x_min":65,"x_max":1176,"o":"m 1026 1030 l 1176 1030 q 1150 851 1176 926 q 1058 735 1125 776 q 868 694 991 694 l 868 815 q 981 841 948 815 q 1020 916 1014 868 q 1026 1030 1026 965 m 663 1010 l 937 1010 l 937 363 q 882 164 937 248 q 729 34 827 79 q 501 -12 631 -12 q 272 34 370 -12 q 120 164 174 79 q 65 363 65 248 l 65 1010 l 339 1010 l 339 387 q 360 303 339 340 q 418 246 381 266 q 501 225 454 225 q 585 246 548 225 q 642 303 621 266 q 663 387 663 340 l 663 1010 m 596 1123 l 400 1123 l 383 1199 q 458 1213 436 1201 q 479 1241 480 1225 q 454 1275 480 1268 q 387 1282 428 1282 l 393 1391 q 624 1355 545 1391 q 702 1255 703 1320 q 670 1191 703 1213 q 596 1162 637 1168 l 596 1123 z "},"Ữ":{"ha":1213,"x_min":65,"x_max":1176,"o":"m 1026 1030 l 1176 1030 q 1150 851 1176 926 q 1058 735 1125 776 q 868 694 991 694 l 868 815 q 981 841 948 815 q 1020 916 1014 868 q 1026 1030 1026 965 m 663 1010 l 937 1010 l 937 363 q 882 164 937 248 q 729 34 827 79 q 501 -12 631 -12 q 272 34 370 -12 q 120 164 174 79 q 65 363 65 248 l 65 1010 l 339 1010 l 339 387 q 360 303 339 340 q 418 246 381 266 q 501 225 454 225 q 585 246 548 225 q 642 303 621 266 q 663 387 663 340 l 663 1010 m 367 1105 l 233 1105 q 282 1263 233 1211 q 400 1316 330 1315 q 466 1304 439 1316 q 513 1275 493 1292 q 550 1247 533 1259 q 584 1235 566 1235 q 625 1256 613 1235 q 637 1312 637 1276 l 769 1312 q 719 1154 768 1207 q 602 1099 671 1100 q 536 1111 563 1098 q 490 1139 509 1123 q 454 1167 471 1155 q 418 1180 437 1180 q 381 1161 395 1180 q 367 1105 367 1142 z "},"Ự":{"ha":1213,"x_min":65,"x_max":1176,"o":"m 1026 1030 l 1176 1030 q 1150 851 1176 926 q 1058 735 1125 776 q 868 694 991 694 l 868 815 q 981 841 948 815 q 1020 916 1014 868 q 1026 1030 1026 965 m 663 1010 l 937 1010 l 937 363 q 882 164 937 248 q 729 34 827 79 q 501 -12 631 -12 q 272 34 370 -12 q 120 164 174 79 q 65 363 65 248 l 65 1010 l 339 1010 l 339 387 q 360 303 339 340 q 418 246 381 266 q 501 225 454 225 q 585 246 548 225 q 642 303 621 266 q 663 387 663 340 l 663 1010 z "},"Ʉ":{"ha":1073,"x_min":-8,"x_max":1081,"o":"m 1081 566 l 1081 416 l -8 416 l -8 566 l 1081 566 m 704 1010 l 979 1010 l 979 363 q 924 164 979 248 q 770 34 869 79 q 543 -12 672 -12 q 314 34 412 -12 q 161 164 216 79 q 107 363 107 248 l 107 1010 l 381 1010 l 381 387 q 401 303 381 340 q 459 246 422 266 q 543 225 496 225 q 626 246 590 225 q 684 303 663 266 q 704 387 704 340 l 704 1010 z "},"V":{"ha":1105,"x_min":32,"x_max":1073,"o":"m 341 1010 l 548 298 l 556 298 l 763 1010 l 1073 1010 l 740 0 l 365 0 l 32 1010 l 341 1010 z "},"Ṽ":{"ha":1105,"x_min":32,"x_max":1073,"o":"m 341 1010 l 548 298 l 556 298 l 763 1010 l 1073 1010 l 740 0 l 365 0 l 32 1010 l 341 1010 m 418 1105 l 284 1105 q 333 1263 284 1211 q 452 1316 382 1315 q 517 1304 490 1316 q 564 1275 544 1292 q 601 1247 584 1259 q 635 1235 618 1235 q 676 1256 664 1235 q 689 1312 688 1276 l 821 1312 q 771 1154 819 1207 q 653 1099 722 1100 q 588 1111 615 1098 q 541 1139 561 1123 q 505 1167 522 1155 q 470 1180 488 1180 q 432 1161 446 1180 q 418 1105 418 1142 z "},"Ṿ":{"ha":1105,"x_min":32,"x_max":1073,"o":"m 341 1010 l 548 298 l 556 298 l 763 1010 l 1073 1010 l 740 0 l 365 0 l 32 1010 l 341 1010 z "},"W":{"ha":1519,"x_min":24,"x_max":1495,"o":"m 322 0 l 24 1010 l 329 1010 l 468 389 l 475 389 l 639 1010 l 880 1010 l 1044 387 l 1052 387 l 1190 1010 l 1495 1010 l 1198 0 l 935 0 l 763 564 l 756 564 l 584 0 l 322 0 z "},"Ŵ":{"ha":1519,"x_min":24,"x_max":1495,"o":"m 322 0 l 24 1010 l 329 1010 l 468 389 l 475 389 l 639 1010 l 880 1010 l 1044 387 l 1052 387 l 1190 1010 l 1495 1010 l 1198 0 l 935 0 l 763 564 l 756 564 l 584 0 l 322 0 m 663 1100 l 438 1100 l 438 1106 l 665 1331 l 854 1331 l 1081 1106 l 1081 1100 l 856 1100 l 760 1208 l 663 1100 z "},"Ẁ":{"ha":1519,"x_min":24,"x_max":1495,"o":"m 322 0 l 24 1010 l 329 1010 l 468 389 l 475 389 l 639 1010 l 880 1010 l 1044 387 l 1052 387 l 1190 1010 l 1495 1010 l 1198 0 l 935 0 l 763 564 l 756 564 l 584 0 l 322 0 m 671 1105 l 523 1326 l 756 1326 l 850 1105 l 671 1105 z "},"Ẃ":{"ha":1519,"x_min":24,"x_max":1495,"o":"m 322 0 l 24 1010 l 329 1010 l 468 389 l 475 389 l 639 1010 l 880 1010 l 1044 387 l 1052 387 l 1190 1010 l 1495 1010 l 1198 0 l 935 0 l 763 564 l 756 564 l 584 0 l 322 0 m 669 1105 l 763 1326 l 996 1326 l 848 1105 l 669 1105 z "},"Ẅ":{"ha":1519,"x_min":24,"x_max":1495,"o":"m 322 0 l 24 1010 l 329 1010 l 468 389 l 475 389 l 639 1010 l 880 1010 l 1044 387 l 1052 387 l 1190 1010 l 1495 1010 l 1198 0 l 935 0 l 763 564 l 756 564 l 584 0 l 322 0 z "},"Ẇ":{"ha":1519,"x_min":24,"x_max":1495,"o":"m 322 0 l 24 1010 l 329 1010 l 468 389 l 475 389 l 639 1010 l 880 1010 l 1044 387 l 1052 387 l 1190 1010 l 1495 1010 l 1198 0 l 935 0 l 763 564 l 756 564 l 584 0 l 322 0 m 760 1089 q 665 1126 704 1089 q 625 1213 625 1162 q 665 1301 625 1265 q 760 1338 704 1338 q 854 1301 815 1338 q 894 1213 894 1265 q 854 1126 894 1162 q 760 1089 815 1089 z "},"Ẉ":{"ha":1519,"x_min":24,"x_max":1495,"o":"m 322 0 l 24 1010 l 329 1010 l 468 389 l 475 389 l 639 1010 l 880 1010 l 1044 387 l 1052 387 l 1190 1010 l 1495 1010 l 1198 0 l 935 0 l 763 564 l 756 564 l 584 0 l 322 0 z "},"X":{"ha":1059,"x_min":41,"x_max":1018,"o":"m 359 1010 l 525 716 l 533 716 l 700 1010 l 1006 1010 l 704 505 l 1018 0 l 704 0 l 533 300 l 525 300 l 353 0 l 41 0 l 351 505 l 51 1010 l 359 1010 z "},"Ẋ":{"ha":1059,"x_min":41,"x_max":1018,"o":"m 359 1010 l 525 716 l 533 716 l 700 1010 l 1006 1010 l 704 505 l 1018 0 l 704 0 l 533 300 l 525 300 l 353 0 l 41 0 l 351 505 l 51 1010 l 359 1010 m 529 1089 q 434 1126 473 1089 q 395 1213 395 1162 q 434 1301 395 1265 q 529 1338 473 1338 q 624 1301 584 1338 q 663 1213 663 1265 q 624 1126 663 1162 q 529 1089 584 1089 z "},"Ẍ":{"ha":1059,"x_min":41,"x_max":1018,"o":"m 359 1010 l 525 716 l 533 716 l 700 1010 l 1006 1010 l 704 505 l 1018 0 l 704 0 l 533 300 l 525 300 l 353 0 l 41 0 l 351 505 l 51 1010 l 359 1010 z "},"Ҳ":{"ha":1059,"x_min":41,"x_max":1099,"o":"m 359 1010 l 525 716 l 533 716 l 700 1010 l 1006 1010 l 704 505 l 1018 0 l 704 0 l 533 300 l 525 300 l 353 0 l 41 0 l 351 505 l 51 1010 l 359 1010 m 1099 170 l 1099 -243 l 836 -243 l 836 170 l 1099 170 z "},"Ӽ":{"ha":1059,"x_min":41,"x_max":1136,"o":"m 359 1010 l 525 716 l 533 716 l 700 1010 l 1006 1010 l 704 505 l 1018 0 l 704 0 l 533 300 l 525 300 l 353 0 l 41 0 l 351 505 l 51 1010 l 359 1010 m 874 239 l 1136 239 l 1136 10 q 1054 -219 1136 -143 q 831 -296 971 -296 q 772 -294 799 -296 q 712 -286 745 -292 l 722 -87 q 753 -93 741 -91 q 793 -95 765 -95 q 854 -68 833 -95 q 874 10 874 -42 l 874 239 z "},"Χ":{"ha":1059,"x_min":41,"x_max":1018,"o":"m 359 1010 l 525 716 l 533 716 l 700 1010 l 1006 1010 l 704 505 l 1018 0 l 704 0 l 533 300 l 525 300 l 353 0 l 41 0 l 351 505 l 51 1010 l 359 1010 z "},"Y":{"ha":1061,"x_min":24,"x_max":1038,"o":"m 24 1010 l 329 1010 l 527 600 l 535 600 l 732 1010 l 1038 1010 l 667 318 l 667 0 l 395 0 l 395 318 l 24 1010 z "},"Ƴ":{"ha":1174,"x_min":36,"x_max":1158,"o":"m 36 1010 l 329 1010 l 576 600 l 588 600 l 751 868 q 868 985 800 949 q 1011 1021 936 1020 q 1158 996 1087 1021 l 1103 795 q 1014 796 1043 811 q 953 733 984 780 l 718 373 l 718 0 l 446 0 l 446 373 l 36 1010 z "},"Ý":{"ha":1061,"x_min":24,"x_max":1038,"o":"m 24 1010 l 329 1010 l 527 600 l 535 600 l 732 1010 l 1038 1010 l 667 318 l 667 0 l 395 0 l 395 318 l 24 1010 m 440 1105 l 535 1326 l 767 1326 l 619 1105 l 440 1105 z "},"Ŷ":{"ha":1061,"x_min":24,"x_max":1038,"o":"m 24 1010 l 329 1010 l 527 600 l 535 600 l 732 1010 l 1038 1010 l 667 318 l 667 0 l 395 0 l 395 318 l 24 1010 m 434 1100 l 209 1100 l 209 1106 l 436 1331 l 625 1331 l 852 1106 l 852 1100 l 627 1100 l 531 1208 l 434 1100 z "},"Ÿ":{"ha":1061,"x_min":24,"x_max":1038,"o":"m 24 1010 l 329 1010 l 527 600 l 535 600 l 732 1010 l 1038 1010 l 667 318 l 667 0 l 395 0 l 395 318 l 24 1010 z "},"Ȳ":{"ha":1061,"x_min":24,"x_max":1038,"o":"m 24 1010 l 329 1010 l 527 600 l 535 600 l 732 1010 l 1038 1010 l 667 318 l 667 0 l 395 0 l 395 318 l 24 1010 m 777 1263 l 777 1138 l 284 1138 l 284 1263 l 777 1263 z "},"Ẏ":{"ha":1061,"x_min":24,"x_max":1038,"o":"m 24 1010 l 329 1010 l 527 600 l 535 600 l 732 1010 l 1038 1010 l 667 318 l 667 0 l 395 0 l 395 318 l 24 1010 m 531 1089 q 436 1126 475 1089 q 397 1213 397 1162 q 436 1301 397 1265 q 531 1338 475 1338 q 626 1301 586 1338 q 665 1213 665 1265 q 626 1126 665 1162 q 531 1089 586 1089 z "},"Ỳ":{"ha":1061,"x_min":24,"x_max":1038,"o":"m 24 1010 l 329 1010 l 527 600 l 535 600 l 732 1010 l 1038 1010 l 667 318 l 667 0 l 395 0 l 395 318 l 24 1010 m 442 1105 l 294 1326 l 527 1326 l 621 1105 l 442 1105 z "},"Ỵ":{"ha":1061,"x_min":24,"x_max":1038,"o":"m 24 1010 l 329 1010 l 527 600 l 535 600 l 732 1010 l 1038 1010 l 667 318 l 667 0 l 395 0 l 395 318 l 24 1010 z "},"Ỷ":{"ha":1061,"x_min":24,"x_max":1038,"o":"m 24 1010 l 329 1010 l 527 600 l 535 600 l 732 1010 l 1038 1010 l 667 318 l 667 0 l 395 0 l 395 318 l 24 1010 m 625 1123 l 430 1123 l 412 1199 q 488 1213 465 1201 q 509 1241 510 1225 q 484 1275 510 1268 q 416 1282 457 1282 l 422 1391 q 654 1355 574 1391 q 732 1255 733 1320 q 700 1191 733 1213 q 625 1162 666 1168 l 625 1123 z "},"Ỹ":{"ha":1061,"x_min":24,"x_max":1038,"o":"m 24 1010 l 329 1010 l 527 600 l 535 600 l 732 1010 l 1038 1010 l 667 318 l 667 0 l 395 0 l 395 318 l 24 1010 m 397 1105 l 262 1105 q 311 1263 262 1211 q 430 1316 360 1315 q 495 1304 469 1316 q 543 1275 522 1292 q 579 1247 563 1259 q 614 1235 596 1235 q 654 1256 642 1235 q 667 1312 666 1276 l 799 1312 q 749 1154 798 1207 q 631 1099 700 1100 q 566 1111 593 1098 q 520 1139 539 1123 q 483 1167 500 1155 q 448 1180 467 1180 q 410 1161 424 1180 q 397 1105 397 1142 z "},"Ɏ":{"ha":1061,"x_min":18,"x_max":1044,"o":"m 1044 797 l 1044 669 l 18 669 l 18 797 l 1044 797 m 24 1010 l 329 1010 l 527 600 l 535 600 l 732 1010 l 1038 1010 l 667 318 l 667 0 l 395 0 l 395 318 l 24 1010 z "},"Υ":{"ha":1061,"x_min":24,"x_max":1038,"o":"m 24 1010 l 329 1010 l 527 600 l 535 600 l 732 1010 l 1038 1010 l 667 318 l 667 0 l 395 0 l 395 318 l 24 1010 z "},"Ύ":{"ha":1484,"x_min":4,"x_max":1363,"o":"m 349 1010 l 655 1010 l 852 600 l 860 600 l 1057 1010 l 1363 1010 l 992 318 l 992 0 l 720 0 l 720 318 l 349 1010 z "},"Ϋ":{"ha":1061,"x_min":24,"x_max":1038,"o":"m 24 1010 l 329 1010 l 527 600 l 535 600 l 732 1010 l 1038 1010 l 667 318 l 667 0 l 395 0 l 395 318 l 24 1010 z "},"Ὑ":{"ha":1359,"x_min":61,"x_max":1239,"o":"m 225 1010 l 531 1010 l 728 600 l 736 600 l 933 1010 l 1239 1010 l 868 318 l 868 0 l 596 0 l 596 318 l 225 1010 z "},"Ὓ":{"ha":1580,"x_min":47,"x_max":1460,"o":"m 446 1010 l 752 1010 l 949 600 l 957 600 l 1154 1010 l 1460 1010 l 1089 318 l 1089 0 l 817 0 l 817 318 l 446 1010 z "},"Ὕ":{"ha":1665,"x_min":0,"x_max":1545,"o":"m 531 1010 l 836 1010 l 1034 600 l 1042 600 l 1239 1010 l 1545 1010 l 1174 318 l 1174 0 l 902 0 l 902 318 l 531 1010 z "},"Ὗ":{"ha":1570,"x_min":-6,"x_max":1450,"o":"m 436 1010 l 742 1010 l 939 600 l 947 600 l 1144 1010 l 1450 1010 l 1079 318 l 1079 0 l 807 0 l 807 318 l 436 1010 z "},"Ῠ":{"ha":1061,"x_min":24,"x_max":1038,"o":"m 24 1010 l 329 1010 l 527 600 l 535 600 l 732 1010 l 1038 1010 l 667 318 l 667 0 l 395 0 l 395 318 l 24 1010 m 629 1282 l 801 1282 q 727 1129 800 1186 q 531 1071 654 1071 q 333 1129 406 1071 q 260 1282 260 1186 l 430 1282 q 453 1225 430 1251 q 531 1199 475 1199 q 606 1225 583 1199 q 629 1282 629 1250 z "},"Ῡ":{"ha":1061,"x_min":24,"x_max":1038,"o":"m 24 1010 l 329 1010 l 527 600 l 535 600 l 732 1010 l 1038 1010 l 667 318 l 667 0 l 395 0 l 395 318 l 24 1010 m 777 1263 l 777 1138 l 284 1138 l 284 1263 l 777 1263 z "},"Ὺ":{"ha":1383,"x_min":55,"x_max":1263,"o":"m 249 1010 l 554 1010 l 752 600 l 760 600 l 957 1010 l 1263 1010 l 892 318 l 892 0 l 619 0 l 619 318 l 249 1010 z "},"Ύ":{"ha":1373,"x_min":-101,"x_max":1253,"o":"m 239 1010 l 545 1010 l 742 600 l 750 600 l 947 1010 l 1253 1010 l 882 318 l 882 0 l 610 0 l 610 318 l 239 1010 z "},"Z":{"ha":965,"x_min":69,"x_max":896,"o":"m 69 0 l 69 152 l 546 789 l 71 789 l 71 1010 l 896 1010 l 896 858 l 418 221 l 894 221 l 894 0 l 69 0 z "},"Ź":{"ha":965,"x_min":69,"x_max":896,"o":"m 69 0 l 69 152 l 546 789 l 71 789 l 71 1010 l 896 1010 l 896 858 l 418 221 l 894 221 l 894 0 l 69 0 m 395 1105 l 489 1326 l 722 1326 l 574 1105 l 395 1105 z "},"Ż":{"ha":965,"x_min":69,"x_max":896,"o":"m 69 0 l 69 152 l 546 789 l 71 789 l 71 1010 l 896 1010 l 896 858 l 418 221 l 894 221 l 894 0 l 69 0 m 486 1089 q 391 1126 430 1089 q 351 1213 351 1162 q 391 1301 351 1265 q 485 1338 430 1338 q 580 1301 541 1338 q 619 1213 619 1265 q 580 1126 619 1162 q 486 1089 541 1089 z "},"Ž":{"ha":965,"x_min":69,"x_max":896,"o":"m 69 0 l 69 152 l 546 789 l 71 789 l 71 1010 l 896 1010 l 896 858 l 418 221 l 894 221 l 894 0 l 69 0 m 389 1332 l 485 1223 l 582 1332 l 807 1332 l 807 1326 l 580 1101 l 391 1101 l 164 1326 l 164 1332 l 389 1332 z "},"Ẑ":{"ha":965,"x_min":69,"x_max":896,"o":"m 69 0 l 69 152 l 546 789 l 71 789 l 71 1010 l 896 1010 l 896 858 l 418 221 l 894 221 l 894 0 l 69 0 m 389 1100 l 164 1100 l 164 1106 l 391 1331 l 580 1331 l 807 1106 l 807 1100 l 582 1100 l 485 1208 l 389 1100 z "},"Ẓ":{"ha":965,"x_min":69,"x_max":896,"o":"m 69 0 l 69 152 l 546 789 l 71 789 l 71 1010 l 896 1010 l 896 858 l 418 221 l 894 221 l 894 0 l 69 0 z "},"Ẕ":{"ha":965,"x_min":69,"x_max":896,"o":"m 69 0 l 69 152 l 546 789 l 71 789 l 71 1010 l 896 1010 l 896 858 l 418 221 l 894 221 l 894 0 l 69 0 z "},"Ȥ":{"ha":965,"x_min":69,"x_max":914,"o":"m 71 789 l 71 1010 l 896 1010 l 896 858 l 410 221 l 586 221 q 831 142 747 221 q 913 -79 914 63 l 913 -189 l 694 -189 l 694 -128 q 687 -65 695 -94 q 656 -18 680 -36 q 586 0 633 0 l 69 0 l 69 152 l 554 789 l 71 789 z "},"Ƶ":{"ha":965,"x_min":69,"x_max":896,"o":"m 69 0 l 69 152 l 546 789 l 71 789 l 71 1010 l 896 1010 l 896 858 l 418 221 l 894 221 l 894 0 l 69 0 m 237 468 l 237 614 l 767 614 l 767 468 l 237 468 z "},"Ζ":{"ha":965,"x_min":69,"x_max":896,"o":"m 69 0 l 69 152 l 546 789 l 71 789 l 71 1010 l 896 1010 l 896 858 l 418 221 l 894 221 l 894 0 l 69 0 z "},"Ɀ":{"ha":965,"x_min":67,"x_max":896,"o":"m 773 -296 q 649 -274 703 -296 q 552 -219 596 -253 q 466 -148 508 -186 q 379 -76 425 -110 q 276 -21 333 -43 q 144 0 219 0 l 67 0 l 67 138 l 535 765 l 69 765 l 69 981 l 884 981 l 884 844 l 399 182 q 494 124 451 158 q 573 55 537 90 q 645 -13 610 19 q 715 -63 679 -44 q 791 -83 750 -83 q 845 -79 819 -83 q 896 -67 871 -76 l 896 -272 q 840 -289 871 -283 q 773 -296 809 -296 z "},"a":{"ha":821,"x_min":34,"x_max":760,"o":"m 280 -12 q 152 12 208 -12 q 65 85 97 36 q 34 209 34 134 q 55 315 34 271 q 114 388 76 360 q 202 431 152 416 q 312 450 253 445 q 414 462 375 455 q 470 482 453 469 q 487 517 487 495 l 487 519 q 465 564 487 548 q 406 580 442 580 q 343 563 367 580 q 314 511 319 546 l 63 511 q 107 638 68 580 q 222 732 146 697 q 410 767 297 767 q 556 748 492 767 q 666 696 621 729 q 736 617 712 662 q 760 519 760 572 l 760 0 l 505 0 l 505 107 l 499 107 q 444 38 476 64 q 371 0 412 12 q 280 -12 329 -12 m 369 160 q 427 173 400 160 q 472 210 455 185 q 489 268 489 234 l 489 331 q 466 323 478 327 q 441 316 454 319 q 412 309 427 312 q 381 304 397 306 q 329 288 349 299 q 300 261 309 277 q 290 225 290 245 q 312 177 290 193 q 369 160 334 160 z "},"á":{"ha":821,"x_min":34,"x_max":760,"o":"m 280 -12 q 152 12 208 -12 q 65 85 97 36 q 34 209 34 134 q 55 315 34 271 q 114 388 76 360 q 202 431 152 416 q 312 450 253 445 q 414 462 375 455 q 470 482 453 469 q 487 517 487 495 l 487 519 q 465 564 487 548 q 406 580 442 580 q 343 563 367 580 q 314 511 319 546 l 63 511 q 107 638 68 580 q 222 732 146 697 q 410 767 297 767 q 556 748 492 767 q 666 696 621 729 q 736 617 712 662 q 760 519 760 572 l 760 0 l 505 0 l 505 107 l 499 107 q 444 38 476 64 q 371 0 412 12 q 280 -12 329 -12 m 369 160 q 427 173 400 160 q 472 210 455 185 q 489 268 489 234 l 489 331 q 466 323 478 327 q 441 316 454 319 q 412 309 427 312 q 381 304 397 306 q 329 288 349 299 q 300 261 309 277 q 290 225 290 245 q 312 177 290 193 q 369 160 334 160 m 327 852 l 422 1073 l 655 1073 l 507 852 l 327 852 z "},"ă":{"ha":821,"x_min":34,"x_max":760,"o":"m 280 -12 q 152 12 208 -12 q 65 85 97 36 q 34 209 34 134 q 55 315 34 271 q 114 388 76 360 q 202 431 152 416 q 312 450 253 445 q 414 462 375 455 q 470 482 453 469 q 487 517 487 495 l 487 519 q 465 564 487 548 q 406 580 442 580 q 343 563 367 580 q 314 511 319 546 l 63 511 q 107 638 68 580 q 222 732 146 697 q 410 767 297 767 q 556 748 492 767 q 666 696 621 729 q 736 617 712 662 q 760 519 760 572 l 760 0 l 505 0 l 505 107 l 499 107 q 444 38 476 64 q 371 0 412 12 q 280 -12 329 -12 m 369 160 q 427 173 400 160 q 472 210 455 185 q 489 268 489 234 l 489 331 q 466 323 478 327 q 441 316 454 319 q 412 309 427 312 q 381 304 397 306 q 329 288 349 299 q 300 261 309 277 q 290 225 290 245 q 312 177 290 193 q 369 160 334 160 m 517 1030 l 689 1030 q 615 876 688 934 q 418 819 542 819 q 220 876 293 819 q 148 1030 147 934 l 318 1030 q 340 973 317 999 q 418 947 363 947 q 494 972 471 947 q 517 1030 516 997 z "},"ắ":{"ha":821,"x_min":34,"x_max":760,"o":"m 280 -12 q 152 12 208 -12 q 65 85 97 36 q 34 209 34 134 q 55 315 34 271 q 114 388 76 360 q 202 431 152 416 q 312 450 253 445 q 414 462 375 455 q 470 482 453 469 q 487 517 487 495 l 487 519 q 465 564 487 548 q 406 580 442 580 q 343 563 367 580 q 314 511 319 546 l 63 511 q 107 638 68 580 q 222 732 146 697 q 410 767 297 767 q 556 748 492 767 q 666 696 621 729 q 736 617 712 662 q 760 519 760 572 l 760 0 l 505 0 l 505 107 l 499 107 q 444 38 476 64 q 371 0 412 12 q 280 -12 329 -12 m 369 160 q 427 173 400 160 q 472 210 455 185 q 489 268 489 234 l 489 331 q 466 323 478 327 q 441 316 454 319 q 412 309 427 312 q 381 304 397 306 q 329 288 349 299 q 300 261 309 277 q 290 225 290 245 q 312 177 290 193 q 369 160 334 160 m 535 1004 l 689 1004 q 614 877 688 926 q 416 829 540 829 q 220 877 293 829 q 148 1004 147 926 l 298 1004 q 325 952 297 976 q 416 927 352 927 q 508 952 481 927 q 535 1004 534 976 m 347 992 l 444 1113 l 612 1113 l 481 992 l 347 992 z "},"ặ":{"ha":821,"x_min":34,"x_max":760,"o":"m 280 -12 q 152 12 208 -12 q 65 85 97 36 q 34 209 34 134 q 55 315 34 271 q 114 388 76 360 q 202 431 152 416 q 312 450 253 445 q 414 462 375 455 q 470 482 453 469 q 487 517 487 495 l 487 519 q 465 564 487 548 q 406 580 442 580 q 343 563 367 580 q 314 511 319 546 l 63 511 q 107 638 68 580 q 222 732 146 697 q 410 767 297 767 q 556 748 492 767 q 666 696 621 729 q 736 617 712 662 q 760 519 760 572 l 760 0 l 505 0 l 505 107 l 499 107 q 444 38 476 64 q 371 0 412 12 q 280 -12 329 -12 m 369 160 q 427 173 400 160 q 472 210 455 185 q 489 268 489 234 l 489 331 q 466 323 478 327 q 441 316 454 319 q 412 309 427 312 q 381 304 397 306 q 329 288 349 299 q 300 261 309 277 q 290 225 290 245 q 312 177 290 193 q 369 160 334 160 m 517 1030 l 689 1030 q 615 876 688 934 q 418 819 542 819 q 220 876 293 819 q 148 1030 147 934 l 318 1030 q 340 973 317 999 q 418 947 363 947 q 494 972 471 947 q 517 1030 516 997 z "},"ằ":{"ha":821,"x_min":34,"x_max":760,"o":"m 280 -12 q 152 12 208 -12 q 65 85 97 36 q 34 209 34 134 q 55 315 34 271 q 114 388 76 360 q 202 431 152 416 q 312 450 253 445 q 414 462 375 455 q 470 482 453 469 q 487 517 487 495 l 487 519 q 465 564 487 548 q 406 580 442 580 q 343 563 367 580 q 314 511 319 546 l 63 511 q 107 638 68 580 q 222 732 146 697 q 410 767 297 767 q 556 748 492 767 q 666 696 621 729 q 736 617 712 662 q 760 519 760 572 l 760 0 l 505 0 l 505 107 l 499 107 q 444 38 476 64 q 371 0 412 12 q 280 -12 329 -12 m 369 160 q 427 173 400 160 q 472 210 455 185 q 489 268 489 234 l 489 331 q 466 323 478 327 q 441 316 454 319 q 412 309 427 312 q 381 304 397 306 q 329 288 349 299 q 300 261 309 277 q 290 225 290 245 q 312 177 290 193 q 369 160 334 160 m 535 1006 l 689 1006 q 615 882 688 931 q 416 833 542 833 q 220 882 293 833 q 148 1006 147 931 l 298 1006 q 325 954 297 978 q 416 929 352 929 q 507 954 479 929 q 535 1006 534 978 m 359 992 l 227 1113 l 395 1113 l 489 992 l 359 992 z "},"ẳ":{"ha":821,"x_min":34,"x_max":760,"o":"m 280 -12 q 152 12 208 -12 q 65 85 97 36 q 34 209 34 134 q 55 315 34 271 q 114 388 76 360 q 202 431 152 416 q 312 450 253 445 q 414 462 375 455 q 470 482 453 469 q 487 517 487 495 l 487 519 q 465 564 487 548 q 406 580 442 580 q 343 563 367 580 q 314 511 319 546 l 63 511 q 107 638 68 580 q 222 732 146 697 q 410 767 297 767 q 556 748 492 767 q 666 696 621 729 q 736 617 712 662 q 760 519 760 572 l 760 0 l 505 0 l 505 107 l 499 107 q 444 38 476 64 q 371 0 412 12 q 280 -12 329 -12 m 369 160 q 427 173 400 160 q 472 210 455 185 q 489 268 489 234 l 489 331 q 466 323 478 327 q 441 316 454 319 q 412 309 427 312 q 381 304 397 306 q 329 288 349 299 q 300 261 309 277 q 290 225 290 245 q 312 177 290 193 q 369 160 334 160 m 537 982 l 692 982 q 618 857 693 904 q 414 811 543 811 q 213 857 287 811 q 138 982 139 904 l 292 982 q 322 933 293 953 q 414 913 350 913 q 509 934 480 913 q 537 982 538 954 m 481 1010 l 329 1010 l 310 1069 q 384 1079 361 1071 q 406 1099 407 1087 q 381 1128 407 1123 q 314 1134 355 1134 l 320 1219 q 521 1192 452 1219 q 588 1111 589 1164 q 556 1059 589 1077 q 481 1038 522 1042 l 481 1010 z "}}}
